<?xml version="1.0" encoding="UTF-8"?><svg id="b" xmlns="http://www.w3.org/2000/svg" viewBox="0 0 97.83 87.44"><g id="c"><path d="M94.92,28.89c2.06,3.44,2.49,6.76,2.77,9.98.81,9.54-1.65,18.29-6.91,26.3-2.52,3.83-5.4,7.19-9.69,9.1-6.82,3.04-12.9,1.77-18.68-2.76-6.01-4.71-12.1-9.36-18.91-12.89-7.9-4.09-16.07-4.28-24.24-.91-1.89.78-2.85.64-3.85-1.15-3.79-6.75-4.15-13.94-2.6-21.27,1.78-8.38,5.88-15.64,11.87-21.71C31.6,6.55,39.71,1.67,49.77.38,53.15-.05,56.48-.02,60.23.03c-11.22,7.3-16.64,17.15-13,30.08,2.76,9.78,9.88,16.15,20.08,17.53,14.14,1.92,23.07-4.99,27.6-18.76Z" style="fill:#5b5466; stroke-width:0px;"/><path d="M53.79,23.8c-.44-10.51,7.7-18.53,17.59-18.32,9.61.21,17.18,7.22,17.21,18.28.03,10.53-7.41,18.29-17.4,18.28-9.95-.01-17.98-8.37-17.39-18.25Z" style="fill:#5b5466; stroke-width:0px;"/><path d="M0,75.62c1.67-2.42,3.79-4.53,6.15-6.2,6.28-4.46,12.95-8.05,20.89-8.68,5.69-.45,10.92.72,16.07,3.15,7.32,3.46,13.02,9.1,19.43,13.78,3.46,2.52,7.17,3.87,11.5,3.13.69-.12,1.66-.35,1.95.45.31.87-.66,1.1-1.27,1.43-3.31,1.82-6.62,3.61-10.4,4.35-5.27,1.02-10.16.07-14.89-2.34-6.5-3.31-12.04-8.24-19.09-10.66-9.1-3.13-17.92-2.91-26.67,1.04-1.01.45-2.09.73-3.14,1.1-.17-.18-.34-.37-.51-.55Z" style="fill:#5b5466; stroke-width:0px;"/></g></svg>