<?xml version="1.0" encoding="UTF-8"?><svg id="b" xmlns="http://www.w3.org/2000/svg" viewBox="0 0 90.82 101.21"><g id="c"><path d="M59.15,100.62c2.96-1.84,5.85-3.37,8.06-5.89,5.11-5.81,5.95-12.46,3.86-19.57-2.39-8.14-7.6-14.12-15.66-16.72-10.88-3.5-21.24-2.38-29.6,6.31-7.04,7.32-9.82,18.16-4.32,27.17,2.05,3.36,4.96,5.86,8.52,7.58.51.25,1.16.47,1.13,1.11-.03.61-.68.66-1.13.56-8.74-1.91-17.49-3.89-23.87-10.9C.31,83.88-.88,76.19.55,67.99c3.03-17.34,12.69-31.32,23.15-44.83,6-7.74,12.61-14.97,19.55-21.89,1.58-1.57,2.6-1.79,4.3-.06,12.12,12.33,23.46,25.29,32.31,40.23,5.14,8.68,9.14,17.79,10.64,27.94,1.82,12.4-4.24,23.46-16.01,27.88-4.19,1.58-8.42,3.16-12.91,3.8-.71.1-1.39.39-2.43-.43Z" style="fill:#07de29; stroke-width:0px;"/><path d="M62.1,80.4c-.05,9.17-7.42,16.14-16.94,16.03-9.15-.1-16.57-7.33-16.48-16.05.1-9.37,7.26-16.29,16.75-16.17,9.8.12,16.73,6.85,16.67,16.19Z" style="fill:#07de29; stroke-width:0px;"/></g></svg>