<?xml version="1.0" encoding="UTF-8"?><svg id="b" xmlns="http://www.w3.org/2000/svg" viewBox="0 0 101.34 105.33"><g id="c"><path d="M96.99,88.09c-2.2,3.8-5.41,6.48-8.83,8.76-4.46,2.98-9.4,5.28-14.6,6.54-6.3,1.53-12.76,2.46-19.29,1.64-6.36-.79-12.57-2.2-18.53-4.64-7.8-3.19-14.51-7.87-20.26-14.07-5.76-6.21-10.2-13.14-12.86-21.2-3.64-11-3.53-21.87.58-32.78,2.57-6.81,6.34-12.7,11.27-18C20.83,7.51,28.87,3.8,37.66,1.4c6.16-1.68,12.48-1.9,18.62-.38,10.17,2.51,17.69,9.76,19.55,20.83,1.15,6.86.62,13.11-3.73,18.74-1.23,1.6-2.72,2.95-4.18,4.33-8.92,8.35-11.83,22.39-4.52,32.89,4.49,6.45,10.53,10.48,18.42,11.28,5.04.51,10.1.51,15.17-1Z" style="fill:#40d6f7; stroke-width:0px;"/><path d="M101.34,65.13c0,9.02-7.13,16.23-15.98,16.16-9.75-.08-18-7.82-17.96-16.87.04-8.95,7.73-16.65,16.63-16.65,9.57,0,17.31,7.77,17.31,17.37Z" style="fill:#40d6f7; stroke-width:0px;"/></g></svg>