<?xml version="1.0" encoding="UTF-8"?>
<svg id="b" xmlns="http://www.w3.org/2000/svg" viewBox="0 0 401.7 458.04">
    <g id="c">
        <path id="d"
            d="M401.7,299.8c-.13,1.9-.24,3.81-.41,5.71-1.04,11.72-4.84,22.54-11.15,32.41-17.32,27.1-41.06,46.08-71.72,56.17-10.46,3.44-21.16,5.83-32.13,6.84-6.93.64-13.79-.22-20.59-1.66-10.28-2.18-20.66-3.73-31.12-4.73-10.72-1.02-21.46-1.38-32.21-1.1-12.15.32-24.23,1.45-36.23,3.46-4.68.79-9.38,1.53-13.98,2.72-3.95,1.02-7.35,3.03-10.25,5.92-4.99,4.97-9.93,9.98-13.94,15.8-2.82,4.09-5.27,8.38-6.35,13.31-1.32,6,.39,11.03,4.76,15.24,2.65,2.55,5.8,4.36,9.08,5.95.49.24.96.51,1.62.86-2.54,1.09-5.01,1.4-7.53,1.33-14.13-.4-27.14-11.82-28.49-25.9-1.75-18.2,4.18-33.42,19.38-44.37,8.97-6.46,19.04-10.51,29.72-13.09,10.2-2.47,20.58-3.72,31.05-4.18,8.03-.35,16.06-.15,24.09.11,10.37.33,20.58-.87,30.67-3.13,13.61-3.06,26.97-6.91,39.75-12.6,13.07-5.83,24.94-13.46,35.13-23.56,12.85-12.75,22.21-27.55,26.37-45.36.5-2.14.88-4.3,1.31-6.45.04-.19.04-.4.06-.6.04-.61.05-1.34-.43-1.67-.47-.31-.89.34-1.29.61-8.82,6-17.51,12.19-26.6,17.78-15.49,9.52-31.69,17.57-48.99,23.26-11.44,3.77-23.13,6.44-35.1,7.87-10.04,1.19-20.08,1.38-30.13.15-6.99-.86-13.84-2.37-20.48-4.76-3.41-1.22-3.68-2.6-1.07-5.06,1.04-.97,1.85-2.03,2.29-3.43,1.75-5.5,5.33-8.25,11.11-8.54,2.75-.14,5.51-.02,8.26-.18,6.27-.37,12.05-2.42,17.38-5.62,10.95-6.57,20.59-14.7,28.88-24.43,5.34-6.26,10.42-12.75,16.02-18.79,12.67-13.68,27-25.13,44.22-32.66,9.65-4.22,19.69-6.53,30.28-5.92,8.94.51,17.38,2.97,24.91,7.75,19.25,12.23,33.08,28.9,40.27,50.74,2.25,6.82,3.29,13.89,3.42,21.08,0,.27.09.54.13.81v1.92Z"
            style="fill:currentColor; stroke-width:0px;" />
        <path id="e"
            d="M0,90.06c.06-.19.15-.37.19-.56.41-2,1.37-2.67,3.35-2.09,2.29.68,4.54,1.5,6.81,2.27,1.66.56,3.33,1.12,4.99,1.69,1.25.43,2.49.55,3.76.04.05-.4-.34-.48-.57-.65-4.61-3.38-9.12-6.88-13.95-9.95-3.48-2.22-4.36-5.03-2.9-8.88,1-2.65,2.21-5.22,3.66-7.66,1.59-2.65,2.99-3.1,5.81-1.89,3.86,1.67,7.4,3.93,11.05,5.98,4.49,2.52,8.95,5.1,13.43,7.65.14.08.29.14.42.23.42.33.74.29,1.11-.14.42-.48.07-.7-.2-.98-3.81-3.94-7.61-7.88-11.42-11.81-2.67-2.75-5.38-5.47-8.04-8.24-5.96-6.23-6.82-15.25-2.16-22.38,1.32-2.02,2.01-2.13,3.9-.58.49.4.95.86,1.44,1.26.44.36.92.66,1.52.3.6-.36.93-.84.88-1.57-.05-.8-.51-1.42-.91-2.06-2.59-4.14-4.51-8.53-5.25-13.39-.62-4.14-.34-8.2.93-12.19.22-.68.53-1.34.9-1.95,1.65-2.69,4.3-3.32,6.83-1.45,1.83,1.34,3.47,2.94,5.19,4.43,7.88,6.82,14.88,14.5,21.71,22.33,6.46,7.41,12.87,14.85,19.56,22.06,5.19,5.59,8.74,12.08,9.91,19.72.87,5.68.43,11.32-.73,16.91-1.78,8.61-3.07,17.29-4.22,26-1.35,10.13-2.45,20.3-3.99,30.41-.72,4.75.62,8.88,3.63,12.59,5.29,6.52,10.2,13.32,14.72,20.41,2.3,3.6,4.48,7.26,6.52,11.05-.42.21-.71-.03-1.01-.16-1.25-.52-2.23-1.39-3.12-2.38-8.1-9.06-16.54-17.8-25.06-26.46-3.3-3.35-4.75-7.26-4.24-11.96,1.27-11.63,2.41-23.28,3.74-34.91,1.65-14.44,3.51-28.86,5.64-43.24.58-3.93-.66-7.21-3.51-9.97-9.96-9.66-19.71-19.54-29.48-29.39-3.35-3.38-6.7-6.76-10.05-10.14-.08-.09-.16-.18-.26-.25-.69-.53-1.45-1.38-2.25-1.09-.53.19-.34,1.36-.44,2.09-.33,2.38-.54,4.76-.18,7.16.43,2.82,2,5.1,3.5,7.41,3.55,5.45,7.21,10.84,9.99,16.76.25.53.48,1.06.77,1.72-1.93-.2-3.61-.77-5.08-1.71-3.43-2.2-7.18-3.82-10.59-6.04-1.45-.94-2.26-.73-3.2.69-1.95,2.96-1.75,6.14.55,8.81,6.9,7.98,14.03,15.76,20.58,24.03,1.79,2.26,3.48,4.58,5.09,6.97.21.31.53.58.54,1.14-2.84-.95-5.63-1.89-8.41-2.83-5.59-1.88-11.18-3.78-16.69-5.88-1.86-.71-2.72-.29-3.45,1.57-1.39,3.54-.62,6.59,2.27,9.04,5.55,4.71,10.81,9.73,16.19,14.62.16.15.41.27.38.66-3.21.11-6.3-.54-9.4-1.28-4.08-.96-8.17-1.84-12.25-2.78-.85-.2-1.68-.52-2.52-.76-1.67-.49-2.62.15-2.76,1.91-.17,2.19.95,3.75,2.63,4.93,3.59,2.53,7.22,5.01,10.84,7.5,6.68,4.6,13.36,9.2,20.04,13.8.23.16.44.33.88.67-2.39.17-4.57.25-6.71-.02-6.06-.78-12.16-1.16-18.24-1.83-.16-.02-.32-.02-.48-.06-1.06-.23-2.14-.34-2.78.75-.69,1.16-.79,2.43-.11,3.65.5.91,1.33,1.46,2.24,1.93,5.53,2.86,11.06,5.73,16.58,8.6.84.44,2.12.9,2.09,1.72-.02.66-1.44.9-2.3,1.16-3.06.91-6.14,1.74-9.19,2.65-1.8.53-3.51,1.29-5.25,2.39,1.74.7,3.44.81,5.12.92,3.48.22,6.94-.38,10.41-.45,1.87-.04,3.74-.1,5.81.36-1.3,1.13-2.47,2.18-3.66,3.2-4.93,4.25-9.86,8.5-14.81,12.75-.82.7-1.72,1.31-2.52,2.02-1.1.98-1.21,1.92-.46,3.08.65,1.02,1.53,1.31,2.82.78,4.25-1.74,8.76-2.71,13.05-4.34.96-.36,1.21.1,1.34.87.1.57-.06,1.1-.32,1.61-.4.78-.77,1.58-.9,2.46-.25,1.7.34,2.56,1.99,2.97.71.18,1.43.11,2.14.19,1.7.2,2.17,1,1.43,2.55-.83,1.73-1.76,3.4-2.27,5.27-.25.89-.45,1.78-.36,2.72.15,1.75,1.31,2.86,3.06,2.91.88.02,1.76-.06,2.64-.06,1.88,0,2.57.73,2.4,2.58-.15,1.59-.37,3.17-.52,4.76-.23,2.39-.33,4.78.32,7.14.6,2.16,1.77,3.95,3.59,5.23,1.07.76,1.91,1.67,2.63,2.73.38.56.82,1.09,1.28,1.58,1.19,1.25,2,1.36,3.48.42.94-.59,1.82-1.29,2.73-1.95.55-.4,1.07-.85,1.64-1.21,1.83-1.18,2.72-.84,3.24,1.3.27,1.12.4,2.28.61,3.42.34,1.8,1.1,3.34,2.77,4.27.72.4.83,1.08.77,1.75-.19,2.22-.85,4.3-2.03,6.2-.49.8-1.12,1.37-2.15,1.18-.97-.18-1.23-.96-1.39-1.75-.57-2.94-1.09-5.88-1.67-9.01-.59.84-1.12,1.57-1.63,2.31-1.16,1.67-2.33,3.34-3.64,4.91-1.12,1.34-2.31,2.5-4.27,1.97-1.94-.52-3.28-2.2-3.57-4.37-.12-.91-.26-1.82-.45-2.71-.45-2.16-1.9-3.36-3.99-3.56-2.06-.2-3.04-1.33-3.53-3.16-.91-3.44-.73-6.88-.09-10.33.22-1.18.5-2.34.74-3.52.45-2.2-.42-3.24-2.66-3.04-2.84.25-5.58,0-8.15-1.34-3.53-1.83-4.07-4.78-1.33-7.67.99-1.04,2.1-1.97,3.13-2.97.77-.75,1.35-1.63,1.58-2.81-1.06.05-1.85.51-2.69.86-1.1.46-2.18,1-3.39,1.12-1.41.14-1.61-.11-1.3-1.53.22-1.01.83-1.8,1.39-2.63.48-.72,1.56-1.66,1.17-2.18-.54-.72-1.77-.13-2.67.09-2,.48-3.76,1.52-5.56,2.49-.77.42-1.55.83-2.37,1.13-1.9.71-3.61.31-5.08-1.08-1.11-1.05-2.05-2.25-2.79-3.58-.99-1.78-.83-3.3.47-4.88,1.05-1.28,2.42-2.21,3.71-3.21,4.29-3.33,8.74-6.48,12.54-10.4.22-.23.51-.38,1.02-.74-2.5-.79-4.7-.85-6.89-.52-4.15.62-8.33.93-12.5,1.31-5.65.52-6.42-2.31-6.25-6.58.11-2.8,1.17-3.88,3.91-4.54,5.47-1.32,10.92-2.72,16.17-4.76.24-.1.48-.21.97-.41-2.67-.78-5.12-1.47-7.55-2.21-2.7-.82-5.48-1.44-7.86-3.12-3.97-2.81-6.05-8.2-4.85-12.8.53-2.03,1.63-2.98,3.71-2.79,2.58.24,5.14.7,7.71,1.07,4.07.58,8.14,1.18,12.22,1.74,1.08.15,2.13-.08,3.32-.53-2.78-1.57-5.43-3.1-8.11-4.58-5.58-3.1-11.16-6.21-16.78-9.25-5.66-3.06-8.78-7.73-9.26-14.15-.02-.31-.12-.62-.19-.93,0-.88,0-1.76,0-2.64Z"
            style="fill:currentColor; stroke-width:0px;" />
        <path id="f"
            d="M318.27,63.37c5.8-.49,11.5-.66,17.14-1.55,3.67-.58,4.83.52,4.46,4.17-.49,4.89-3.19,8.4-6.84,11.38-5.1,4.16-11.02,6.87-16.95,9.56-.71.32-1.41.66-2.04,1.14,5.73-.39,11.46-.8,17.19-1.17,3.84-.25,5.03,1.13,4.4,4.92-.84,5.04-3.69,8.82-7.42,12.1-3.81,3.35-8.38,5.38-12.89,7.52-1.36.64-2.69,1.34-4.35,2.18,3.21.69,6.09.77,8.98.56,1.67-.13,3.34-.34,5.01-.44,2.37-.13,2.92.67,1.82,2.75-2.22,4.2-5.04,7.97-8.53,11.21-3.13,2.91-6.67,5.2-10.62,6.84-2.69,1.11-4.54,3.05-5.19,5.88-1.9,8.28-7.23,13.66-14.49,17.46-7.77,4.07-16.08,6.35-24.73,7.55-2.49.35-4.99.64-7.49.96-.2.03-.4.05-.58.12-.53.19-1.19.41-1.29.96-.08.43.53.74.89,1.04.92.78,1.97,1.36,3.05,1.89,10,4.98,20.01,9.96,30.01,14.95.25.12.5.25.74.4,1.71,1.03,1.99,1.96.92,3.66-3.32,5.25-7.8,8.37-14.32,7.73-.35-.03-.87-.37-1.07.1-.21.47-.1,1.02.24,1.48.61.83,1.5,1.3,2.33,1.85,2.04,1.37,2.27,2.55.89,4.6-2.63,3.9-8.57,5.75-13.03,4.07-6.46-2.43-12.92-4.85-19.39-7.28-.04-.01-.08-.02-.11-.04-.45-.2-.85-.37-1.25.17-.41.56.06.8.31,1.11,3.08,3.73,6.17,7.44,9.25,11.17.43.52.85,1.07,1.2,1.65.88,1.47.84,2.96-.04,4.42-2.08,3.44-5.24,4.55-9.05,3.18-.37-.13-.75-.27-1.13-.38-.56-.16-1.15-.2-1.56.28-.43.5-.2,1.05.07,1.56.57,1.1,1.17,2.18,1.69,3.3,1,2.18.75,3.27-1.08,4.85-1.48,1.28-3.01,2.51-4.67,3.55-2.81,1.77-4.88,1.29-6.69-1.51-.17-.27-.33-.55-.49-.82-1.2-1.93-2.07-2.14-4.04-1.05-1.95,1.08-2.8,2.76-2.87,4.92-.02.76,0,1.52-.01,2.28-.05,2.25-.91,3.38-3.04,4.03-3.74,1.13-7.11.23-10.2-1.95-3-2.13-5.78-4.54-8.64-6.86-.4-.32-.81-.64-1.32-1.05-.63,2-.48,3.92-.25,5.83.29,2.42,1.06,4.76,1.09,7.21.03,2.11-.71,2.95-2.8,3.05-2.35.12-4.71.19-7.05-.23-2.41-.43-4.06-1.74-4.83-4.11-.96-2.92-1.08-5.95-1.24-9.02.5.03.56.45.72.71,1.24,2.05,2.44,4.12,3.7,6.16.9,1.45,2.22,2.29,3.94,2.39,1.73.1,2.53-.68,2.51-2.41-.06-4.99-.13-9.99-.2-14.98,0-.28,0-.56,0-.84.02-.61.27-1.09.84-1.34.57-.25,1.09-.09,1.55.32,3.92,3.48,8.11,6.62,12.12,9.98,1.2,1,2.39,2.09,4.17,1.34,1.83-.78,2.3-2.36,2.32-4.11.04-3.66,3-7.15,7.11-7.92,2.05-.38,3.97-.07,5.8.9,1.2.64,2.37,1.33,3.59,1.92,1.67.81,4.03-.03,4.85-1.67.34-.69.14-1.31-.24-1.92-1-1.6-2.09-3.12-3.5-4.38-.59-.53-1.13-1.13-1.51-1.85-.89-1.72-.07-3.3,1.85-3.44.95-.07,1.92.03,2.87.1,1.36.11,2.7.22,4.06-.04,2.94-.58,3.67-2.47,1.81-4.79-3.92-4.9-7.83-9.81-11.74-14.72-.21-.27-.54-.48-.58-.96,2.82-.33,5.56.05,8.3.57,4.66.89,9.33,1.78,14,2.63,2.56.47,4.75-1.32,4.84-3.9.03-.95-.43-1.7-1.2-2.22-.89-.6-1.82-1.15-2.74-1.72-1.51-.94-2.21-1.54-2.86-2.54,3.66.81,7.33,1.38,10.86,2.58,3.63,1.23,6.38-.28,7.53-3.96.46-1.48.11-2.5-1.27-3.21-9.46-4.85-18.18-10.95-27.4-16.2-.62-.36-1.26-.69-1.89-1.03-.58-.32-1.08-.71-1.06-1.46.02-.82.59-1.19,1.25-1.44,1.94-.75,3.98-1.17,5.98-1.7,12.81-3.37,25.62-6.72,38.43-10.1,2.66-.7,3.64-2.15,3.5-4.8-.09-1.63-.69-2.21-2.34-2.16-3.12.08-6.23-.01-9.33-.45-.98-.14-1.96-.29-2.91-.67.18-.48.62-.55.94-.72,8.92-4.73,17.72-9.68,26.72-14.28,2.6-1.33,2.47-5.03-.19-7.02-1.12-.84-2.44-.94-3.75-1.06-3.43-.32-6.8-.92-10.2-2.28,2.83-1.5,5.53-2.92,8.22-4.36,4.92-2.64,9.91-5.15,14.75-7.96,3.67-2.13,4.7-5.44,4.6-9.33-.04-1.6-.72-2.12-2.36-2.23-5.46-.38-10.79-1.6-16.14-2.68-.69-.14-1.4-.32-2.07-.82,2.58-1.61,5.11-3.2,7.65-4.78,5.84-3.62,11.68-7.23,17.53-10.83.95-.58,1.8-1.23,1.96-2.42.24-1.75-.93-3.16-2.78-3.16-6.4-.02-12.74-.98-19.13-1.26-1.59-.07-1.67-.27-.84-1.67.46-.77,1.13-1.34,1.85-1.86,7.27-5.29,14.54-10.58,21.81-15.87,2.57-1.87,3.52-4.49,3.21-7.55-.25-2.49-1.52-3.14-3.92-2.44-5.42,1.59-10.99,2.39-16.62,2.74-.22.01-.45,0-.88,0,1.37-1.79,2.64-3.43,3.88-5.07,2.41-3.19,4.79-6.4,7.22-9.57.7-.91,1.59-1.68,2.34-2.56.99-1.15,1.07-2.15.34-3.14-.8-1.08-1.74-1.3-3.19-.6-16.61,8.09-33.72,15.1-50.18,23.51-7.57,3.87-15.06,7.89-22.38,12.24-2.77,1.65-4.58,3.89-5.54,7.03-5.25,17.12-10.96,34.1-16.03,51.28-3.95,13.36-7.52,26.82-10.24,40.49-1.47,7.39-5.4,12.83-12.15,16.41-11.19,5.93-21.8,12.86-32.63,19.41-.24.14-.47.32-.72.42-.38.15-.76.82-1.18.11-.36-.61-.18-1.13.38-1.57,1.61-1.25,3.22-2.5,4.81-3.77,7.63-6.07,15.21-12.22,23.31-17.66,3.12-2.1,6.29-4.1,9.58-5.91,1.77-.97,2.9-2.37,3.35-4.3,1.44-6.18,2.85-12.37,4.27-18.55,5.02-21.82,10.47-43.52,17.16-64.91,1.29-4.11,2.33-8.29,4.28-12.17,4.24-8.45,10.75-14.66,19.07-18.93,10.51-5.39,21.19-10.44,31.87-15.47,13.11-6.17,26.38-11.95,40.06-16.75,5.65-1.99,11.36-3.76,17.12-5.41,1.45-.42,2.85-1.03,4.3-1.46,1.49-.45,3.02-.67,4.27.59,1.34,1.36,1.42,3.02.8,4.69-1.16,3.07-3.13,5.65-5.18,8.16-3.92,4.81-8.93,8.31-14.2,11.45-1.82,1.08-3.66,2.13-5.48,3.2-.42.25-.96.38-.61,1.15.32.71.77.56,1.27.44,5.27-1.29,10.54-2.6,15.81-3.89,1.05-.26,2.11-.48,3.19-.44,1.4.05,1.93.6,1.87,2.05-.09,2.14-.79,4.15-1.56,6.12-1.99,5.04-5.4,9.01-9.5,12.44-3.35,2.8-6.98,5.21-10.64,7.56-1.82,1.17-3.58,2.41-5.04,4.04-.1.11-.16.25-.29.47Z"
            style="fill:currentColor; stroke-width:0px;" />
        <path id="g"
            d="M76.27,251.77c0-9.75,2.49-18.07,6.69-25.96,4.72-8.88,10.14-17.37,14.85-26.26,2.32-4.37,4.46-8.82,6.22-13.46.32-.85.65-1.6,1.79-.93.59.35,1.18.03,1.68-.3.67-.43,1.3-.94,1.97-1.36,1.35-.86,2.48-.7,3.49.55.68.84,1.21,1.79,1.9,2.61,2.12,2.51,4.52,2.48,6.67,0,.82-.95,1.4-2.03,2.04-3.09.83-1.38,1.67-1.53,2.79-.44,9.32,9.01,16.27,19.44,19.25,32.24,3.06,13.13,1.37,25.68-4.59,37.72-3.75,7.58-8.09,14.85-11.81,22.46-3.67,7.5-6.95,15.16-9.05,23.27-.43,1.66-.64,3.37-1.08,5.03-.66,2.46-1.54,2.87-3.82,1.69-7.23-3.74-14-8.16-20.03-13.67-8.74-7.99-14.77-17.64-17.57-29.21-.93-3.82-1.39-7.69-1.38-10.86Z"
            style="fill:#cecece; stroke-width:0px;" />
        <path id="h"
            d="M164.95,87.09c-7.62,12.27-15.24,24.53-23,37.03,2.31-.46,4.39-.87,6.46-1.29,13.41-2.7,26.83-5.4,40.24-8.09.39-.08.86-.43,1.12.2.26.61-.3.76-.62.99-7.01,5.1-14.17,9.99-21.06,15.26-3.2,2.45-6.18,5.19-9.62,7.33-5.98,3.72-12.54,5.72-19.49,6.45-9.04.94-17.91,2.65-26.61,5.25-.91.27-1.83.55-2.8.61-1.35.08-2.58-.22-3.53-1.16-3.45-3.42-6.32-7.21-7.24-12.14-.55-2.95-.17-5.84.94-8.58,2.99-7.39,7.59-13.91,11.29-21.12,1.25,1.45,1.59,3.02,1.74,4.63.14,1.47.15,2.96.57,4.39.48,1.61,1.33,1.95,2.63.88,2.37-1.95,4.64-4.04,6.95-6.06,10.11-8.82,21.08-16.32,33.41-21.73,2.73-1.2,5.51-2.27,8.61-2.86Z"
            style="fill:currentColor; stroke-width:0px;" />
    </g>
</svg>