<?xml version="1.0" encoding="UTF-8"?><svg id="b" xmlns="http://www.w3.org/2000/svg" viewBox="0 0 84.15 122.19"><g id="c"><path d="M14.27,49.72c-1.32,4.77-3.86,8.42-5.07,12.68-3.2,11.21,3.15,24.37,13.65,28.74,5.47,2.28,10.91,3.66,16.77,1.99,6.03-1.72,10.58-5.33,13.77-10.72,5.88-9.95,4.36-19.57-1.21-29.01-2.35-3.99-5.16-7.75-7.1-11.92-2.48-5.31-2.72-11.04-.9-16.69,2.35-7.34,5.67-14.1,11.83-19.11,3.29-2.67,7.05-4.35,11.1-5.42.71-.19,1.56-.52,2.28.12.13.74-.54.69-.9.91-7.54,4.5-11.9,14.17-10.06,22.86,1.89,8.94,6.68,16.43,12.61,23.14,5.15,5.84,9.53,12.03,11.75,19.56,1.48,5,1.66,10.16,1.07,15.29-1.58,13.85-8.34,24.87-19.81,32.49-13.93,9.26-28.75,10.04-43.73,2.23-5.59-2.91-10.48-6.74-13.84-12.22-2.79-4.55-4.33-9.57-5.42-14.73C.29,86.36-.02,82.78,0,79.14c.08-11.85,4.49-21.56,14.27-29.42Z" style="fill:#f2490d; stroke-width:0px;"/><path d="M15.29,69.53c-.48-8.29,6.27-17.85,18.66-17.57,10.53.24,17.63,8.17,17.62,16.99-.01,9.66-7.21,17.97-18.07,18.03-10.27.05-18.37-7.49-18.2-17.44Z" style="fill:#f2490d; stroke-width:0px;"/></g></svg>