<?xml version="1.0" encoding="UTF-8"?><svg id="b" xmlns="http://www.w3.org/2000/svg" viewBox="0 0 947.52 180"><g id="c"><path d="M463.2,179.98c-154.03,0-308.07,0-462.1.02-.9,0-1.1-.2-1.1-1.1C.02,119.63.02,60.37,0,1.1,0,.2.2,0,1.1,0c157.39.02,314.79.02,472.18.02-.24.36-.67.36-1,.54-7.41,4.17-14.27,9.05-19.83,15.56-8.75,10.25-13.87,21.85-13.01,35.61.33,5.28,1.81,10.25,4.3,14.9,3.85,7.19,9.59,12.53,16.45,16.78.1,0,.2-.02.3-.02-.06-.04-.11-.08-.17-.12-.58-1.37-1.54-2.49-2.5-3.59-3.79-4.33-7.13-8.96-9.64-14.16-5.17-10.73-5.37-21.57-.82-32.55,3.25-7.83,8.52-14.05,15.09-19.26,2.47-1.96,5.05-3.76,7.73-5.4,1.43-.88,1.91-.68,2.33.96.46,1.77.81,3.55.88,5.4.15,4.02-.8,7.82-2.04,11.59-1.44,4.36-1.05,8.57,1.32,12.52,1.82,3.04,3.78,6,5.9,8.85,4,5.38,4.67,11.16,2.11,17.33-1.68,4.05-4.15,7.61-6.9,10.99-1.76,2.17-3.65,4.23-5.78,6.05-.19.17-.56.33-.42.65.16.37.52.24.84.19.77-.13,1.39-.55,1.99-1,5.59-4.16,10.82-8.67,14.15-14.97,2.61-4.94,3.77-10.12,1.63-15.51-1.55-3.89-3.69-7.5-6.36-10.75-3.5-4.26-5.12-8.96-2.94-14.29,2.79-6.81,2.66-13.57.15-20.36-.77-2.09-1.48-4.25-3.07-5.93C631.47.02,788.95.02,946.42,0c.9,0,1.1.2,1.1,1.1-.02,59.27-.02,118.53,0,177.8,0,.9-.2,1.1-1.1,1.1-160.51-.02-321.02-.02-481.54-.02.41-.3.84-.58,1.23-.9,7.04-5.84,13.65-12.13,19.78-18.92,1.15-1.27,2.08-1.53,3.69-.9,3.37,1.31,6.75,2.61,10.14,3.89,1.6.6,2.31.27,3-1.32,1.73-3.97,3.45-7.95,5.17-11.92.43-.99.99-1.76,2.22-1.57,5.47.83,10.96.78,16.44.33,2.61-.22,5.22-.59,7.81-.97,1.59-.24,1.89-.76,1.53-2.29-.3-1.28-.64-2.55-1.01-3.82-1.85-6.27-4.47-12.23-7.25-18.13-.99-2.11-.88-2.58.98-4.03,5.56-4.35,10.47-9.33,14.49-15.15,1.61-2.33,3.04-4.77,4.3-7.3.66-1.33.4-1.8-1.04-2.03-.43-.07-.87-.12-1.3-.19-6.05-1.01-11.48-3.69-16.93-6.3-.68-.33-1.02-.96-1.35-1.62-1.26-2.54-1.21-5.15-.42-7.79,2.52-8.41,3.58-17.05,3.9-25.77.24-6.53-.06-13.06-.81-19.56-.26-2.26-.86-2.68-3.04-1.96-9.75,3.19-19.52,6.31-29.23,9.61-3.72,1.26-7.32,1.7-11.07.31-1.16-.43-2.42-.63-3.77-.23.45.77.83,1.46,1.26,2.12,3.11,4.76,8.22,6.64,13.72,4.99,2.28-.69,4.52-1.51,6.79-2.27,5.54-1.86,11.07-3.72,16.61-5.57,1.6-.54,2.12-.21,2.26,1.47.34,4.18.3,8.37.13,12.56-.25,6.4-1.31,12.65-3.23,18.77-1.12,3.56-1.11,7.14.24,10.65.94,2.43,1.62,4.92,1.86,7.5.16,1.72,1.02,2.66,2.58,3.18,4.37,1.47,8.72,2.98,13.08,4.48,1.52.52,1.66.91.71,2.19-2.6,3.5-5.51,6.71-8.66,9.72-1.17,1.11-2.37,1.86-4.16,1.53-1.61-.3-2.92.72-3.44,2.34-.46,1.44-.65,2.99-1.26,4.36-1.8,4.09-1.67,3.96,1.22,7.61,2.98,3.78,4.58,8.26,6.31,12.68.72,1.84.55,2.11-1.41,2.36-5.31.67-10.62.83-15.92-.1-2.35-.41-4.39.22-6.18,1.79-6.98,6.15-15.07,10.01-24.2,11.72-1.07.2-1.86.68-2.41,1.58-3.43,5.64-8.34,9.93-13.1,14.36-.79.73-1.56.68-2.31-.06-.8-.78-1.57-1.6-2.39-2.36-3.64-3.37-7.16-6.84-9.81-11.07-.87-1.38-2.01-2.17-3.58-2.53-9.02-2.11-17.22-5.86-24.09-12.23-1.07-1-2.4-1.51-3.85-1.31-1.93.27-3.86.52-5.82.62-4.19.23-8.35-.13-12.51-.64-.9-.11-1.15-.62-.9-1.42.37-1.17.79-2.34,1.17-3.51.98-2.97,2.28-5.74,4.45-8.08,1.41-1.51,2.3-3.32,2.55-5.42.43-3.61-1-6.7-2.74-9.68-.47-.8-1.39-1.03-2.33-.87-1.35.23-2.51-.17-3.54-1.04-1.97-1.69-3.74-3.58-5.46-5.52-1.48-1.67-2.84-3.44-4.12-5.27-.6-.85-.37-1.39.59-1.69.23-.07.45-.15.68-.23,4.45-1.48,8.91-2.95,13.36-4.43,1.05-.35,1.8-.95,1.99-2.14.65-4.23,1.93-8.28,3.38-12.29.37-1.01.48-2.01.1-3.04-4.08-11.07-5.15-22.53-4.44-34.21.13-2.16,1.01-2.77,3.07-2.08,2.3.76,4.57,1.61,6.87,2.39,5.65,1.91,11.3,3.84,16.97,5.68,1.89.61,3.83.29,5.26-1.07,1.2-1.14,1.03-2.84.83-4.4-.09-.71-.52-1.2-1.2-1-1.56.44-2.89-.23-4.26-.68-10.35-3.39-20.7-6.81-31.05-10.21-1.82-.6-2.36-.25-2.63,1.67-1.03,7.43-1.32,14.89-.97,22.39.38,8.15,1.73,16.14,3.93,23.98,1.18,4.19-.05,7.55-3.83,9.64-5.34,2.96-11.11,4.75-17.13,5.68-.99.15-1.03.43-.64,1.16.1.18.18.36.27.53,4.62,9.14,10.81,16.96,19.23,22.91,1.55,1.09,1.68,1.74.86,3.43-.75,1.54-1.51,3.08-2.23,4.63-2.7,5.86-4.93,11.88-6.5,18.15-.27,1.06.07,1.62,1.11,1.77,7.9,1.1,15.81,1.9,23.78.89,1.73-.22,2.6.3,3.23,1.94,1.51,3.94,3.37,7.73,5.03,11.61.6,1.39,1.53,1.8,2.89,1.21,3.51-1.5,7.18-2.59,10.71-4.01,1.36-.55,2.05-.35,3.05.78.58.66,1.15,1.33,1.75,1.96,3.46,3.65,7,7.23,10.75,10.6,2.81,2.52,5.52,5.15,8.54,7.43ZM292.33,35.43c.37.44.55.64.71.86,4.53,5.91,9.05,11.82,13.57,17.73,9.51,12.41,19.03,24.83,28.56,37.22.62.8.85,1.6.85,2.61-.03,17.55-.01,35.11-.04,52.66,0,.89.2,1.13,1.1,1.11,2.28-.07,4.56-.09,6.84,0,1.11.05,1.35-.29,1.35-1.36-.04-17.59-.02-35.19-.04-52.78,0-.8.2-1.43.69-2.07,6.56-8.56,13.08-17.15,19.62-25.73,6.54-8.58,13.08-17.16,19.62-25.74,1.93-2.54,3.84-5.1,5.85-7.76-3.89,0-7.6.02-11.31-.02-.62,0-.91.29-1.24.72-11.01,14.27-22.04,28.53-33.06,42.8-1.62,2.1-3.25,4.2-4.93,6.38-1.58-2.05-3.1-3.99-4.6-5.95-11.07-14.38-22.15-28.76-33.19-43.16-.48-.62-.97-.79-1.7-.79-5.56.03-11.12.05-16.68-.01-1.08-.01-1.35.26-1.35,1.35.03,31.47.03,62.94.03,94.41v1.48c-9.29-13.8-18.6-27.17-27.93-40.52-12.96-18.55-25.94-37.09-38.32-56.03-.32-.49-.65-.68-1.24-.67-2.28.04-4.56.09-6.84-.02-1.16-.05-1.42.26-1.42,1.41.04,27.03.03,54.06.03,81.1,0,10.6.01,21.19-.02,31.79,0,.94.23,1.2,1.17,1.17,2.28-.07,4.56-.09,6.84,0,1.08.05,1.28-.27,1.28-1.3-.03-31.63-.02-63.26-.02-94.89v-1.54c3.56,5.23,6.94,10.2,10.32,15.16,11.59,16.98,23.18,33.95,34.76,50.93,7,10.26,14,20.52,20.98,30.8.39.57.78.85,1.52.83,2.28-.06,4.56-.09,6.84,0,1.11.05,1.44-.19,1.44-1.38-.04-36.39-.03-72.78-.03-109.17v-1.63ZM6.51,104.4c-1.28,0-2.56.03-3.84-.01-.56-.02-.75.13-.75.72.04,4.15-.14,8.3.49,12.43.84,5.49,2.52,10.68,5.71,15.29,4.48,6.48,10.73,10.57,18.07,13.04,8.04,2.71,16.34,3.3,24.77,2.7,7.04-.51,13.74-2.18,19.93-5.64,6.23-3.48,10.92-8.33,13.26-15.21,1.66-4.88,1.83-9.91,1.3-14.98-1.1-10.45-6.22-18.01-15.96-22.31-7.87-3.47-16.12-5.68-24.45-7.66-5.84-1.39-11.79-2.39-17.44-4.51-3.5-1.31-6.77-2.98-9.36-5.76-5.15-5.53-4.82-15.45-1.74-20.77,2.39-4.14,6.1-6.51,10.46-8.02,4.37-1.52,8.91-2.01,13.52-2.2,5.77-.24,11.47.14,17.09,1.5,7.36,1.78,12.32,6.16,14.7,13.42,1.33,4.04,2,8.19,2.25,12.41.04.76.19,1.05,1.01,1.03,2.44-.06,4.88-.06,7.32,0,.84.02.97-.29.94-1.01-.19-4.67-.69-9.29-2-13.78-1.44-4.95-3.72-9.47-7.28-13.28-5.63-6.02-12.84-8.81-20.76-10.09-5.77-.93-11.59-.93-17.4-.49-5.39.41-10.64,1.41-15.62,3.58-7.09,3.1-12.06,8.18-14.31,15.7-1.49,4.99-1.81,10.07-1.15,15.23.72,5.57,2.88,10.45,6.77,14.55,3.95,4.16,8.89,6.61,14.19,8.53,8.62,3.12,17.57,5.08,26.4,7.47,5.11,1.38,10.26,2.66,15.01,5.09,3.27,1.68,5.98,3.94,7.37,7.48.9,2.28,1.26,4.66,1.36,7.11.19,4.43-.67,8.56-3.3,12.2-3.29,4.55-8.01,6.91-13.25,8.4-5.16,1.47-10.43,1.79-15.76,1.67-5.36-.12-10.63-.78-15.72-2.59-9.36-3.33-14.87-9.87-16.58-19.66-.62-3.56-.62-7.14-.58-10.73,0-.66-.14-.91-.84-.88-1.28.06-2.56.02-3.84.02ZM739.76,90.24c-6.52,0-13.04.03-19.56-.03-1.04,0-1.24.3-1.2,1.26.08,2.04.01,4.08.03,6.12,0,.99-.33,2.34.18,2.89.59.64,1.95.19,2.97.2,9.88.01,19.76.01,29.63,0,.66,0,1.19-.1,1.2.93.07,5.31-.53,10.5-2.33,15.52-2.92,8.1-8.15,14.23-15.8,18.22-5.4,2.81-11.19,3.49-17.18,3.02-13.05-1.03-22.09-7.85-27.67-19.43-4.38-9.1-5.36-18.92-5.41-28.85-.01-3.26.17-6.52.56-9.77.98-8.23,3.03-16.1,7.58-23.15,3.39-5.26,7.77-9.44,13.54-12.08,5.79-2.65,11.88-3.22,18.12-2.69,11.12.95,18.97,6.48,23.44,16.78,1.91,4.41,3.14,9,3.94,13.72.13.76.4.94,1.13.93,2.08-.05,4.16-.05,6.24,0,.71.01.9-.21.78-.88-1.34-7.84-3.24-15.5-6.99-22.59-3.91-7.4-9.61-12.79-17.44-15.89-6.17-2.44-12.58-3-19.13-2.51-10.41.77-19.01,5.16-25.79,13.08-5.83,6.8-9.36,14.75-11.38,23.39-2.22,9.45-2.73,19.05-2.19,28.72.43,7.84,1.63,15.51,4.34,22.91,2.79,7.64,6.89,14.5,13.21,19.71,11.42,9.41,24.56,11.52,38.4,7.27,13.02-4,20.93-13.6,25.13-26.3,3.16-9.54,3.29-19.39,2.42-29.3-.08-.91-.31-1.22-1.32-1.21-6.48.06-12.96.03-19.44.03ZM94.1,89.82v27.95c0,9.6.01,19.19-.02,28.79,0,.84.2,1.06,1.04,1.04,2.32-.06,4.64-.09,6.96,0,1.07.04,1.29-.27,1.28-1.3-.03-17.43-.01-34.87-.06-52.3,0-1.19.33-1.4,1.45-1.4,21.16.04,42.31.03,63.47.03q1.59,0,1.59,1.56c0,17.43,0,34.87-.02,52.3,0,.89.19,1.14,1.1,1.11,2.32-.07,4.64-.09,6.96,0,1.1.04,1.35-.28,1.35-1.36-.03-37.59-.02-75.18-.02-112.76,0-.16-.02-.32,0-.48.12-.69-.18-.87-.85-.86-2.44.04-4.88.07-7.32-.01-1.03-.04-1.22.27-1.22,1.25.03,15.83,0,31.67.06,47.5,0,1.27-.37,1.45-1.52,1.45-21.2-.03-42.39-.04-63.59,0-1.14,0-1.44-.23-1.44-1.41.05-15.87.02-31.75.05-47.62,0-.94-.24-1.19-1.17-1.17-2.28.07-4.56.09-6.84,0-1.08-.05-1.28.27-1.28,1.3.03,18.79.03,37.59.03,56.38ZM879.82,51.16l.21-.03c5.36,9.31,10.72,18.61,16.09,27.92,7.73,13.41,15.46,26.81,23.18,40.22,5.26,9.14,10.51,18.28,15.74,27.44.42.73.89,1.06,1.78,1.02,1.76-.08,3.52-.1,5.28,0,1.1.06,1.35-.27,1.35-1.35-.03-37.15-.03-74.3-.03-111.44,0-.4-.04-.8,0-1.2.08-.68-.17-.88-.85-.86-1.88.05-3.76.09-5.64-.01-1.11-.06-1.35.29-1.35,1.36.03,31.31.02,62.62.02,93.93v1.45c-.37-.56-.59-.86-.78-1.18-6.29-11.11-12.77-22.12-19.25-33.12-5.63-9.57-11.27-19.13-16.87-28.72-6.38-10.92-12.72-21.87-18.78-32.98-.31-.57-.69-.74-1.32-.72-1.8.05-3.6.09-5.4-.01-1.1-.06-1.35.27-1.35,1.35.03,37.39.03,74.78.03,112.16,0,.2.02.4,0,.6-.09.58.15.75.73.74,1.96-.03,3.92-.08,5.88.02,1.11.06,1.34-.29,1.34-1.36-.03-31.31-.02-62.62-.02-93.93v-1.28ZM781.04,91.75c-.06,3.05.2,7.54.75,12.01,1.13,9.2,3.44,18.05,8.28,26.07,4.46,7.39,10.37,13.16,18.52,16.38,6.84,2.71,13.93,3.22,21.15,2.34,8.22-1.01,15.3-4.41,21.18-10.28,5.61-5.61,9.34-12.34,11.86-19.8,2.94-8.69,3.9-17.69,4.07-26.79.08-4.58-.17-9.16-.71-13.71-1.07-9.1-3.4-17.81-8.2-25.71-4.77-7.85-11.3-13.62-20.08-16.64-5.86-2.02-11.92-2.44-18.06-1.99-7.11.52-13.66,2.64-19.44,6.89-7.63,5.62-12.3,13.33-15.32,22.14-3.06,8.95-4,18.23-4.01,29.1ZM613.67,90.24c0,18.75,0,37.51-.02,56.26,0,1,.23,1.25,1.23,1.23,3.2-.07,6.4-.03,9.6-.03,16.92,0,33.83,0,50.75.02.9,0,1.13-.21,1.11-1.11-.07-2.72-.08-5.44,0-8.16.03-1.01-.25-1.22-1.23-1.22-17.52.03-35.03.01-52.55.05-1,0-1.23-.23-1.23-1.23.04-13.87.04-27.75,0-41.62,0-1.08.25-1.35,1.34-1.35,15.28.04,30.55.02,45.83.05.88,0,1.14-.18,1.11-1.1-.07-2.68-.08-5.36,0-8.04.03-.99-.22-1.24-1.22-1.23-15.28.04-30.55.02-45.83.05-.98,0-1.24-.2-1.24-1.22.04-12.16.03-24.31.03-36.47q0-1.81,1.81-1.81c17.16,0,34.31-.01,51.47.03,1.02,0,1.25-.26,1.22-1.24-.07-2.68-.08-5.36,0-8.04.03-1.03-.28-1.21-1.25-1.21-19.92.03-39.83.03-59.75,0-1.01,0-1.22.26-1.22,1.24.03,18.71.02,37.43.02,56.14ZM432.21,112.34c-2.53-.08-4.64-.96-6.16-3.03-.64-.86-1.22-1.77-1.84-2.64-.16-.22-.16-.74-.63-.5-.35.18-.24.58-.12.86.26.67.51,1.34.85,1.96,2.19,3.9,5.62,5.88,10,6.05,3.39.13,6.79-.06,10.18-.08,1.66-.01,3.23.25,4.62,1.3.5.38,1.13.59,1.71.84,2.45,1.06,4.33,2.8,5.93,4.89.32.42.56.89.56,1.42.02,1.91.04,3.82-.22,5.74-.36,2.67-1.57,5.1-2,7.74-.1.65.1,1.56-.54,1.84-.82.36-1.45-.42-2.1-.86-.06-.04-.11-.11-.17-.17-4.35-4.05-8.52-8.3-12.48-12.73-.38-.43-.65-1.24-1.28-1.02-.59.2-.42,1.06-.49,1.62-.21,1.77-.04,3.58-.49,5.34-.45,1.76-1.31,2.06-2.7.86-1.09-.93-2.13-1.93-3.17-2.92-3.09-2.95-6-6.08-8.86-9.25-2.6-2.88-4.94-5.94-5.98-9.79-.08-.29-.08-.74-.59-.74-.59,2.95-.2,4.73,1.62,7.06.59.75,1.28,1.42,1.88,2.16,2.67,3.26,5.25,6.59,8,9.79,2.57,2.99,5.49,5.67,7.98,8.75.85,1.05,1.81,2.01,2.75,2.99.51.53.93.66,1.32-.2.6-1.33.99-2.65.78-4.15-.21-1.51-.31-3.05-.02-4.75,1.63,2.04,2.83,4.17,4.59,5.83,3.48,3.27,7.77,5.38,11.71,7.99.91.6,1.17.17,1.2-.75.05-1.35.08-2.71.29-4.04.55-3.5,2.1-6.65,3.56-9.83,1.3-2.81,1.31-2.85,3.08-.34,2.65,3.75,5.95,6.85,9.49,9.71,1.87,1.51,1.92,1.49,2.9-.74,1.62-3.71,4.19-6.66,7.34-9.13,1.23-.96,1.41-.93,2.4.3.82,1.02,1.58,2.09,2.37,3.14,1.01,1.35,2.08,2.63,3.64,3.38,1.17.57,1.33.5,1.61-.73.54-2.35,1.3-4.6,2.85-6.49,2.03-2.47,3.64-5.19,5.18-7.99,3-5.43,6.05-10.85,9.4-16.07,2.59-4.04,3.79-8.33,3.55-13.01-.16-3.09-.82-6.14-1.51-9.17-.31-1.36-.54-2.75-.29-4.15.05-.29.65-.51.21-.86-.33-.26-.79-.11-1.14.09-1.3.73-1.87,1.87-1.92,3.34-.08,2.5.44,4.92.96,7.33.86,3.95.62,7.75-1.16,11.42-1.06,2.18-2.14,4.36-3.39,6.44-1.66,2.77-3.64,5.33-5.19,8.17-2.29,4.21-5.07,8.09-8.2,11.72-.66.76-1.11.79-1.76.01-2.21-2.63-4.52-5.19-4.43-8.96.01-.45-.04-1.08-.58-1.2-.5-.11-.43.58-.73.83-.18.15-.29.38-.44.56-3.89,4.49-7.41,9.24-10.1,14.56-.57,1.13-1.19,1.16-2.18.71-1.07-.49-1.99-1.21-2.8-2.01-2.42-2.36-4.57-4.83-4.08-8.66.26-2,.65-3.97,1.55-5.7.99-1.88,2.27-3.56,4.92-3.54,3.46.03,6.93-.24,10.39-.44,1.75-.1,3.58-.16,5.08-1.13,1.91-1.23,3.86-2.37,5.84-3.48.4-.22.81-.47.89-1.17-1.87.82-3.77,1.24-5.46,2.2-1.72.98-3.55,1.61-5.54,1.69-.44.02-1.05.47-1.27-.1-.22-.56.46-.87.84-1.17.49-.39,1.08-.68,1.64-.97.78-.4,1.59-.81,2.15-1.48.68-.82,1.51-1.46,2.42-1.91,2.71-1.31,4.83-3.31,7-5.35,3.78-3.56,5.38-8.01,6.11-13,.88-6.06.86-12.2,1.96-18.23.12-.68-.09-.99-.85-.72-5.17,1.84-10.05,4.2-14.35,7.68-3.37,2.73-6.46,5.78-10.35,7.85-2.73,1.46-4.98,3.7-7.69,5.24-1.97,1.11-3.57.77-4.88-1.06-.28-.38-.48-.82-.69-1.25-1.45-2.94-1.59-6.12-1.82-9.3-.05-.66,0-1.36-.46-2.14-.55,1.35-.81,2.54-.96,3.75-.48,3.66.6,7.11,1.66,10.53.64,2.08,1.34,4.17,1.04,6.31-.61,4.26-.8,8.54-1.17,12.81-.27,3.17-.87,6.3-2.03,9.29-.48,1.24-.99,1.47-2.22,1-.41-.15-.81-.34-1.18-.57-2.59-1.58-4.94-3.49-7.27-5.43-2.47-2.05-3.89-4.71-3.95-7.98-.04-2.31.03-4.62-.02-6.93-.07-3.59-1.17-6.81-3.6-9.5-.31-.35-.58-.87-1.21-.83-.12.43.05.75.24,1.04,1.26,1.95,1.76,4.14,2.11,6.4.28,1.82.51,3.65.18,5.47-.28,1.55-1,2-2.53,1.75-1.27-.21-2.42-.76-3.56-1.34-2.73-1.38-4.89-3.51-7.27-5.37-4.09-3.2-8.64-5.68-13.18-8.17-1.19-.65-2.48-1.09-3.82-1.3-.33-.05-.79-.18-.98.21-.15.3.15.6.38.81.71.63.84,1.36.6,2.26-.35,1.33-.02,2.54.88,3.56,3.67,4.18,6.53,8.92,9.45,13.62,1.45,2.33,3.24,4.33,5.69,5.66.22.12.52.24.53.64ZM554.76,90.21v34.42c0,7.32.01,14.63-.02,21.95,0,.88.19,1.2,1.12,1.14,1.27-.08,2.56-.02,3.84-.02,17.19,0,34.39-.01,51.58.03,1.01,0,1.25-.25,1.22-1.24-.08-2.68-.08-5.36,0-8.03.03-1.02-.26-1.22-1.24-1.21-15.8.03-31.59.01-47.39.05-1.09,0-1.35-.27-1.35-1.35.03-24.79.03-49.58.03-74.36,0-9.2-.01-18.39.02-27.59,0-.85-.13-1.18-1.08-1.13-1.79.09-3.6.09-5.4,0-1.06-.05-1.37.21-1.37,1.33.04,18.67.03,37.34.03,56.01ZM197.89,89.88c0-18.83,0-37.67.02-56.5,0-.99-.21-1.28-1.22-1.24-2.24.09-4.48.09-6.72,0-1.09-.04-1.35.26-1.35,1.35.03,35.63.03,71.25.03,106.88,0,2.12.03,4.24-.02,6.36-.01.67.16.88.85.87,2.36-.04,4.72-.08,7.08.01,1.09.04,1.36-.26,1.36-1.35-.04-18.79-.03-37.59-.03-56.38ZM767.99,90.25v55.89c0,.28.03.56,0,.84-.08.58.15.75.73.74,1.8-.04,3.6,0,5.4-.02,1.94-.02,1.67.27,1.67-1.62,0-37.22,0-74.44,0-111.66,0-.24-.03-.48,0-.72.11-.72-.24-.84-.88-.83-1.8.04-3.6.09-5.4-.01-1.2-.07-1.57.21-1.56,1.5.05,18.63.03,37.26.03,55.89ZM424.2,56.99c-1.21-.09-2.64.26-4,.87-4.36,1.98-5.64,7.07-2.6,10.36,3.44,3.73,10.14,3.8,13.65.14,2.46-2.57,2.43-6.25-.06-8.78-1.85-1.87-4.11-2.62-6.98-2.6ZM518.99,131.94c.12-1.11-.16-2.26-.62-3.38-1.69-4.09-6.13-4.87-8.85-1.54-2.1,2.58-2.1,7.36,0,9.94,2.13,2.62,5.51,2.85,7.56.47,1.32-1.53,2.02-3.32,1.9-5.49ZM417.01,132.53c.01-2.07-1.36-3.52-3.36-3.55-2.18-.03-3.72,1.41-3.73,3.48,0,1.96,1.59,3.58,3.55,3.61,2.02.03,3.53-1.48,3.54-3.54Z" style="fill:#fdfdfd; stroke-width:0px;"/><path d="M463.2,179.98c-3.02-2.28-5.74-4.9-8.54-7.43-3.74-3.37-7.28-6.95-10.75-10.6-.6-.64-1.17-1.3-1.75-1.96-1-1.13-1.69-1.32-3.05-.78-3.54,1.42-7.2,2.51-10.71,4.01-1.37.58-2.29.18-2.89-1.21-1.67-3.87-3.52-7.67-5.03-11.61-.63-1.64-1.5-2.16-3.23-1.94-7.98,1.01-15.89.21-23.78-.89-1.04-.14-1.37-.71-1.11-1.77,1.57-6.27,3.8-12.29,6.5-18.15.72-1.56,1.49-3.09,2.23-4.63.81-1.69.68-2.34-.86-3.43-8.42-5.95-14.61-13.77-19.23-22.91-.09-.18-.17-.36-.27-.53-.4-.73-.35-1,.64-1.16,6.02-.93,11.79-2.72,17.13-5.68,3.78-2.1,5.01-5.45,3.83-9.64-2.21-7.85-3.55-15.83-3.93-23.98-.35-7.5-.06-14.96.97-22.39.27-1.92.81-2.27,2.63-1.67,10.35,3.4,20.7,6.82,31.05,10.21,1.37.45,2.71,1.12,4.26.68.67-.19,1.11.29,1.2,1,.2,1.56.37,3.26-.83,4.4-1.43,1.36-3.37,1.69-5.26,1.07-5.67-1.84-11.32-3.77-16.97-5.68-2.3-.78-4.57-1.62-6.87-2.39-2.06-.68-2.94-.08-3.07,2.08-.7,11.69.36,23.15,4.44,34.21.38,1.02.27,2.02-.1,3.04-1.45,4.01-2.73,8.06-3.38,12.29-.18,1.19-.94,1.79-1.99,2.14-4.45,1.48-8.9,2.96-13.36,4.43-.23.08-.45.16-.68.23-.96.3-1.19.84-.59,1.69,1.28,1.83,2.64,3.6,4.12,5.27,1.72,1.94,3.49,3.83,5.46,5.52,1.03.88,2.19,1.27,3.54,1.04.94-.16,1.86.07,2.33.87,1.74,2.98,3.17,6.07,2.74,9.68-.25,2.1-1.14,3.91-2.55,5.42-2.17,2.33-3.47,5.1-4.45,8.08-.39,1.17-.8,2.33-1.17,3.51-.26.8,0,1.31.9,1.42,4.16.5,8.32.86,12.51.64,1.95-.11,3.88-.35,5.82-.62,1.45-.2,2.77.31,3.85,1.31,6.87,6.37,15.06,10.12,24.09,12.23,1.57.37,2.72,1.15,3.58,2.53,2.65,4.23,6.18,7.7,9.81,11.07.82.76,1.59,1.57,2.39,2.36.75.74,1.53.79,2.31.06,4.76-4.43,9.66-8.72,13.1-14.36.54-.89,1.34-1.38,2.41-1.58,9.12-1.71,17.22-5.57,24.2-11.72,1.79-1.57,3.82-2.21,6.18-1.79,5.3.93,10.61.78,15.92.1,1.95-.25,2.12-.51,1.41-2.36-1.72-4.41-3.32-8.9-6.31-12.68-2.89-3.65-3.02-3.52-1.22-7.61.6-1.37.8-2.92,1.26-4.36.52-1.62,1.83-2.64,3.44-2.34,1.79.33,3-.41,4.16-1.53,3.15-3.01,6.06-6.22,8.66-9.72.95-1.28.81-1.67-.71-2.19-4.36-1.5-8.71-3.01-13.08-4.48-1.56-.53-2.42-1.47-2.58-3.18-.24-2.58-.93-5.07-1.86-7.5-1.35-3.51-1.35-7.09-.24-10.65,1.92-6.12,2.98-12.36,3.23-18.77.16-4.19.21-8.38-.13-12.56-.14-1.69-.66-2.01-2.26-1.47-5.54,1.85-11.07,3.71-16.61,5.57-2.26.76-4.5,1.59-6.79,2.27-5.5,1.65-10.61-.23-13.72-4.99-.43-.66-.8-1.36-1.26-2.12,1.36-.4,2.62-.2,3.77.23,3.75,1.39,7.35.95,11.07-.31,9.71-3.3,19.48-6.42,29.23-9.61,2.18-.71,2.78-.29,3.04,1.96.75,6.5,1.05,13.03.81,19.56-.32,8.73-1.38,17.37-3.9,25.77-.79,2.63-.84,5.25.42,7.79.32.66.67,1.29,1.35,1.62,5.45,2.61,10.88,5.29,16.93,6.3.43.07.87.12,1.3.19,1.44.23,1.7.7,1.04,2.03-1.26,2.53-2.69,4.97-4.3,7.3-4.03,5.82-8.93,10.8-14.49,15.15-1.85,1.45-1.97,1.93-.98,4.03,2.78,5.9,5.4,11.86,7.25,18.13.37,1.26.71,2.54,1.01,3.82.36,1.54.06,2.06-1.53,2.29-2.59.39-5.2.75-7.81.97-5.49.46-10.98.51-16.44-.33-1.23-.19-1.79.58-2.22,1.57-1.71,3.98-3.44,7.95-5.17,11.92-.69,1.59-1.4,1.93-3,1.32-3.39-1.27-6.77-2.58-10.14-3.89-1.61-.62-2.54-.37-3.69.9-6.13,6.79-12.74,13.08-19.78,18.92-.39.32-.82.6-1.23.9h-1.68Z" style="stroke-width:0px;"/><path d="M460.2,83.42c-6.86-4.24-12.6-9.59-16.45-16.78-2.49-4.65-3.97-9.62-4.3-14.9-.87-13.76,4.26-25.36,13.01-35.61,5.56-6.51,12.42-11.39,19.83-15.56.33-.19.76-.18,1-.54h.72c1.59,1.68,2.3,3.84,3.07,5.93,2.51,6.79,2.64,13.55-.15,20.36-2.18,5.33-.56,10.03,2.94,14.29,2.67,3.25,4.81,6.86,6.36,10.75,2.14,5.39.98,10.56-1.63,15.51-3.33,6.29-8.56,10.8-14.15,14.97-.61.45-1.22.87-1.99,1-.32.06-.69.18-.84-.19-.13-.31.23-.48.42-.65,2.13-1.82,4.02-3.89,5.78-6.05,2.75-3.38,5.22-6.94,6.9-10.99,2.56-6.17,1.89-11.95-2.11-17.33-2.12-2.85-4.08-5.81-5.9-8.85-2.37-3.95-2.76-8.16-1.32-12.52,1.24-3.77,2.19-7.57,2.04-11.59-.07-1.84-.42-3.63-.88-5.4-.42-1.64-.9-1.83-2.33-.96-2.69,1.64-5.26,3.45-7.73,5.4-6.58,5.21-11.85,11.43-15.09,19.26-4.56,10.98-4.36,21.83.82,32.55,2.51,5.2,5.85,9.83,9.64,14.16.96,1.1,1.92,2.22,2.5,3.59-.05.04-.09.09-.13.15Z" style="stroke-width:0px;"/><path d="M292.33,35.43v1.63c0,36.39,0,72.78.03,109.17,0,1.2-.33,1.43-1.44,1.38-2.28-.09-4.56-.07-6.84,0-.74.02-1.13-.25-1.52-.83-6.98-10.27-13.98-20.54-20.98-30.8-11.58-16.98-23.18-33.95-34.76-50.93-3.38-4.96-6.76-9.93-10.32-15.16v1.54c0,31.63,0,63.26.02,94.89,0,1.03-.2,1.34-1.28,1.3-2.28-.1-4.56-.08-6.84,0-.94.03-1.17-.23-1.17-1.17.04-10.6.02-21.19.02-31.79,0-27.03,0-54.06-.03-81.1,0-1.16.26-1.47,1.42-1.41,2.28.1,4.56.05,6.84.02.59,0,.92.18,1.24.67,12.38,18.94,25.37,37.48,38.32,56.03,9.33,13.36,18.64,26.73,27.93,40.52v-1.48c0-31.47,0-62.94-.03-94.41,0-1.09.26-1.36,1.35-1.35,5.56.06,11.12.04,16.68.01.73,0,1.22.16,1.7.79,11.05,14.4,22.12,28.78,33.19,43.16,1.5,1.95,3.02,3.9,4.6,5.95,1.68-2.17,3.31-4.28,4.93-6.38,11.02-14.26,22.04-28.53,33.06-42.8.33-.43.62-.73,1.24-.72,3.71.04,7.43.02,11.31.02-2,2.66-3.91,5.22-5.85,7.76-6.54,8.58-13.08,17.16-19.62,25.74-6.54,8.58-13.06,17.17-19.62,25.73-.5.65-.69,1.28-.69,2.07.02,17.59,0,35.19.04,52.78,0,1.07-.24,1.4-1.35,1.36-2.28-.1-4.56-.08-6.84,0-.9.03-1.11-.21-1.1-1.11.03-17.55.01-35.11.04-52.66,0-1.01-.23-1.8-.85-2.61-9.54-12.4-19.05-24.81-28.56-37.22-4.53-5.91-9.05-11.82-13.57-17.73-.16-.21-.34-.41-.71-.86Z" style="stroke-width:0px;"/><path d="M6.51,104.4c1.28,0,2.56.04,3.84-.02.71-.03.85.22.84.88-.04,3.59-.04,7.17.58,10.73,1.7,9.78,7.22,16.33,16.58,19.66,5.09,1.81,10.35,2.47,15.72,2.59,5.33.11,10.6-.2,15.76-1.67,5.25-1.49,9.96-3.85,13.25-8.4,2.63-3.64,3.49-7.77,3.3-12.2-.1-2.45-.47-4.83-1.36-7.11-1.39-3.54-4.1-5.8-7.37-7.48-4.75-2.44-9.9-3.71-15.01-5.09-8.83-2.39-17.77-4.35-26.4-7.47-5.3-1.92-10.24-4.37-14.19-8.53-3.9-4.1-6.05-8.98-6.77-14.55-.67-5.16-.34-10.24,1.15-15.23,2.25-7.52,7.22-12.6,14.31-15.7,4.97-2.18,10.23-3.18,15.62-3.58,5.82-.44,11.63-.44,17.4.49,7.92,1.28,15.13,4.07,20.76,10.09,3.56,3.81,5.83,8.33,7.28,13.28,1.31,4.49,1.81,9.12,2,13.78.03.73-.1,1.04-.94,1.01-2.44-.07-4.88-.06-7.32,0-.82.02-.97-.27-1.01-1.03-.25-4.22-.92-8.37-2.25-12.41-2.38-7.26-7.34-11.65-14.7-13.42-5.62-1.36-11.32-1.73-17.09-1.5-4.61.19-9.15.68-13.52,2.2-4.36,1.52-8.07,3.88-10.46,8.02-3.08,5.32-3.4,15.24,1.74,20.77,2.59,2.78,5.86,4.45,9.36,5.76,5.66,2.12,11.6,3.12,17.44,4.51,8.33,1.98,16.58,4.19,24.45,7.66,9.74,4.3,14.85,11.86,15.96,22.31.54,5.08.37,10.1-1.3,14.98-2.34,6.87-7.03,11.73-13.26,15.21-6.19,3.46-12.89,5.13-19.93,5.64-8.43.61-16.73.02-24.77-2.7-7.34-2.48-13.59-6.57-18.07-13.04-3.19-4.61-4.87-9.79-5.71-15.29-.63-4.13-.45-8.28-.49-12.43,0-.59.18-.74.75-.72,1.28.04,2.56.01,3.84.01Z" style="stroke-width:0px;"/><path d="M739.76,90.24c6.48,0,12.96.03,19.44-.03,1.01,0,1.24.3,1.32,1.21.88,9.91.74,19.76-2.42,29.3-4.2,12.7-12.11,22.3-25.13,26.3-13.85,4.25-26.98,2.14-38.4-7.27-6.33-5.21-10.42-12.07-13.21-19.71-2.7-7.39-3.9-15.07-4.34-22.91-.54-9.68-.03-19.27,2.19-28.72,2.03-8.64,5.55-16.59,11.38-23.39,6.79-7.91,15.39-12.31,25.79-13.08,6.54-.49,12.95.07,19.13,2.51,7.83,3.1,13.54,8.49,17.44,15.89,3.75,7.1,5.65,14.76,6.99,22.59.12.67-.07.9-.78.88-2.08-.04-4.16-.05-6.24,0-.72.02-1-.17-1.13-.93-.8-4.72-2.03-9.31-3.94-13.72-4.46-10.31-12.32-15.84-23.44-16.78-6.24-.53-12.33.03-18.12,2.69-5.77,2.64-10.14,6.82-13.54,12.08-4.54,7.05-6.6,14.92-7.58,23.15-.39,3.25-.57,6.51-.56,9.77.04,9.94,1.02,19.75,5.41,28.85,5.58,11.58,14.62,18.4,27.67,19.43,5.99.47,11.78-.21,17.18-3.02,7.65-3.99,12.88-10.12,15.8-18.22,1.81-5.01,2.4-10.21,2.33-15.52-.01-1.03-.54-.93-1.2-.93-9.88,0-19.76.01-29.63,0-1.02,0-2.38.44-2.97-.2-.51-.55-.17-1.9-.18-2.89-.01-2.04.05-4.08-.03-6.12-.04-.96.15-1.27,1.2-1.26,6.52.06,13.04.03,19.56.03Z" style="stroke-width:0px;"/><path d="M94.1,89.82c0-18.79,0-37.59-.03-56.38,0-1.03.2-1.35,1.28-1.3,2.28.1,4.56.08,6.84,0,.93-.03,1.17.23,1.17,1.17-.03,15.87,0,31.75-.05,47.62,0,1.18.3,1.41,1.44,1.41,21.2-.04,42.39-.04,63.59,0,1.14,0,1.52-.18,1.52-1.45-.05-15.83-.03-31.67-.06-47.5,0-.97.19-1.28,1.22-1.25,2.44.09,4.88.05,7.32.01.67-.01.97.16.85.86-.03.16,0,.32,0,.48,0,37.59,0,75.18.02,112.76,0,1.07-.24,1.4-1.35,1.36-2.32-.09-4.64-.08-6.96,0-.91.03-1.1-.22-1.1-1.11.03-17.43.02-34.87.02-52.3q0-1.55-1.59-1.56c-21.16,0-42.31,0-63.47-.03-1.12,0-1.45.21-1.45,1.4.05,17.43.02,34.87.06,52.3,0,1.03-.21,1.35-1.28,1.3-2.32-.1-4.64-.07-6.96,0-.84.02-1.05-.2-1.04-1.04.03-9.6.02-19.19.02-28.79v-27.95Z" style="stroke-width:0px;"/><path d="M879.82,51.16v1.28c0,31.31,0,62.62.02,93.93,0,1.07-.23,1.42-1.34,1.36-1.95-.1-3.92-.05-5.88-.02-.58.01-.82-.16-.73-.74.03-.2,0-.4,0-.6,0-37.39,0-74.78-.03-112.16,0-1.08.25-1.41,1.35-1.35,1.79.1,3.6.06,5.4.01.63-.02,1.01.15,1.32.72,6.06,11.11,12.4,22.05,18.78,32.98,5.6,9.59,11.24,19.15,16.87,28.72,6.48,11.01,12.96,22.01,19.25,33.12.18.32.41.62.78,1.18v-1.45c0-31.31,0-62.62-.02-93.93,0-1.07.24-1.42,1.35-1.36,1.87.1,3.76.06,5.64.01.68-.02.93.18.85.86-.05.39,0,.8,0,1.2,0,37.15,0,74.3.03,111.44,0,1.08-.25,1.42-1.35,1.35-1.75-.1-3.52-.08-5.28,0-.89.04-1.36-.28-1.78-1.02-5.23-9.15-10.48-18.3-15.74-27.44-7.72-13.41-15.45-26.82-23.18-40.22-5.36-9.31-10.73-18.61-16.09-27.92l-.21.03Z" style="stroke-width:0px;"/><path d="M781.04,91.75c0-10.86.95-20.14,4.01-29.1,3.01-8.81,7.68-16.52,15.32-22.14,5.77-4.25,12.33-6.38,19.44-6.89,6.14-.45,12.2-.02,18.06,1.99,8.78,3.02,15.31,8.79,20.08,16.64,4.8,7.9,7.13,16.61,8.2,25.71.54,4.55.79,9.13.71,13.71-.16,9.11-1.13,18.1-4.07,26.79-2.52,7.46-6.25,14.19-11.86,19.8-5.88,5.87-12.95,9.28-21.18,10.28-7.23.88-14.32.37-21.15-2.34-8.15-3.23-14.06-9-18.52-16.38-4.84-8.02-7.15-16.87-8.28-26.07-.55-4.47-.81-8.96-.75-12.01ZM858.95,90.45c-.01-2.47-.03-4.94-.23-7.41-.54-6.95-1.85-13.72-4.81-20.08-3.22-6.92-7.96-12.47-14.93-15.85-6.16-2.99-12.73-3.63-19.47-2.97-6.26.61-11.9,2.78-16.7,6.9-6.25,5.38-9.78,12.38-11.78,20.22-2.34,9.17-2.62,18.51-1.78,27.88.68,7.5,2.33,14.77,5.87,21.5,3.34,6.35,7.84,11.6,14.44,14.79,6.23,3,12.8,3.56,19.57,2.69,6.62-.85,12.36-3.56,17.08-8.26,4.42-4.4,7.39-9.75,9.35-15.65,2.56-7.72,3.46-15.67,3.38-23.77Z" style="stroke-width:0px;"/><path d="M613.67,90.24c0-18.71,0-37.43-.02-56.14,0-.98.2-1.24,1.22-1.24,19.92.03,39.83.03,59.75,0,.97,0,1.28.18,1.25,1.21-.08,2.68-.08,5.36,0,8.04.03.98-.2,1.24-1.22,1.24-17.16-.04-34.31-.03-51.47-.03q-1.81,0-1.81,1.81c0,12.16.01,24.31-.03,36.47,0,1.01.26,1.22,1.24,1.22,15.28-.03,30.55-.01,45.83-.05,1.01,0,1.25.24,1.22,1.23-.08,2.68-.07,5.36,0,8.04.02.91-.23,1.1-1.11,1.1-15.28-.03-30.55,0-45.83-.05-1.09,0-1.35.27-1.34,1.35.04,13.87.04,27.75,0,41.62,0,1,.23,1.23,1.23,1.23,17.52-.03,35.03-.02,52.55-.05.99,0,1.26.21,1.23,1.22-.08,2.72-.07,5.44,0,8.16.02.9-.21,1.11-1.11,1.11-16.92-.03-33.83-.02-50.75-.02-3.2,0-6.4-.05-9.6.03-1,.02-1.23-.24-1.23-1.23.03-18.75.02-37.51.02-56.26Z" style="stroke-width:0px;"/><path d="M432.21,112.34c0-.41-.31-.52-.53-.64-2.45-1.34-4.24-3.33-5.69-5.66-2.92-4.7-5.78-9.44-9.45-13.62-.9-1.02-1.22-2.24-.88-3.56.23-.89.11-1.63-.6-2.26-.23-.2-.53-.5-.38-.81.19-.39.65-.26.98-.21,1.35.2,2.63.65,3.82,1.3,4.54,2.48,9.09,4.97,13.18,8.17,2.38,1.86,4.54,3.99,7.27,5.37,1.14.58,2.29,1.13,3.56,1.34,1.54.26,2.26-.2,2.53-1.75.33-1.83.1-3.65-.18-5.47-.34-2.25-.85-4.45-2.11-6.4-.19-.29-.36-.61-.24-1.04.63-.04.9.48,1.21.83,2.43,2.69,3.53,5.91,3.6,9.5.04,2.31-.03,4.62.02,6.93.06,3.27,1.48,5.93,3.95,7.98,2.32,1.93,4.68,3.84,7.27,5.43.37.23.77.41,1.18.57,1.23.46,1.73.24,2.22-1,1.16-2.99,1.76-6.11,2.03-9.29.37-4.27.56-8.56,1.17-12.81.31-2.14-.39-4.23-1.04-6.31-1.06-3.42-2.14-6.86-1.66-10.53.16-1.21.42-2.41.96-3.75.46.78.41,1.48.46,2.14.22,3.18.37,6.37,1.82,9.3.21.43.42.86.69,1.25,1.31,1.83,2.92,2.17,4.88,1.06,2.71-1.53,4.96-3.78,7.69-5.24,3.89-2.08,6.99-5.13,10.35-7.85,4.29-3.48,9.18-5.84,14.35-7.68.77-.27.98.04.85.72-1.1,6.03-1.08,12.17-1.96,18.23-.73,4.99-2.33,9.44-6.11,13-2.16,2.04-4.29,4.03-7,5.35-.92.45-1.74,1.09-2.42,1.91-.56.67-1.37,1.08-2.15,1.48-.56.29-1.15.58-1.64.97-.38.3-1.06.61-.84,1.17.22.57.83.12,1.27.1,1.99-.09,3.81-.72,5.54-1.69,1.69-.96,3.59-1.38,5.46-2.2-.08.7-.49.94-.89,1.17-1.97,1.12-3.93,2.26-5.84,3.48-1.5.97-3.33,1.03-5.08,1.13-3.46.19-6.92.47-10.39.44-2.64-.02-3.93,1.66-4.92,3.54-.91,1.73-1.3,3.7-1.55,5.7-.49,3.83,1.66,6.29,4.08,8.66.82.8,1.73,1.52,2.8,2.01.99.45,1.61.42,2.18-.71,2.68-5.32,6.21-10.07,10.1-14.56.16-.18.27-.41.44-.56.29-.25.23-.94.73-.83.54.12.59.75.58,1.2-.09,3.77,2.22,6.33,4.43,8.96.65.77,1.1.75,1.76-.01,3.13-3.63,5.9-7.51,8.2-11.72,1.55-2.84,3.53-5.4,5.19-8.17,1.25-2.08,2.33-4.26,3.39-6.44,1.79-3.67,2.03-7.47,1.16-11.42-.53-2.41-1.05-4.83-.96-7.33.05-1.47.62-2.61,1.92-3.34.35-.2.81-.35,1.14-.09.44.35-.16.57-.21.86-.25,1.4-.02,2.79.29,4.15.69,3.03,1.35,6.08,1.51,9.17.24,4.68-.96,8.97-3.55,13.01-3.35,5.22-6.4,10.64-9.4,16.07-1.55,2.8-3.15,5.52-5.18,7.99-1.55,1.89-2.32,4.14-2.85,6.49-.28,1.23-.44,1.3-1.61.73-1.56-.76-2.64-2.03-3.64-3.38-.79-1.05-1.55-2.12-2.37-3.14-.99-1.24-1.17-1.27-2.4-.3-3.15,2.47-5.71,5.42-7.34,9.13-.98,2.23-1.03,2.26-2.9.74-3.54-2.86-6.84-5.97-9.49-9.71-1.77-2.5-1.78-2.47-3.08.34-1.47,3.18-3.02,6.33-3.56,9.83-.21,1.33-.24,2.69-.29,4.04-.03.92-.29,1.35-1.2.75-3.94-2.61-8.23-4.72-11.71-7.99-1.76-1.65-2.97-3.78-4.59-5.83-.3,1.7-.19,3.24.02,4.75.21,1.5-.18,2.82-.78,4.15-.39.86-.81.74-1.32.2-.93-.98-1.9-1.94-2.75-2.99-2.48-3.08-5.41-5.75-7.98-8.75-2.74-3.2-5.33-6.53-8-9.79-.6-.74-1.3-1.41-1.88-2.16-1.82-2.34-2.21-4.12-1.62-7.06.51,0,.51.45.59.74,1.04,3.85,3.38,6.91,5.98,9.79,2.86,3.17,5.76,6.3,8.86,9.25,1.04.99,2.08,1.98,3.17,2.92,1.4,1.19,2.25.9,2.7-.86.45-1.75.28-3.56.49-5.34.07-.56-.1-1.41.49-1.62.63-.22.9.6,1.28,1.02,3.96,4.44,8.13,8.68,12.48,12.73.06.05.11.12.17.17.65.44,1.28,1.22,2.1.86.64-.28.44-1.19.54-1.84.43-2.64,1.65-5.07,2-7.74.26-1.91.23-3.82.22-5.74,0-.53-.24-.99-.56-1.42-1.6-2.09-3.48-3.83-5.93-4.89-.58-.25-1.21-.46-1.71-.84-1.38-1.05-2.96-1.31-4.62-1.3-3.39.03-6.79.21-10.18.08-4.39-.17-7.82-2.14-10-6.05-.35-.62-.6-1.3-.85-1.96-.11-.29-.23-.68.12-.86.47-.24.47.28.63.5.62.88,1.21,1.78,1.84,2.64,1.52,2.07,3.63,2.96,6.16,3.03ZM500.64,76.41c0-.51,0-1.03,0-1.54,0-.12,0-.24-.01-.36-.16-1.03-.83-1.37-1.68-.81-.66.44-1.29.94-1.88,1.48-3.22,2.98-6.79,5.49-10.35,8.03-3.11,2.22-6.57,3.91-9.56,6.31-3.63,2.91-6.28,6.46-6.89,11.21-.19,1.47-.6,3,.08,4.47,1.66,3.63,5.01,5.22,9.12,4.1,4.67-1.27,7.98-4.66,11.4-7.77,2.82-2.56,4.28-6.03,5.67-9.55,1.99-5.04,4.13-10.01,4.11-15.56ZM439.28,111.64c.18-.01.46,0,.73-.05,1.52-.3,2.88-.95,3.35-2.51.42-1.41-.61-2.4-1.53-3.26-1.5-1.4-3.32-2.33-5.17-3.16-3.87-1.74-7.38-4.06-10.72-6.66-1.04-.81-2.05-1.66-3.27-2.18-.53-.22-.99-1.15-1.61-.54-.55.54-.04,1.31.23,1.88,2.58,5.53,5.99,10.38,11.26,13.72,2.06,1.31,4.09,2.63,6.72,2.75Z" style="fill:#070708; stroke-width:0px;"/><path d="M554.76,90.21c0-18.67.01-37.34-.03-56.01,0-1.12.31-1.38,1.37-1.33,1.8.09,3.6.09,5.4,0,.95-.05,1.08.28,1.08,1.13-.03,9.2-.02,18.39-.02,27.59,0,24.79,0,49.58-.03,74.36,0,1.08.26,1.35,1.35,1.35,15.8-.04,31.59-.02,47.39-.05.98,0,1.27.19,1.24,1.21-.08,2.68-.08,5.36,0,8.03.03.99-.21,1.24-1.22,1.24-17.19-.04-34.39-.03-51.58-.03-1.28,0-2.56-.06-3.84.02-.92.06-1.12-.26-1.12-1.14.03-7.32.02-14.63.02-21.95v-34.42Z" style="stroke-width:0px;"/><path d="M197.89,89.88c0,18.79-.01,37.59.03,56.38,0,1.09-.27,1.39-1.36,1.35-2.36-.09-4.72-.05-7.08-.01-.69.01-.86-.2-.85-.87.04-2.12.02-4.24.02-6.36,0-35.63,0-71.25-.03-106.88,0-1.09.26-1.39,1.35-1.35,2.24.09,4.48.09,6.72,0,1.01-.04,1.23.25,1.22,1.24-.03,18.83-.02,37.67-.02,56.5Z" style="stroke-width:0px;"/><path d="M767.99,90.25c0-18.63.02-37.26-.03-55.89,0-1.29.36-1.57,1.56-1.5,1.79.11,3.6.05,5.4.01.64-.01.99.11.88.83-.04.23,0,.48,0,.72,0,37.22,0,74.44,0,111.66,0,1.88.27,1.6-1.67,1.62-1.8.02-3.6-.02-5.4.02-.58.01-.81-.15-.73-.74.04-.27,0-.56,0-.84v-55.89Z" style="stroke-width:0px;"/><path d="M424.2,56.99c2.87-.02,5.14.72,6.98,2.6,2.49,2.53,2.53,6.21.06,8.78-3.51,3.66-10.21,3.6-13.65-.14-3.03-3.3-1.76-8.38,2.6-10.36,1.36-.62,2.78-.96,4-.87ZM423.97,69.01c1.9,0,2.92-.25,4.21-1.04,2.47-1.51,2.55-4.16.16-5.81-2.46-1.69-6.53-1.62-8.91.16-2.01,1.5-2,3.92.03,5.41,1.34.98,2.86,1.33,4.5,1.28Z" style="stroke-width:0px;"/><path d="M518.99,131.94c.12,2.17-.58,3.96-1.9,5.49-2.06,2.38-5.43,2.15-7.56-.47-2.1-2.58-2.1-7.36,0-9.94,2.72-3.33,7.16-2.56,8.85,1.54.46,1.12.74,2.27.62,3.38ZM516,131.96c.06-1.42-.13-2.78-.94-3.99-.96-1.44-2.38-1.44-3.18.1-1.34,2.56-1.34,5.22-.03,7.8.81,1.6,2.26,1.59,3.24.09.8-1.22.96-2.58.91-4Z" style="stroke-width:0px;"/><path d="M417.01,132.53c-.01,2.07-1.53,3.58-3.54,3.54-1.96-.03-3.55-1.65-3.55-3.61,0-2.07,1.55-3.51,3.73-3.48,2.01.03,3.38,1.47,3.36,3.55Z" style="fill:#070708; stroke-width:0px;"/><path d="M460.33,83.27c.06.04.11.08.17.12-.1,0-.2.02-.3.02.04-.05.08-.1.13-.15Z" style="stroke-width:0px;"/><path d="M858.95,90.45c.08,8.09-.82,16.05-3.38,23.77-1.96,5.9-4.93,11.25-9.35,15.65-4.71,4.69-10.46,7.41-17.08,8.26-6.77.87-13.34.31-19.57-2.69-6.6-3.18-11.1-8.43-14.44-14.79-3.54-6.73-5.19-14-5.87-21.5-.85-9.37-.56-18.71,1.78-27.88,2-7.84,5.53-14.84,11.78-20.22,4.8-4.13,10.43-6.29,16.7-6.9,6.74-.66,13.3-.02,19.47,2.97,6.97,3.38,11.71,8.93,14.93,15.85,2.96,6.36,4.27,13.13,4.81,20.08.19,2.47.21,4.94.23,7.41Z" style="fill:#fdfdfd; stroke-width:0px;"/><path d="M500.64,76.41c.02,5.55-2.11,10.52-4.11,15.56-1.39,3.52-2.85,6.99-5.67,9.55-3.42,3.11-6.74,6.51-11.4,7.77-4.1,1.11-7.46-.47-9.12-4.1-.67-1.47-.26-3-.08-4.47.61-4.75,3.26-8.3,6.89-11.21,2.99-2.4,6.45-4.09,9.56-6.31,3.56-2.53,7.13-5.05,10.35-8.03.58-.54,1.22-1.04,1.88-1.48.85-.57,1.53-.22,1.68.81.02.12.01.24.01.36,0,.51,0,1.03,0,1.54ZM484.62,102.26c1.62-.09,3.42-.57,4.71-1.7,2.54-2.22,3.33-5.24,2.87-8.56-.11-.81-.58-1.47-1.45-1.73-2.69-.81-5.96,1.26-6.4,4.05-.25,1.62.66,3.08,2.11,3.4,1.39.3,2.85-.63,3.3-2.11.15-.5.3-1.26-.04-1.44-.54-.29-.6.54-.92.84-.09.08-.14.2-.23.28-.52.43-1.1.74-1.74.33-.64-.42-.79-1.08-.55-1.78.3-.86.91-1.49,1.71-1.92.8-.44,1.63-.74,2.45-.08.78.62,1.1,1.45.87,2.44-.62,2.68-2.36,4.4-4.85,5.33-3.31,1.24-6.28-1.36-5.65-4.87.73-4.11,4.03-7.47,8.16-8.3.2-.04.43-.03.44-.28,0-.27-.17-.39-.44-.46-.73-.18-1.4-.07-2.11.17-4.91,1.64-7.32,5.4-8.49,10.12-.63,2.55,0,4.15,1.73,5.1,1.34.74,2.79,1.15,4.52,1.2Z" style="fill:#fdfdfd; stroke-width:0px;"/><path d="M439.28,111.64c-2.63-.12-4.66-1.44-6.72-2.75-5.27-3.34-8.68-8.19-11.26-13.72-.27-.58-.78-1.35-.23-1.88.62-.61,1.08.32,1.61.54,1.21.52,2.23,1.37,3.27,2.18,3.34,2.6,6.85,4.91,10.72,6.66,1.85.83,3.67,1.76,5.17,3.16.92.86,1.95,1.85,1.53,3.26-.47,1.56-1.83,2.21-3.35,2.51-.27.05-.55.04-.73.05Z" style="fill:#fdfdfd; stroke-width:0px;"/><path d="M423.97,69.01c-1.64.05-3.16-.3-4.5-1.28-2.02-1.48-2.04-3.9-.03-5.41,2.38-1.78,6.45-1.85,8.91-.16,2.38,1.64,2.31,4.3-.16,5.81-1.29.79-2.32,1.04-4.21,1.04Z" style="fill:#fdfdfd; stroke-width:0px;"/><path d="M516,131.96c.05,1.41-.11,2.78-.91,4-.98,1.5-2.43,1.5-3.24-.09-1.3-2.57-1.31-5.23.03-7.8.8-1.53,2.23-1.53,3.18-.1.8,1.21.99,2.57.94,3.99Z" style="fill:#fdfdfd; stroke-width:0px;"/><path d="M484.62,102.26c-1.73-.05-3.18-.46-4.52-1.2-1.72-.95-2.36-2.55-1.73-5.1,1.17-4.72,3.58-8.49,8.49-10.12.7-.23,1.38-.34,2.11-.17.27.07.45.19.44.46,0,.25-.24.24-.44.28-4.13.84-7.43,4.19-8.16,8.3-.63,3.51,2.34,6.11,5.65,4.87,2.48-.93,4.23-2.65,4.85-5.33.23-.99-.09-1.82-.87-2.44-.82-.66-1.65-.35-2.45.08-.8.44-1.4,1.06-1.71,1.92-.25.7-.1,1.36.55,1.78.64.41,1.22.1,1.74-.33.09-.07.14-.19.23-.28.32-.3.38-1.12.92-.84.34.18.19.94.04,1.44-.45,1.48-1.91,2.41-3.3,2.11-1.45-.31-2.36-1.78-2.11-3.4.44-2.79,3.72-4.86,6.4-4.05.87.26,1.34.93,1.45,1.73.46,3.31-.32,6.34-2.87,8.56-1.29,1.13-3.09,1.61-4.71,1.7Z" style="fill:#070708; stroke-width:0px;"/></g></svg>