<?xml version="1.0" encoding="UTF-8"?><svg id="b" xmlns="http://www.w3.org/2000/svg" viewBox="0 0 1077.54 744.56"><g id="c"><polyline id="d" points="482.21 233.31 326.21 329.31 354.21 430.64 519.54 578.64 682.21 465.31 699.54 370.64 670.21 293.31 482.21 233.31 482.21 233.31 482.21 233.31" style="fill:currentColor; stroke-width:0px;"/></g><g id="e"><path d="M890.93,148.24c5.34,25.38-7.69,85.21-37.22,78.45-10.55,34.99-71.8,36.22-90.67,64.49-1.72,12.16,15.87-8.58,19.8-4.87,13.05,8.88-.3,21.22-7.03,30.02-12.64,16.67-51.37,54.7-59.89,15.45,1.15-18.48,15.15-13.84,20.29-1.59,6.75-26.86,12.78-54.82-17.58-18.72-6.11,18.43-35.44,2.55-27.6-12.42,3.2-3.81,3.94-7.58-2.21-6.2-12.89,1.72-6.24,16.93-11.63,24.12-14.22,9.28-15.86-20.81-23.88-28.07-16.98-27.24,13.14-37.46,19.77-62,11.38-8.51,42.6-2.9,41.17,15.52-.75,7.32-9.42,13.87-10.25,20.88,1.48-6.22,8.04-12.74,9.99-18.45,9.99-16.22-32.99-24.1-12.48-31.6,20.5,1.76,33.58,24.85,52.93,20.51,8,1.69-1.22-5.84,7.77-10.36,30.77-11.63,37.9-67.52,7.68-83.52-19.42-8.54.83-21.6,17.01-17.93,22.01,6.82,16.98,35.04,29.07,49.28,10.45,8.66-2.25,23.41-6.78,35.71-3.92,12.13,17.23-17.26,19.93-21.37,3.06-8.35,3.62-19.84,12.98-23.89,18.94-2.91,10.16,28.43,2.85,35.69,9.92-5.18,10.63-34.76,25.79-25.83,4.02,2.77,7.81,6.61,9.37-.54,1.15-4.47,5.96-25.47,10.84-22.77Z" style="fill:#727594; stroke-width:0px;"/><path d="M873.46,216.19c8.36-14.86,9.91-40.56,26.52-47.92,17.45-2.66,28.1-25.89,45.07-24.21,4.71,4.53-5.25,11.33-6.52,15.4-3.97,18.12,20.03,6.4,28.86,12.32,25.55,10.46,8.4,29.74,2.73,46.68-.28,4.01,2.69,10.88-3.25,10.72-16.05-3.36-2.29-25.94-8.42-35.53-4.01-3.69-3.75,3.59-3.63,6.05-7.71,26.71,27.01,34.42,23.24,58.82-.83,15.54,14.67,29.46,2.94,41.42-5.21,4.68-13.45,34.5-19.47,16.73,23.81-60.76-80.17-70.24-105-27.55-7.21,16.53,13.56,20.11-6.66,39.68-21.44-8.86-56.01,91.33-56,46.66,5.26-12.17,11.27-23.58,10.44-37.23.97-8.72,19.48-20.33,11.08-28.06-20.91,12.48-18.28-9.48-5.98-20.02.92-1.35,2.06-3.72-.62-3.53-47.83,1.47,19.86-24.7,33.33-27.71,11.69-1.55,35.13-32.74,31.33-42.72Z" style="fill:#504e65; stroke-width:0px;"/><path d="M998.59,366.93c29.95-13.69,80.62,3.51,54.8,41.45-8.18,13.52-24.9,21.53-27,37.95,0,35.79-32.62,31.91-24.5,55.48,29.67,43.6-16.8,53.83-46.88,71.16-3.33,4.4-9.09,3.05-5.87-3.27,3.48-7.62,33.27-20.1,32.94-26.15-.42-25.71,10.1-47.64-25.71-27.21-17.15,10.46-36.46.93-16.56-16.04,9.64-17.26,13.22-37.95,23.5-54.9-2.58-20.71-13.34-18.54-3.28-43.81.55-15.22-22.74-17.35-27.42-30.97-9.06-18.43,5.36-38.83,24.13-39.44,5.98,20.87,11.45,53.16,41.85,35.74Z" style="fill:#63637f; stroke-width:0px;"/><path d="M118.42,354.45c-19.02-28.12,35.11-30.06,34.86-47.95-6.75-6.03-49.59-20.18-35.03-47.7,8.8-20.5-12.88-49.1-34.81-38.28-21.25,33.26-32.05,1.14-24.5-22.96-14.45-29.18-8.82-55.48,14.55-79.51,18.73-19.69,6.26,27.08,9.07,39.24.34,5.83,2.37,15.34,4.58,19.8-2.83-12.26-4.25-26.14,6.82-40.07,2.07-6.68,12.72-24.03,12.4-6.86-.97,24.55,6.26,58.09,33.42,62.1,22.18-1.61,43.79,44.19,14.53,46.42,10.43,8.8,14.88,10.49,2.66,22.48,4.57,13.56,16.05,27.71,10.1,43.24-1.46,11.85,7.08,19.67-4.45,28.48-27.27,8.57-27.51-13.05-44.19,21.58Z" style="fill:#595973; stroke-width:0px;"/><path d="M1.27,493.77c10.47-33.29,73.55-77.46,105.26-93.54,17.51-2.53,34.34,8.58,45.69,20.86,10.63,5.7,25.82,1.37,29.57,15.65,6.02,8.02,7.5,13.92.26,20.87,5.26,32.42-68.77,23.48-27.48,3.73,12.62-21.08-26.96-13.53-37.54-12.14-19.93-8.72-42.78-3.09-55.32,15.91.17,9.45,3.44,17.38-4.27,26.08-14.41,40.28,47.78,71.24,81.54,72.25,18.66,16.91-37.74,36.44-32.26,12.32-27.27-12.7-83.27-34.84-87.32-71.08-6.03-18.58-9.9,9.08-16.88,5.47-2.91-3.26-1.66-11.63-1.25-16.38Z" style="fill:#61607b; stroke-width:0px;"/><path d="M865.2,169.3c-7.62,12.88-14.37,39.9-31.97,33.53,19.73-1.46,23.42-58.1,3.08-30.12-4.52,19.71-20,37.37-33.32,50.93-3.21-16.29,18.19-32.84,12.9-48.28-5.19-2.81-9.87-5.52-9.09-12.29-.02-29.57-28.91-56.16-48.53-24.74-2.22,1.59-4.72.92-4.91-1.47,2.05-13.34-20.65-1-29.2-6.82-18.12-1.58-36.53-52.92-14.39-56.56,62.68,72.53,96.34-43.54,134.11,47.44,5,18.63,36.04-21.54,25.06,17.95.05,12.25,5.12,18.38-3.74,30.44Z" style="fill:#7d819d; stroke-width:0px;"/><path d="M763.97,674.89c18.61,5.6,41.19-3.54,58.44,1.96,9.96,9.29,21.66,3.49,33.24,7.62,13.86,10.05,46.49,2.74,53.55,13.65-30.41,14.15-64.14-9.25-96.26-4.8-63.2,2.73-124.68-4.52-187.2-4.01-23.33,3.86,8.71,12.95,17.16,13.63,43.16,17.7-79.09,3.24-92.23.25-31.95-14.52,105.16-38.62,115.86-31.44,14.18-2.84,38.75,13.52,46.21,2.18-6.48,1.03-34.03,3.64-23.72-9.19,12.63-8.08,23.11-24.65,37.66-9.9,34.09.85,34.15.54,7.64,17.81,14.89-.65,16.3-6.52,29.67,2.24Z" style="fill:#727591; stroke-width:0px;"/><path d="M5.37,509.89c-2.19-10.49,8.41-23.17,15.93-11.07-.2,18.48,9.6,31.77,26.31,39.16,22.28,14.97,42.6,32.82,69.65,36.5-23.58,12.79,12.15,8.1,21.13,10.56,33.09,16.01-16.51,12.9-25.6,20.67-5.53,22.98-75.27-12.91-74.11-33.88-3.71-22.86-35.04-38.03-33.31-61.94Z" style="fill:#686a87; stroke-width:0px;"/><path d="M694.22,690.1c44.43,6.71,116.13-11.18,147.58,4.3-51.86,11.94-105.65,5.74-156.9,18.43-26.4,8.23-97.18,16.19-130.24-1.61-16.67-23.64,78.31,3.72,94.43-2.85,6.68-1.91-45.68-7.31-42.32-15.35,28.57-7.78,58.96-3.81,87.45-2.92Z" style="fill:#24223b; stroke-width:0px;"/><path d="M551.52,704.49c12.92,8.59,25.02,12.66,40.98,10.21,14.35,3.93-24.01,7.01-29.52,7.56-53.23-7.09-141.01,3.66-209.75-15.52-12.47,3.07-57.49,9.92-62.92-1.7-3.28-4.78-31.42,2.45-20.39-11.8,93.66-9.96,188.12,7.44,281.59,11.25Z" style="fill:#2e2b43; stroke-width:0px;"/><path d="M298.94,695.24c-20.02-3.19-31.18,9.9-50.3,8.28-24.56.9-223.77,4.24-186.34-13.72,22.83-5.68,395.68-15.23,236.63,5.44Z" style="fill:#232239; stroke-width:0px;"/><path d="M981.78,538.94c26.67-.92-25.85,22.75-29.58,30.96-8.17,16.28-8.86,38.13-26.64,47.46-17.96,5.28,13.17-29.27-39.15-24.35-9.03-4.07,8.09-8,11.91-5.02-63.92-56.72,15.49-10.51,40.06-55.84,27.56-27.17,15.83,29.5,43.4,6.79Z" style="fill:#676884; stroke-width:0px;"/><path d="M118.23,354.69c-1.48-34.33,20.99-22.65,42.25-25.72,8.58-7.88,22.12-19.17,31.88-6.65,1.2,2.83-1.57,5.08-3.99,5.96-28.55,6.53,2.41,25.26-14.11,25.91-18.36-7.74-20.16,12.84-19.22,26.05,1.33,20.16,24.93,23.33,38.85,34.04,11.93,8.8,3.54,11.11,10.48,17.19,6.58,5.94,7.57,14.03,6.81,22.49,2.13,9.76,13.69,11.96,15.52,23.23,2.42,4.84,11.47,8.03,8.48,13.06-6.96,5.56-50.1-20.83-42.59-32.88,11.8-15.48-6.69-12.61-8.35-30.7.74-11.84-13.88-12.79-22.24-16.28-46.94-17,.83-37.41-43.76-55.7Z" style="fill:#656681; stroke-width:0px;"/><path d="M357.7,653.43c-18.1-46.03-37.99-4.2-55.01-39.83-17.13-14.4-52.09,24.42-60.63-3.19-3.79-6.08-14.73-19.61-1.01-21.19,6.44.76,16.76,14.78,20.38,2.75,3.15-18.04,69.63-9.5,28.46-22.77,19.65-39.34,63.75,22.25,1.45,29.32,16.33.48,26.37,4.87,35.07,15.96,22.1-1.92,39.9,8.55,57.71,20.1,29.71,17.82-20.68,10.05-26.41,18.83Z" style="fill:#54526a; stroke-width:0px;"/><path d="M960.58,355.31c-14-18.18,10.02-23.68-21.72-13.89-1.07-11.85,18.32-18.6,27.67-22.18,5.58-3.09,3.2-10.37,5.76-15.13,7.73-6.28,14.08-13.15,7.91-24.01-5.81-8.71-6.25-18.49-5.37-28.6-.73-17.43-28.11-21.96-24.37-42.93,3.32-7.73-8.18-22.15,4.32-21.62,18.91,4.64-.27,25.27,7.7,36.67,5.94,5.81,16.95,5.72,22.65,12.52,4.72,19.65,16.89,41.95,12.28,63.64-3.47,9.02-1.53,14.45,6.87,19.46,5.59,17.49-22.56,8.95-29.41,18.51-5.56,3.89-6.54,16.75-14.29,17.54Z" style="fill:#5e5b76; stroke-width:0px;"/><path d="M156.13,201.46c-38.14-9.07-25.88-80.94,16.46-58.58,11.87,4.98,9.84-5.68,10.37-13.6-8.3-53.18,94.38-66.94,72.48-35.32-98.14-26.15-8.57,99.47-96.49,57.08-22.17-.68,18.19,38.42-2.83,50.42Z" style="fill:#6f718e; stroke-width:0px;"/><path d="M724.7,85.52c-7.64,5.65-9.39-4.04-13.67-7.88-14.77.2.5,31.33-8.1,31.5-15.32-30.92,5.82-68.88-52.3-65.8-36.57-8.87-42.29-37.85-91.4-30.2,21.33-7.06,73.82-8.12,97.99,13.91,26.17,1.8,82.51,17.79,67.47,58.47Z" style="fill:#767995; stroke-width:0px;"/><path d="M431.38,19.7c-14.97-2.01-69.75,18.37-42.69,32.9,3.31,3.11-2.52,5.28-6.3,5.12-34.11-14.52-24.66,37.24-44.65,53.42-6.7,13.39-39.92,5.81-14.87-1.98,19.93-14.96,25.82-51.73,32.59-71.93-6.86-5.9-22.6,16.42-27.51,18.28-30.71-19.75,77.63-46.37,97.36-51.21,20.34-10.37,33.84,7.8,51.98,14.48-7.94,4.88-32.46-3.22-45.9.92Z" style="fill:#696985; stroke-width:0px;"/><path d="M313.16,114.24c-40.35,13.6-26.07-18.96-3.19-34.53,3.99-12.76.12-28.31,18.45-27.46,8.5-8.8,16.75-18.37,29.03-21.94,15-4.05-3.42,12.05-1.48,19.12.13,21.31-15.2,36.18-21.23,55.3-3.62,11.04-15.52,3.91-21.59,9.52Z" style="fill:#787d99; stroke-width:0px;"/><path d="M896.06,556.54c-17.59,1.89-27.39,3.63-7.56,14.22,4.87,15.52,31.64,21.97,11.69,19.15-11.53-5.28-54.25,22.96-49.56,4.42,37.07-7.81,8.14-29.67-16.11-15.8-39.99,25.49-10.9-53.04,6.95-27.59,15.31,32.03,91.19-68.59,95-27.27-14.95,7.11-28.03,28.6-40.4,32.88Z" style="fill:#6e708c; stroke-width:0px;"/><path d="M136.09,177.01c34.62,47.24-47.18,3.96-30.02-44.43.94-19.95-24.28,28.54-18.52,35.44,2.74,6.21,8.49,29.33-2.62,14.51-14.19-21.99-1.54-48.67-7.37-71.25,8.54-30.29,11.84-19.12,28.34-31.6,17.11-.06-20.22,94.73,30.19,97.33Z" style="fill:#524f6a; stroke-width:0px;"/><path d="M355.96,652.94c-1.14-13.05,73.46-15.93,59.84.14-47.91,14.98-92.48,24.41-143.27,20.65-58.02,7.01,5.33-25.58,27.19-23.84,17.7-3.5,42.69,8.93,56.25,3.05Z" style="fill:#747894; stroke-width:0px;"/><path d="M56.42,184.08c16.65,7.22-10.12,52.26,15.71,47.84,21.96-49.04,71.05,12.5,43.22,44.42.42-18.68-8.21-68.37-37.03-46.05-6.25,7.58,2.16,24.12-10.86,26.41-32.72-2.68-24.93-52.59-11.03-72.62Z" style="fill:#383850; stroke-width:0px;"/><path d="M111,77.26c-21.8,41.86-7.59-21.78-37.76,43.64.84-29.19,60.91-120.09,118-83.07,4.65,1.71,24.06-3.83,20.3,2.85-11,.85-22.78,4.22-33.56,5.04-28.8-13.99-53.51,5.28-66.98,31.54Z" style="fill:#44435a; stroke-width:0px;"/><path d="M838.71,623.45c.58,22.98-24.32,3.22-35.27,1.03-8.73-4.48-55.45.74-31.6-9.25-73.07,18.04,7.8-25.84,36.62-14.79,22.58-4.56,27.21,1.5,30.25,23Z" style="fill:#575672; stroke-width:0px;"/><path d="M1006.21,322.09c-30.03-1.87-2.66-36.78-15.69-53.91-8.56-10.15-7.57-21.82-5.27-33.48,12.84,13.44,34.03,32.85,27.01,53.82-2.59,10.93,9.4,28.14-6.04,33.57Z" style="fill:#51516e; stroke-width:0px;"/><path d="M757.22,608.47c-27.52,18.61,8.84,4.8,21.52,4.07,13.82,3.28-52.14,12.82-52.8,24.47-4.89,11.79-2.16,13.19-16.18,15.46-60.01,25.11,24.81-67.62,47.46-44.01Z" style="fill:#696a88; stroke-width:0px;"/><path d="M864.7,169.95c3.49-12.41-.62-25.33.88-37.24,2.19-3.57,5.06-11.06-1.88-10.43-11.84,8.12-24.99,11.13-9.12-5.28,47.76-22.98,27.56,37.74,26.17,61.78,1.42,13.87-14.05-5.02-16.05-8.83Z" style="fill:#676885; stroke-width:0px;"/><path d="M106.77,614c1.11-9.35-8.89-12.25,7.52-14.72,29.02,4.19,56.03-28.48,81.37-9.01,11.42,23.49,24.73-7.93,30.87,9.83-4.97,9.79-28.02,11.59-34.96,3.14-1.36-5.66-6.06-9.19-11.85-9.9-22.09-3.53-43.19,29.83-72.95,20.65Z" style="fill:#504f67; stroke-width:0px;"/><path d="M842.33,116.85c-40.8-58.95-41.94-15.67-88.18-11.23-3.56-.76-9.31-6.03-3.56-7.95,35.28-15.58,79.97-37.43,91.74,19.18Z" style="fill:#6c6c85; stroke-width:0px;"/><path d="M183.28,685.75c-6.19,6.22-19.35-.6-7.63-5.5,44.55-14.49,99.56-.43,144.71,1.63-39.19,18.32-95.11-7.41-137.08,3.87Z" style="fill:#636480; stroke-width:0px;"/><path d="M251.71,679.28c-28.96,5.87.94-18.39-13.46-16.25-11.06.04-39.73,5.26-41.97,2.36,42.46,1.05,42.62-25.66,64.51-11.16,13,7.37,22.33-19.62,34.47-4.47-10.6,8.5-30.04,13.12-43.64,19.13-2.37,2.99,5.68,6.83.08,10.38Z" style="fill:#45445b; stroke-width:0px;"/><path d="M402.17,714.96c46.29-1.27,101.05,5.73,150.02-2,13.26,1.92-10.69,4.5-12.32,5.87-.6,3.54,11.22-.64,14,1.47-42.33,11.71-104.54-2.1-151.7-5.35Z" style="fill:#24223b; stroke-width:0px;"/><path d="M906.35,696.82c-45.41-20.57,104.52-2.95,71-3.45-13.18-.01-75.68,1.49-35.03,7.89,4.99,6.66-47.79,1.92-60.95,4.18-17.27-5.07,24.7-2.52,24.98-8.62Z" style="fill:#171725; stroke-width:0px;"/><path d="M270.36,79.16c17.21,3.63,25.14-28.57,35.18-32.68,10.79.81-5.31,21.18-1.79,28,11.53,31.83-63.23,9.46-33.4,4.68Z" style="fill:#100f1e; stroke-width:0px;"/><path d="M720.86,63.42c-7.66-19.97,7.36-13.47-5.74-35.08,32.52.61,30.31,92.07,5.74,35.08Z" style="fill:#120a2a; stroke-width:0px;"/><path d="M286.81,91.4c13.02-3.08,21.16-17.05,26.2-27.23,10.82,13.01-6.61,23.47-14.16,30.72-17.67,37.13-74.15-18.89-12.04-3.5Z" style="fill:#62627d; stroke-width:0px;"/><path d="M113.63,267.62c22.18,30.49-19.91,8.14-2.39,21.34,6.84-1.66,13.38-3.34,17.75,3.86,15.44,16.85-27.78,6.42-29.91-4.23.68-33.48-25.74-52.51,14.54-20.97Z" style="fill:#151422; stroke-width:0px;"/><path d="M921.4,605.42c10.49,23.03-39.43,20.65-52.24,14.3,8.28-15.54,38.16-4.64,52.24-14.3Z" style="fill:#757891; stroke-width:0px;"/><path d="M761,674.11c-69.8,11.97-11.95-21.13,18.27-20.84,23.19,14.29-35.94,1.14-18.27,20.84Z" style="fill:#5e5d78; stroke-width:0px;"/><path d="M836.3,658.33c7.15-2.67,43.58-3.04,33.19-13.19-1.42-1,2.67-1.18,3.39-1.29,60.25,1.99-19.13,25.84-36.57,14.48Z" style="fill:#64657b; stroke-width:0px;"/><path d="M271.96,701.77c6.32-3.16,41.47-2.1,22.14,3.23,1.96,8.35,50.49,4.07,58.92.7,50.16,3.77-105.14,17.8-81.06-3.93Z" style="fill:#232239; stroke-width:0px;"/><path d="M960,355.26c6.49-20.9,15.94,18.14,33.4,13.06,13.72,4.29-31.28,21.03-33.4-13.06Z" style="fill:#504f6a; stroke-width:0px;"/><path d="M721.21,63.93c9.81,10.49,17.59,24.41,29.1,33.47-6.44,20.19-37.56-19.58-29.1-33.47Z" style="fill:#565671; stroke-width:0px;"/><path d="M947.01,147.68c-7.43.52-22.52.91-7.39-4.53,6.47-3.22,3.5-11.15,3.91-16.73,2.36-4.09,7.67-9.26,6.62-15.32,9.85,1.63,8.98,31.36-3.14,36.58Z" style="fill:#2c2d40; stroke-width:0px;"/><path d="M870.53,691.35c-13.04,1.05-25.35-10.92-38.45-3.34-27.39-13.14,42.55-14.85,38.45,3.34Z" style="fill:#525169; stroke-width:0px;"/><path d="M884.22,703.44c-18.09,9.96-94.24-11.38-35.22-10.4,9.22,8.32,27.24,4.77,35.22,10.4Z" style="fill:#19182a; stroke-width:0px;"/><path d="M141.28,368.63c.14,8.57,4.73,25.58-.43,31.8-19.43-5.04-17.4-26.76.43-31.8Z" style="fill:#201e37; stroke-width:0px;"/><path d="M5.42,510.6c6.6,20.99,28.24,35.31,31.95,56.77-14.89-21.12-43.85-46.66-36.07-72.7-.02,4.37.08,12.12,4.12,15.93Z" style="fill:#515268; stroke-width:0px;"/><path d="M54.41,694.13c8.56,11.01,55.81-2.07,78.09,7.79,5.63,1.55,4.45,2.32-.75,2.26-15.39-1.2-135.68-7.62-77.35-10.05Z" style="fill:#151422; stroke-width:0px;"/><path d="M838.39,658.28c-7.89,6.15-46.58,1.34-64.24,3.19-1.2-.42,4.58-1.08,4.96-1.6-2.06-21.25,44.02,3.94,59.28-1.6Z" style="fill:#272636; stroke-width:0px;"/><path d="M880.27,179.59c-11.87-15.77,6.61-33.03,5.33-50.48,12.7,4.6-1.04,37.32-5.33,50.48Z" style="fill:#585773; stroke-width:0px;"/><path d="M718.95,651.85c-4.64-9.76,17.6-37.21,16.63-21.16-20.46,22.57,1.12,24.24-4.33,27.65-5.37,1.28-11.38-.72-12.3-6.49Z" style="fill:#585773; stroke-width:0px;"/><path d="M461.13,13.22c-11.69,1.17-15.27-9.5-23.62-12.27,13.3-3.32,61.8,2.35,23.62,12.27Z" style="fill:#595a71; stroke-width:0px;"/><path d="M870.81,690.9c.49-6.89,16.17-1.92,21.78-3.28,39.54,6.87-9.59,13.61-21.78,3.28Z" style="fill:#2e2d44; stroke-width:0px;"/><path d="M138.87,398.69c11.6-9.64,23.61,15.59,3.95,14.55-14.3,3.01-18.53-10.49-3.95-14.55Z" style="fill:#403e56; stroke-width:0px;"/><path d="M837.19,622.1c-17.89-7.39.99-32.61,14.31-21.45-4.1,5.6-12.23,14.65-14.31,21.45Z" style="fill:#2c2c46; stroke-width:0px;"/><path d="M917.82,160.48c-4.01,10.93-35.54,23.73-28.19,1.92,4.52,10.19,18.72-5.39,28.19-1.92Z" style="fill:#3a3951; stroke-width:0px;"/><path d="M273.62,701.64c3.35,1.3-1.26,4.31,5.14,5.17,21.24,1.12-19.59,14.64-13.71,3.21,4.68-9.21-18.04-5.43-21.62-6.25,7.33-2.62,21.1-2.64,30.19-2.13Z" style="fill:#0e0d1c; stroke-width:0px;"/><path d="M118.53,284.12c-8.99-21.47,14.64,12.37,24.04,13.73,9.08,7.88-23.09,2.06-24.04-13.73Z" style="fill:#424255; stroke-width:0px;"/><path d="M225,603.43c-7.51-18.19,21.35-2.98,20.9,8.06.57,4.57-13.56-9.17-20.9-8.06Z" style="fill:#3f3f58; stroke-width:0px;"/><path d="M294.81,609.91c2.84-8.31,22.35,7.64,14.32,12.37-7.47,2.18-8.76-9.44-14.32-12.37Z" style="fill:#78798f; stroke-width:0px;"/><path d="M260.05,87.57c-19.33-5.9,12.31-14.44,18.77-17.4-4.23,5.9-12.98,13.06-18.77,17.4Z" style="fill:#201f2e; stroke-width:0px;"/><path d="M828.55,635.07c4.7-3.81,11.66-16.72,18.29-7.92,1.28,5.91-14.32,12-18.29,7.92Z" style="fill:#2b293c; stroke-width:0px;"/><path d="M624.88,10.7c-4.73,2.76-23.9,5.09-21.85-5.14,5.35-.39,17.43,1.88,21.85,5.14Z" style="fill:#585970; stroke-width:0px;"/><path d="M316.59,651.56c-5.16,2.18-15.99,3.04-20.35-.69,3.91-8.5,15.11-4.25,20.35.69Z" style="fill:#5b5c73; stroke-width:0px;"/><path d="M759.44,656.27c-1.04,2.29-14.66.05-17.04-1-7.05-6.12,16.9-6.27,19.77-4.61-1.15,1.8-3.64,3.01-2.73,5.61Z" style="fill:#444457; stroke-width:0px;"/><path d="M202.95,42.16c8.2-5.95,15.15,1.1,7.65,8.64-5.72,2.9-5.54-5.93-7.65-8.64Z" style="fill:#2c2f3a; stroke-width:0px;"/><path d="M942.59,593.94c-4.79-5.41,10.57-28.96,9.68-17.31-2.75,5.77-5.43,12.8-9.68,17.31Z" style="fill:#3b3b52; stroke-width:0px;"/><path d="M795.44,643.09c4.46-3.62,20.57-2.4,19.4,3.22-6.22.36-13.99-.16-19.4-3.22Z" style="fill:#343240; stroke-width:0px;"/><path d="M171.69,683.47c7.88,6.62-13.31,6.4-17.58,6.94,2.79-3.2,12.26-8.87,17.58-6.94Z" style="fill:#3f3e55; stroke-width:0px;"/><path d="M740.14,652.99c3.84.56,10.68,2.73,13.75,4.11-5.21,1.73-30.14.09-13.75-4.11Z" style="fill:#5e5d78; stroke-width:0px;"/><path d="M298.99,648.83c1.02,4.91-9.12,5.37-10.7,2.33,1.08-1.17,3.83-1.58,2.45-3.76,1.72-1.35,7.08-.37,8.25,1.43Z" style="fill:#28293d; stroke-width:0px;"/><path d="M241.51,647.97c-1.69-1.19-3.19-7.05-2.28-9.2,4.84-1.09,5.21,6.85,2.28,9.2Z" style="fill:#45445b; stroke-width:0px;"/><path d="M205.54,38.37c-7.03,1.91-15.71,2.33-22.63-.12,7.23-.53,15.41-.36,22.63.12Z" style="fill:#2c2f3a; stroke-width:0px;"/><path d="M929.09,151.24c-.4,4.45-6,8.77-10.33,8.74-.38-1.95,8.42-9.66,10.33-8.74Z" style="fill:#3a3951; stroke-width:0px;"/><path d="M556.81,722.82c1.75-2.29,6.69-5.03,8.93-1.93-.39,3.67-6.46,3.08-8.93,1.93Z" style="fill:#24223b; stroke-width:0px;"/><path d="M1072.14,741.71c.49-4.52,6.48-4.68,5.22,1.13-.67,3.42-4.76,1.05-5.22-1.13Z" style="fill:#938e9d; stroke-width:0px;"/><path d="M816.02,270.04c-2.48,7.41-21.51,7.37-21.85,10.94,1.91,10.98,27.61-8.37,22.88,5.07-46.27,57.72,37.76-16.39-5.88,47-7.75,9.54.82,12.33-4.36,22.76-9.81,12.18-7.93,26.12-11.68,38.75-16.73,14.56-32.1-4.29-21.6-21.61-.36-9.09,18.31-25.41.58-23.35-5.62-4.34-.92-14.63-10.58-16.85-12.75-9.78,13.84-9.18,15.16-14.37,6.4-11.64,12.93-25.9,6.21-38.83.23-10.79,25.89-21.65,31.12-9.51Z" style="fill:#605f7b; stroke-width:0px;"/><path d="M733.97,325.5c-8.72-9.11-18.74-.69-13.68,10.47,1.82,4.58,8.2,8.17,6.99,13.51-49.79,29.66-3.34,32.64-19.99,58.82-18.4,22.52-16.88-61.68-20.32-69.69-17.6-16.31-10.43-70.44,14.47-45.1-14.82,4.63-9.48,17.83,2.87,22.1,14.77,3.55,20.04-26.16,37.41-28.13,10.47.87,5.09,19.35.32,24.55,3.99,7.53,2.02,14.25-8.05,13.47Z" style="fill:#8488a4; stroke-width:0px;"/><path d="M709.73,401.42c4.13-14.66-14.57-28.73-.89-42.94,10.16-10.62,27.88-8.77,37.97-19.58,6.22-8.12,19.78-15.18,27.19-4.92,12.17,18.5-26.55,22.14-24.59,37.63-1.42,10.37,5.29,21.58,1.7,31.13-8.94,13.54-37.99,16.96-41.38-1.32Z" style="fill:#151515; stroke-width:0px;"/><path d="M678.32,314.58c8.15-5.87,7.16,2.08,4.45,7.41-2.05,7.75,13.12,15.23,8.75,25.07-6.76,6.2-20.59,21.62-24.2,5.15-6.42-17.47,6.11-24.92-15.1-34.33.01-18.66-45.11-48-21.46-58.82,18.41,5.06,22.7-26.91,39.81-26.47,5.69,18.42-31.86,29.22-17.09,48.55,8.42,8.04,11.45,41.65,24.85,33.43Z" style="fill:#9598b2; stroke-width:0px;"/><path d="M666.79,209.06c10.99-4.74,48.92-22.91,42.29,2.56-7.12,8.7-29.4-10.64-50.8,16.87-14.47,25.24-26.7-1.42-45.38-3.93-10.23,1.2-12.79,17.21-25.7,14.9-13.07-1.01-9.58-9.43.66-12.12,10-6.07,16.47-19.24,27.52-22.78,7.87,6.7,27.43-1.59,28.04,11.98,6.67,3.82,16.1-6.47,23.36-7.49Z" style="fill:#020207; stroke-width:0px;"/><path d="M671.12,233.97c-41.71,39.91-21.13-10.45,4.44-20.02,18.09-6.08,54.05,15.63,38.24,37.08-5.36,3.18-9.12,34.9-14.28,21.77-.13-14.55,20.88-25.27,10.05-39.31-8.36-9.98-32.36-12.58-38.45.48Z" style="fill:#8a8da9; stroke-width:0px;"/><path d="M798.61,266.14c-11.12,12.8-13.58,10.13-4.05,23.82-6.76,9.23-8.47,30.25-14.98,35.37-22.58-2.96,4.7-18.65,6.55-28.51,1.19-6.34-2.96-11.85-9.1-6.77-45.93,30.66-4.75-29.1,21.59-23.91Z" style="fill:#686986; stroke-width:0px;"/><path d="M755.13,235.87c-7.57-.87-20.53,15.02-18.55-1.25,6.81-12.15,5.79-27.32,12.64-38.8,21.13-10.86,9.81,37.94,33.75,2.73,3.39-3.41,4.92-1.08,4.16,2.9-6.59,27.95-20.63,14.69-32,34.42Z" style="fill:#615f7b; stroke-width:0px;"/><path d="M872.97,217.77c26.81-6.74-15.14,28.74-17.7,38.65-5.7,9.16-17.45,4.76-26.48,10.64-19.99-12.68,37.7-35.06,44.19-49.29Z" style="fill:#403f5c; stroke-width:0px;"/><path d="M694.96,216.06c-27.23-7.47-34.57,23.61-52.01,33.06-9.36-6.86-36.1-4.14-30.5-21,10.78-13.88,21.96,13.25,34.13,8.14,20.75-34.85,67.13-28.5,48.38-20.21Z" style="fill:#676782; stroke-width:0px;"/><path d="M780.01,173.71c.53-8.43-21.12-37.45-3.83-34.03,39.41,22.41-7.42,92.99,3.83,34.03Z" style="fill:#56536f; stroke-width:0px;"/><path d="M863.05,228.89c-6.32,15.31-28.13,18.06-36.67,32.37-3.29,9.6-25.57,12.92-23.45,2.77,11.46-13.27,54.09-21.42,47.36-40.67-3.43-10.35,14.55-.92,12.76,5.53Z" style="fill:#686986; stroke-width:0px;"/><path d="M780.13,192.48c20.52-5.61-5.32,23.71-11.97,25.53-14.53-7.54-2.55-26.83,11.97-25.53Z" style="fill:#010105; stroke-width:0px;"/><path d="M733.34,327.43c2.59-2.22,6.44-1.96,9.42-.6,8.77,7.79-27.53,17.19-9.42.6Z" style="fill:#0a0e1a; stroke-width:0px;"/><path d="M755.81,236.06c-1.23-5.19,10.07-6.26,14.06-6.4,2.88,4.27-10.58,8.71-14.06,6.4Z" style="fill:#0e0f21; stroke-width:0px;"/><path d="M740.51,229.16c-1.51,2.68-4.74,1.58-7.17.64-6.08-3.37,9.46-7.53,7.17-.64Z" style="fill:#150a31; stroke-width:0px;"/><path d="M851.3,322.66c7.89-11.4,14.85-49.89,32.71-38.55,5.15,7.4-6.85,14.65-5.66,23.28-4.78,15.54,2.97-9.3,7.66-13.59,6.2-15.85,44.88-41.47,52.27-16.8,27.04,21.74-5.06,50.64-14.28,75.19-25.61,26.36-105.35,17.56-72.7-29.52Z" style="fill:#151515; stroke-width:0px;"/><path d="M773.77,348.33c36.02-18.16-14.61,37.07,5.14,47.68,23.17,10.86,34.17-64.39,41.67-25.86,15.86,37.2-29.34,22.9-33.16,43.45-.84,12.05-5.92,27.63-15.54,35.14-28.9,4.45,13.04-30.03-2.67-37.79-30.3-14.74-19.34-48.92,4.56-62.62Z" style="fill:#787c99; stroke-width:0px;"/><path d="M936.79,269.53c-30.79-2.46-51.14,22.84-60.07,48.58-16.3,9.65,1.93-13.04.48-21.83,2.31-3.76,8.96-10.06.96-11.68-10.57-2.94-11.69,22.26-21.28,22.18-13.14-4.76,1.12-12.38,4.34-19.94.31-40.85,113.15-25.42,75.58-17.3Z" style="fill:#28283e; stroke-width:0px;"/><path d="M935.05,269.1c11.42-6.02,39.12,13.1,30.49,24.59-7.26-2.15-10.21,1.59-9.67,9.13-3.01,8.99,12.23,5.32,7.65,14.57-6.78,4.77-34.52,39.83-37.3,24.11,5.51-26.3,37.59-45.59,4.88-65.6-.69-2.26,1.5-5.57,3.96-6.8Z" style="fill:#171628; stroke-width:0px;"/><path d="M817.52,363.87c-14.16-15.51,22.29-29.48,27.58-44.28,15.92,4.93-12.3,43.98-27.58,44.28Z" style="fill:#666785; stroke-width:0px;"/><path d="M964.92,312.1c-19.69,8.57-10.53-11.29-13.51-22.42,9.2-11.48,26.5,13.44,13.51,22.42Z" style="fill:#010105; stroke-width:0px;"/><path d="M866.63,274.79c10.02.41-6.38,23.28-10.79,26.17-16.25,1.57,2.95-23.82,10.79-26.17Z" style="fill:#020205; stroke-width:0px;"/><path d="M843.45,345.4c.27-7.4,3.85-16.66,7.92-22.66,1.5,7.39-3.27,17.16-7.92,22.66Z" style="fill:#36354a; stroke-width:0px;"/><path d="M838.71,547.94c-40.43,27.21-100.28-21.8-132.22,33.48-9.83,16.72-25,30.44-46.06,26.39-9.24-3.62-22.88,8.6-29.82.3-3.04-3.91-8.33,3.35-12.11,4.05-9.86,4.65-20.8-2.87-31.1.95-19.64,8-31.92-.89-8.19-11.88,6.14-13.95,31.77-11.25,43.4-22.68,13.01-1.08,29.12,3.02,36.46-11.45-6.32,19.46-60.16,11.31-43.98-9.5,20.36-3.14,43.65-19.23,64.11-11.64,9.72,4.6,12.23-3.01,20.34-5.32,20.72,3.61,8.57-3.97,22.06-11.1,23.6,1.8,25.08-23.06,42.99-31.13,66.13-30.49,59.57-68.7,143.86-58.11,5.34-.07-4.85-6.12,2.15-8.21,11.15-3.81,23.6,3.71,26.18,14.14,37.45,9.11,12.5,56.5-9.41,70.8-15.17,10.85-91.34,60.82-54.19,9.47,6.61-4.44,19.67-7.02,16.08-17.47-7.85,12.54-18.85,7.6-32.08,16.9-1.91,12.19-2.13,23.05-18.46,22Z" style="fill:#151515; stroke-width:0px;"/><path d="M957.28,462.98c-37.71-50.43-39.27-20.13-73.48-40.22-8.06-14.85-2.23-31.05-2.27-46.53-1.99-8.93-13.99-9.18-21.91-9.77-6.85,1.65-23.09-14.57-9.01-12.75,30.58,27.33,73.52-11.5,90.13-15.63-30.14,40.82,41.13,43.08,18.18,86.74-.62,6.25,4.01,3.67,7.04,1.87,3.87,2.91-1.74,12.14,1.25,17.13,4.51,8.57-3.74,15.21-9.92,19.16Z" style="fill:#4f4d64; stroke-width:0px;"/><path d="M895.79,557.5c4.36-19.36,96.72-74.76,63.76-32.91-5.43,6.97-11.12-.19-18.53,9.9-7,10.32-39.1,37.5-45.23,23.01Z" style="fill:#595874; stroke-width:0px;"/><path d="M980.47,540.27c-13.84,19.85-26.73,9.16-21.57-11.59,1.76-8.57,8.94-10.51,16.54-9.51,16.01-10.93,13.02,13.89,5.03,21.09Z" style="fill:#4e4e6b; stroke-width:0px;"/><path d="M981.16,519.81c-1.17,7.27-7.71,4.34-12.5,3.08-5.08-.16-10.41,17.13-12.54,4.44-1.66-16.49,29.73-34.91,25.04-7.53Z" style="fill:#2c2d46; stroke-width:0px;"/><path d="M981.65,519.22c-3.82-4.85-9.69-16.59-.08-18.84,8.24-3.7,6.6,15.57.08,18.84Z" style="fill:#030308; stroke-width:0px;"/><path d="M258.02,94.05c19.24,11.49,69.34,23,13.77,27.74-40.3,4.8-49.75,65.35-21.16,89.18.89,8.44-19.79,2.25-6.17,13.69,15.07,9.94,18.62,23.03,22.24,38.58,17.54,10.31,34.64,21.24,51.75,31.53,7.04,1.69,14.18-3.22,21.02-.07,21.34,10.81.41,20.15-8.42,29.19,1.21,7.26,4.86,16.07-6.82,16.09-21.94,7.28-13.11-25.16-20.05-14.03-16.6,6.22-.18-22.34-14.35-26.98-27.72-16.64-49.8-39.88-76.94-55.67-2.1-6.97-.07-14.99-10.51-13-6.73,1.3-14.78-11.85-20.76-5.63,1.68,26.29,52.99,29.12,51.77,51.01-14.68,29.84-16.87-17.41-35.13-14.96-53.32-23.5-27.44-73.63-52.88-103.12-.7-30.34,42.86,13.83,53.03-6.37-4.18-42.08,8.14-79.31,59.6-57.18Z" style="fill:#7e849e; stroke-width:0px;"/><path d="M182.22,319.08c-22.15,8.52-15.85,7.81-21.52-14.44,10.21-10.2-5.16-24,1.78-33.4,12.31-4.6,68.84,25.12,58.47,37.89,16.41,7.67,44.23,45.68,9.85,46.12-.85-32.83-13.01-48.03-48.58-36.17Z" style="fill:#62617c; stroke-width:0px;"/><path d="M170.03,271.66c-14.64,6.99-27.87-12.58-8.89-20.82,2.25-5.24-3.33-6.08-7.29-7.67-11.14-6.48-7.8-13.86,5.11-10.14,17.8-10.11,24.54,20.6,40.33,24.89,8.92,2.8,28.11,13.05,16.4,23.2-16.21,5.55-31.06-16.8-45.66-9.47Z" style="fill:#61607e; stroke-width:0px;"/><path d="M360.77,622.14c-12.44-3.53-25.5-3.65-38.14-5.19-6.94-3.56-2.33-11.17-13.57-12.05-5.32-1.94-35.71-1.04-25.11-9.96,49.04,4.36,44.72-47.39,10.96-30.55-6.36,4.83.28,5.29,4.95,3.77,26.32,10.81-20.93,25.16-26.1,4.32-1.36-4.8,2.31-15.85-4.01-5.89,11.35,23.39-1.54,12.92-6.04,32.74-44.96-4.82-89.05-42.15-139.64-34.87-64.3-2.31-42.9-113.44,13.66-113.27,15.38-.83,25.47,14.74,5.96,18.55-8.64,7.08,14.74,7.08,18.85,7.02,31.19-2.25,79.38,11.31,95.32,39.24-9.38,12.67-37.31,3.55-51.3,15.21-5.82,4.6,3.47,2.04,5.84,2.68,9.01,6.98,21.66,13.41,27.19,24.42,10.51,10.55,3.47-11.45-9.47-13.29-6.39-30.19,40.93-10.11,56.24-7.9,19.75,7.32,38.06-6.68,58.22-5.76,23.17,11.01,44.77,34.2,67.08,48.72,10.15,8.64,36.98-1.25,37.94,14.37-6.03,7.26-.99,22.91-11.29,25.3-12.03-3.28-25.83-9.86-36.47-13.52-3.27,4.31-5.64,14.78-.15,19.33,4.98,4.39,11.29,12.9,1.25,15.63-15.02-1.5-25.21-18.24-42.16-19.04Z" style="fill:#151515; stroke-width:0px;"/><path d="M157.02,461.55c-53.19-29.89-71.19,44.44-77.81,80.59-22.75-8.3-36.86-38.67-20.82-59.03,6.33-8.66-1.51-7.49-2.04-14.41,3.76-16.9,29.97-29.29,45.9-27.84,12.23,9.71,75.01-9.41,54.77,20.7Z" style="fill:#54546f; stroke-width:0px;"/><path d="M138.81,564.37c30.74-12.76,54.91,12.92,78.57,18.98,15.24-3.6,34.39,19.71,8.98,13.45-11.34-2.42-6.94,3.07-14.05,6.78-38.07-7.72-9.14-30.59-68.91-6.75-14.17-1.53,20.52,1.65-14.7-12.28-10.05-7.67,15.98-5.14,10.11-20.19Z" style="fill:#5f5e79; stroke-width:0px;"/><path d="M136.92,411.8c18.69-15.55,53.84-2.85,52.32,22.37,2.74,4.61,19.7,14.52,8.6,15.98-8.07-8.38-23.68-9.19-24.39-20.47-17.14-1.2-25.97-5.69-36.54-17.88Z" style="fill:#595973; stroke-width:0px;"/><path d="M81.17,543.89c-4.09-9.22,3.21-65.96,10.76-49.3-4.67,10.75,7.57,68.6-10.76,49.3Z" style="fill:#151427; stroke-width:0px;"/><path d="M222.35,491.27c-17.48-4.29-37.03-10.06-53.56-15.58,8.61-11.26,22.76-18.5,32.3-3.53,5.23,6.4,23.58,11.08,21.26,19.11Z" style="fill:#1f1f36; stroke-width:0px;"/><path d="M194.32,465.45c-11.36,3.06-20.29,9.77-18.24-7.92,3.85-5.25,12.37-9.92,5.41-17.26,9.92-6.88,18.42,16.02,12.84,25.17Z" style="fill:#4d4b67; stroke-width:0px;"/><path d="M197.64,453.5c-7.78-1.46-10.28-12.64-18.33-14.82,3.08-4.91,26.1,7.48,18.33,14.82Z" style="fill:#26233e; stroke-width:0px;"/><path d="M164.92,477.08c-2.84,3.51-8.3,2.68-11.71.34.11-2.02,9.36-.87,11.71-.34Z" style="fill:#1f1f36; stroke-width:0px;"/><path d="M152.43,476.5c-3.31,1.88-19.59-.18-12.44-3.88,3.6,2.82,9.01,1.23,12.44,3.88Z" style="fill:#1f1f36; stroke-width:0px;"/><path d="M121.02,564.39c4.25-.53,9.22-.37,13.5-.13-4,1.52-9.74,2.48-13.5.13Z" style="fill:#5f5e79; stroke-width:0px;"/><path d="M740.65,134.48c-1.11-1-4.12-3.79-1.72-4.54,31.51-18.42,21.98,24.56,1.72,4.54Z" style="fill:#666480; stroke-width:0px;"/><path d="M691.42,656.77c3.69.39,14.08-4.83,12.99,1.85-1.36,3.93-15.86,7.98-15.02,12.24,6.86,6.47,24.04-3.63,31.1-.28,3.1,7.19-5.13,9.86-12.21,11.05-19.6,3.49-10.83-2.95-18.3-6.49-38.73-2.28-79.03,3.31-115.4,12.07-19.78,17.42-30.52,5.25-33.38-16.45-6.69-6.71-8.28-4.7-8.07-15.41-5.92-12.5,7.31-19.16,8.77-28.71-5.73-5.08-6.32.18-7.55,5.61-7.72,13.49-14.86-7.31-12.42-14.94-1.3-13.36,16.75-20.06,18.91-27.66-5.23.81-14.44-1.54-11.85-9.07,5.89-14.7,31.13-17.37,45.78-19.32,14.34-12.7,33-25.11,53.17-20.88,3.34,10.8-22.04,15-18.57,30.27,2.69,31.16-52.21,11.01-55.51,39.36,4.36,5.29,4.6,10.51,4.38,17.55,2.29,13.61,12.04.25,16.77,10.94,6.19,16.14,14.28-1.68,22.61-5.66,17.14-8.08,39.67-27.16,59.19-21.12,16.55,11.82-9.16,26.66-20.72,29.58,14.82-13.93,61.73-2.73,32.39,15.72,4.11,4.27,16.53-1.5,22.94-.25Z" style="fill:#7d819d; stroke-width:0px;"/><path d="M535.39,662.87c27.22,9.02,1.62,36.79,25.41,39.83-9.54,1.35-98.15,11.64-73.5-4.48,29.22-2.13-6.45-52.87,48.1-35.35Z" style="fill:#6a4a00; stroke-width:0px;"/><path d="M693.95,689.97c-26.73,3.8-56.26,3.06-83.04,1.08,24.4-10.47,58.24-9.38,83.04-1.08Z" style="fill:#53536d; stroke-width:0px;"/><path d="M884.12,704.09c-7.38-1.08-56.12-6.75-25.83-8.17,17.62,8.51,37.23-.39,54.25,2.49-5.07,5.05-20.28,3.88-28.42,5.68Z" style="fill:#2e2d44; stroke-width:0px;"/><path d="M516.07,662.35c-16.81,3.56-8.6,22.19-14.22,31.81-66.51,27.18-106.78-18.42-168.77-14.92,6.11-20.07,40.38-12.16,56.29-25.33,12.93-4.94,3.25,4.89,20.05,1.71,9.31-1.37,21.98,5.89,32.08,3.67,7.42-5.83,21.17,7.04,21.75.32-24.12-20.35-18.48-29.15-3.82-47.69-12.1-21.3,17.98-16.71-10.25-40.96,5.57-18.62,30.68-6.61,34.61,7.63-1.67,8.32-4.89,16.32,1.31,24.32,21.95,14.28,34.81,32.63,30.95,59.45Z" style="fill:#7d829d; stroke-width:0px;"/><path d="M300.98,693.63c6.3-10.04,27.29-1.93,36.56-6.22,16.7-5.24,44.04-15.01,56.28,1.08-26.16,10.23-64.31,3.76-92.84,5.14Z" style="fill:#100f1d; stroke-width:0px;"/><path d="M394.44,691.72c-11.05-18.81-42.69-2.92-59.82-3.26,10.29-31.53,87.06,4.14,59.82,3.26Z" style="fill:#5f627d; stroke-width:0px;"/><path d="M474.14,701.13c14.16-9.7,34.24-4.29,28.96-28.3,2.4-7.51.76,15.41,1.28,18.74,2.92,11.6-28.15,16-30.23,9.55Z" style="fill:#6c6d89; stroke-width:0px;"/><path d="M364.38,707.24c-5.45-.46-13.99,1.36-18.71-1.21,2.39-4.15,32.75-2.29,18.71,1.21Z" style="fill:#4d4e64; stroke-width:0px;"/><path d="M299.39,693.95c3.72-.24,24.17-3.81,18.42.7-3.38,2.5-21.93,3.64-18.42-.7Z" style="fill:#5c5b79; stroke-width:0px;"/><path d="M473.79,700.3c19.7,6.97-16.56,3.08-8.65-.37,2.74-.33,6.16-.71,8.65.37Z" style="fill:#47455f; stroke-width:0px;"/><path d="M184.43,684.35c19.2-10.72,38.11-1.4,58.68,1.34-18.23-.44-41.73.78-58.68-1.34Z" style="fill:#4e4c67; stroke-width:0px;"/><path d="M350.15,677.68c-2.85,12.08-48.84,7.94-23.23-1.06,7.57,2.66,15.76,1.85,23.23,1.06Z" style="fill:#747894; stroke-width:0px;"/><path d="M320.56,683.97c29.71-.31-5.97,3.18-15.39,1.39,3-2.67,10.85-.76,15.39-1.39Z" style="fill:#5f627d; stroke-width:0px;"/><path d="M164.58,400.27c-14.15-2.33-21.61-45.59-1.65-35.68,11.23,11.48,22.02,12.64,33.82,2.33,9.1-5.14-2.31-10.35-6.38-15.67-7.46-9.99,3.39-32.58,17.16-28.79,10.82,1.68,9.13,11.49,6.58,19.29-1.21,10.12,7.64,20.17,5.66,30.54-5.89,11.08,3.12,18.21,1.6,29.6.52,4.78-6.94,23.48-11.43,13.48.01-9.7-15.95-31.23-25.83-21.96,1.76,13.58-11.11,9.36-19.54,6.86Z" style="fill:#62617c; stroke-width:0px;"/><path d="M194.96,326.44c4.45,19.27-18.22,11.75,9.48,34.42,3.23,9.05-21.85,21.61-28.94,16.77-7.35-5.39-28.67-14.58-19.03-25.3,5.62-7.62,11.85-1.82,18.44-.12,2.9.3,3.3-.95,1.1-2.53-14.73-10.27,6.11-29.52,18.96-23.24Z" style="fill:#595973; stroke-width:0px;"/><path d="M194.13,324.6c-35.67-18.69,49.04-17.26,37.75,9.91-14.57,31.49,12.9,63.21,0,94.92-10.2,18-24.77-12.7-10.08-19.59.37-17.61-3.29-35.18-7.76-52.15-8.61-19.42,13.73-32.33-19.9-33.1Z" style="fill:#696a86; stroke-width:0px;"/><path d="M198.22,427.44c10.9-19.43,40.36,29.94,35.38,45.54,6.83,5.48,17.73,25.9.34,15.6-11.21-3.65-11.65-19.66-18.64-24.07-4.26-1.2-8.93-3.28-8.69-8.47,3.33-10.85-2.67-19.31-8.39-28.6Z" style="fill:#676885; stroke-width:0px;"/><path d="M228.12,449.42c-5.95-21.19-69.88-44.21-59.69-52.6,12.99,8.22,37.42-7.18,44.17,9.35-9.19,17.65,30.07,34.19,15.52,43.25Z" style="fill:#595973; stroke-width:0px;"/><path d="M236.13,489.76c8.71,1.41,25.07,7.85,23.36,18.01-10,7.55-30.51-14.72-41.71-20.13-2.39-3.06-17.72-11.05-15.94-14.34,11.66.56,21.82,17.19,34.3,16.46Z" style="fill:#504f68; stroke-width:0px;"/><path d="M197.99,428.51c-1.01,2.52-6.1,3.57-6.28.78-.01-3.11,4.94-1.75,6.28-.78Z" style="fill:#676885; stroke-width:0px;"/><path d="M361.2,621.75c16.77-7.62,31.02,18.12,41.47,17.46,8.79-1.98,7.5,6.25-.34,5.67-11.04-1.27-37.7-14.33-41.13-23.14Z" style="fill:#41415b; stroke-width:0px;"/><path d="M276.16,583.96c-26.36-18.93,2.37-37.65,6.09-20.39-17.59-3.08-.64,18.37,8.39,19.79-1.57,1.26-11.25,1.44-14.48.6Z" style="fill:#37364a; stroke-width:0px;"/><path d="M643.68,52.69c10.27-11.71,49.09-15.67,47.11,6.57-14-2.24-56.73,26.19-47.11-6.57Z" style="fill:#4d4966; stroke-width:0px;"/><path d="M667.45,58.49c34.83-15.34,35.97,18.39,30.22,39.56,2.97-17.51-29.73-17.66-11.39-26.06,4.22-8.88-20.95-5.95-18.83-13.5Z" style="fill:#312b4c; stroke-width:0px;"/><path d="M674.03,42.33c-8.11,3.27-16.99,14.18-26.13,9.85-6.57-1.36-25.08-12.95-18.75-18.19,13.97,6.93,30.94,5.35,44.88,8.34Z" style="fill:#656684; stroke-width:0px;"/><path d="M706.85,109.04c-2.2,4.31,5.99,17.45,1.25,14.84-10.01-1.12-15.74-29.04-1.25-14.84Z" style="fill:#585172; stroke-width:0px;"/><path d="M322.54,116.4c-11.04,3.21-23.22,4.55-34.26,8.13-7.81-10.82,27.03-11.39,34.26-8.13Z" style="fill:#51506c; stroke-width:0px;"/><path d="M396.68,19.8c6.6-4.71,17.97-7.6,25.7-4.24-.64,2.51-23.66,6.03-25.7,4.24Z" style="fill:#151226; stroke-width:0px;"/><path d="M313.95,113.31c-2.56-.76-9.63-3.49-6.18-6.91,7.54-3.02,22.31,7.87,6.18,6.91Z" style="fill:#100f1f; stroke-width:0px;"/><path d="M389.37,53.17c3.51-6.01,11.66,1.61,3.56,2.85-1.38-.25-4.21-1.06-3.56-2.85Z" style="fill:#14092f; stroke-width:0px;"/><path d="M300.77,104.29c.28-3.43,4.51-9.08,8.12-5.67,2.24,4.58-4.72,6.89-8.12,5.67Z" style="fill:#7e849e; stroke-width:0px;"/><path d="M688.97,656.42c-12.64,11.65-47.66,1.88-17.64-4.2,11.4-24.19-32.87-11.35-43.52-5.34-9.76-2.78,53.77-25.47,20.75-35.19,77.6-23.84,65.65-65.81,165.19-50.28,19.28-2.97-5.18,28.94,15.92,16.32,10.49-3.92,35.02-14.9,40.75-2.29,10.88,18.66.03,15.91-16.14,19.9-8.72,8.98-77.06,14.91-41.42-2.4-16.24.06-77.74,8.32-36.87-12.34-4.73,10.11-68.89,13.47-61.54,31.41-3.07,10.23-39.03,22.13-25.48,44.42Z" style="fill:#747794; stroke-width:0px;"/><path d="M863.28,542.75c-1.1,6.31,6.43,4.63,9.3,7.42-1.57,10.82-32.47,15.56-37.04,5.78,2.06-12.01,12.65-9.44,17.94-17.47,1.95-25.58,17.09-15.82,9.79,4.27Z" style="fill:#636480; stroke-width:0px;"/><path d="M456.9,603.84c33.27,18.15-41.34,15.6,11.91,56.46,6.76,3.98,2.62,6.01-3.89,6.17-10.36-3.37-101.04-9.6-42.96-15.27,14.2-5.24,11.42-46.91,34.94-47.36Z" style="fill:#6a6b89; stroke-width:0px;"/><path d="M438.76,620.43c4.47,10.37-9.98,26.65-18.78,15.25-1.28-1.36-4.69-7.48-4.45-2.44.43,7.55.65,12.38-9.44,12.14-12.43.26,4.17-2.77-.19-9.89-28.98-21.75,19.9-26.42,32.86-15.06Z" style="fill:#5a5a76; stroke-width:0px;"/><path d="M252,678.7c8.89-15.76,46.16-3.46,64.84-7.18,16.06,14.18-55.56,13.05-64.84,7.18Z" style="fill:#020205; stroke-width:0px;"/><path d="M413.49,642.34c-6.17-24.28.37-21.8,11.85-5.27,9.12-.11,9.83,7.74,8.27,14.86-7.42,7.11-19.58.3-20.12-9.59Z" style="fill:#777a98; stroke-width:0px;"/><path d="M311.29,679.59c-6.28-4.29,4.16-4.66,6.39-5.99-11.76-5.18-40.05.36-57.02-1.9,18.59-.57,49.89-5.37,69.8.15,15.64,6.41-13.74,13.27-19.16,7.74Z" style="fill:#424155; stroke-width:0px;"/><path d="M413.59,642.48c7.31,4.3-2.9,8.95-4.59,2.81.71-1.26,3.17-2.79,4.59-2.81Z" style="fill:#6a6b89; stroke-width:0px;"/><path d="M688.29,652.05c-16.7,9.91-6.2-7.68-4.06-16.2,4.78-12.6,22.87-15.21,26.56-21.84,3.65-7.67-14.03.19-5.1-8.23,22.74-16.91,54.52-16.12,78.35-32.66,16.52.8-23.25,14.98-20.56,18.75,13.07,1.99,65.43-9.01,60.8,2.84-48.84,16.66-105.84,5.27-135.99,57.33Z" style="fill:#7d819d; stroke-width:0px;"/><path d="M261.42,86.87c1.94-7.27,20.11-2.6,23.95.82,4.95,11.37-21.5,6.49-23.95-.82Z" style="stroke-width:0px;"/><path d="M119.39,285.64c.39,6.97-11.74,9.37-15.94,4.57-7.16-13.41,10.94-14.98,15.94-4.57Z" style="stroke-width:0px;"/><path d="M581.29,231.84c-2.9,5.69,3.08,6.45,3.32,11.6-12.06,17-17.2-7.04-18.35-17.67-9.31-11.33-25.5-9.41-8.69-26.6,16.9-30.59,38.05-16.44,19.47-1.09,5.37,10.68,7.8,22.17,4.25,33.75Z" style="fill:#787895; stroke-width:0px;"/><path d="M579.36,223.25c4.42-8.15,18.14-30.76,28.78-21.39,2.04,11.2-11.22,19.08-16.12,28.3-5.15,4.33-20.04,1.83-12.66-6.91Z" style="fill:#5f5d7a; stroke-width:0px;"/><path d="M605.7,207.69c-7.99-18.12,31.98-15.6,36.74-1.02,2.19,1.69,12.6,1.31,7.18,5.33-15.32,2.96-29.01-12.93-43.92-4.31Z" style="fill:#737391; stroke-width:0px;"/><path d="M732.51,219.17c2.95-8.83,2.54-35.69,14.8-17.25,6.92,11.4-10.19,42.89-14.8,17.25Z" style="fill:#37364f; stroke-width:0px;"/><path d="M638.84,211.59c7.45-2.35,19.54-3.77,27.3-2.16-2.87,7.7-28.34,19.84-31.51,8.61,2.34-1.82,6.06-3.15,4.21-6.45Z" style="fill:#514f69; stroke-width:0px;"/><path d="M773.64,348.68c-2.08,10.59-39.58,34.27-23.45,13.13,2.19-1.48,24.29-20.51,23.45-13.13Z" style="fill:#1b1b2d; stroke-width:0px;"/><path d="M693.63,389.45c14.41,10.04.17,34.58-8.63,44.5.91,21.81,26.16-13.05,34.89-11.42,8.06,2.61,16.39,2.87,24.61,2.89,11.61,6.53-2.08,31.4-12.54,34.75-21.86,3.98-42.61-2.72-57.55,18.84-26.27,17.39,2.69-91.83,19.21-89.56Z" style="fill:#9397b0; stroke-width:0px;"/><path d="M744.83,427.06c-59.04,2.17-8.79-3.63-55.91,17.99-23.67,6.31,4.4-34.48,15.66-34.57,16.18,5.68,29.52,5.37,43.58-6.17,4.63-15.55-9.96-36.15,13.15-46.9,8.29-4.85,4.43,3.11-.15,6.04-31.75,34.11,44.37,45.34,2,77.6-27.46,12.22-1.27-26.69-18.33-14Z" style="fill:#6b6c8a; stroke-width:0px;"/><path d="M694.69,389.04c-5.67,9.66-12.84,14.42-9.63,25.18-2.79,5.16-12.86,13.57-13.63,23.71,1.75,13.63-7.65,14.31-12.07,2.29-7.24-15.21,19.95-23.21,2.7-36.59-5.02-6.55-17.46,6.08-19.89-3.66,55.8-38.73,1.82-24.49,21.66-56.69,9.72-1.15,3.97,24.16,17.61,4.76,12.02-10.79,13.2,8.37,9.53,16.03.83,8.43,10.78,15.65,3.74,24.97Z" style="fill:#a8adc0; stroke-width:0px;"/><path d="M733.98,412.72c-1.08,15.77-42.02.3-28.13-10.33,8.86-.77,18.79,9.91,28.13,10.33Z" style="fill:#5e5d75; stroke-width:0px;"/><path d="M707,359.28c2.56,3.09-6.17,19.29,3.85,16.48,3.32,2.03-5.01,10.17-.47,12.89,18.83,21.46-26.7-4.41-3.38-29.37Z" style="fill:#68687d; stroke-width:0px;"/><path d="M752.66,400.1c1.24,5.98-6.09,10.32-11.8,8.23-.04-2.72,9.03-8.18,11.8-8.23Z" style="fill:#383851; stroke-width:0px;"/><path d="M624.5,260.09c4.05,17.69,12.9,25.19,24.07,37.19,3.3,13.45,9.27,22.12,20.16,27.05.17,7.3-34.59,27.24-35.89,18.24-3.07-5.67-12.74-13.98-1.23-16.64,16.36-.32,10.07-28.63-.57-33.23-13.77-1.79-14.3-12.76-15.96-24.09-4.45-10.05-25.19-.13-31.32-9.62-4.5-20.95,40.07-19.04,40.74,1.11Z" style="fill:#a6a8be; stroke-width:0px;"/><path d="M624.78,260.7c-6.37-7.4-21.44-12.69-22.49-21.48-1.26-10.03,13-23.06,18.47-14.54-21.77,20.51,37.52,10.2,26.38,33.01-2.37,10.61-15.36,4.7-22.36,3.02Z" style="fill:#7f829f; stroke-width:0px;"/><path d="M635.83,346.7c10.06-26.84,8.76,11.99,28.27-21.7,14.17-.51-.86,24.62-4.49,30.69-6.6,14.87-32.68,7.81-23.78-8.99Z" style="fill:#bcbfd4; stroke-width:0px;"/><path d="M620.94,222.41c-19.84,2.56-6.38,25.57-29.19,29.41-36.93,2.44-8.08-3.86-13.48-14.29-.29-2.58,2.52-1.97,5.04-1.87,18.29,8.41,21.43-21.33,37.63-13.24Z" style="fill:#676782; stroke-width:0px;"/><path d="M615.79,202.85c3.83-7.4,21.88,3.97,15.81,8.53-11.04,2.27-16.72,5.38-15.81-8.53Z" style="fill:#241e36; stroke-width:0px;"/><path d="M606.74,208.34c17.53-15.03.1,12.84-8.74,11.75-4.12-4.48,6.5-8.43,8.74-11.75Z" style="fill:#1a1828; stroke-width:0px;"/><path d="M751.63,175.59c-13.49,8.26-4.91,14.46.05,22.38-4.36,10.82-16.68.77-18.9-6.67-8.45-21.89,51.65-41.76,18.86-15.71Z" style="fill:#4b4b60; stroke-width:0px;"/><path d="M758.93,197.48c3.59-5,13.88-7.53,19.9-7.11,2.82,4.78-12.4,8.87-13.98,14.86-5.99,10.53-6.7-2.25-5.91-7.75Z" style="fill:#3a3948; stroke-width:0px;"/><path d="M847.41,352.32c.72,12.27-16.94,6.05-8.21-4.42,3.9-5.25,6.31.98,8.21,4.42Z" style="fill:#36354a; stroke-width:0px;"/><path d="M745.84,426.44c-2.78-17.54,16.45-7.33,7.57,3.31-9.24,12.37,10.02,8.34,12.69,18.42,6.22,3.78,10.14-5.3,12.7-9.63,8.94-14.93,27.56-16.63,42.01-23.77,15.63-3.35,34.26-56.21,46.98-26.38-20.81,4.44-16.53,25.92-33.89,35.61-90.7,29.44,6.7,61.76-125.83,75.11-25.68-12.17,39.75-22.2,31.47-38.6-6.98-10.9,7.38-22.43,6.3-34.07Z" style="fill:#7e829d; stroke-width:0px;"/><path d="M866.87,385.45c-21.51-8.75-34.53,19.22-51.91,27.37-5.1,2.9-25.81,3.56-25.18-4.75,2.92-10.51,22.64.99,29.38-18.3,17.42-18.81-22.75-15.15,12.52-40.04,12.62-12.34,1.64,16.62,42.09,15.44,22.66,2.07,12.57,44.28-6.89,20.29Z" style="fill:#53526d; stroke-width:0px;"/><path d="M819.62,390.6c-.86,12-16.91,12.7-24.72,14.23-4.17,1.65-2.64,4.46,1.06,5.33,19.96,5.78,31.86-11.67,44.9-23.12,12.73-6.37,5.28,5.97,1.66,11.7-18.05,29.7-54.26,22.85-76.68,56.27-1.23-9.05,17.54-20.75,16.72-34.4-3.03-26.77,22.97-17.17,37.06-30.02Z" style="fill:#6b6c8a; stroke-width:0px;"/><path d="M819.13,375.05c8.06-11.48,19.18,18.23,3.81,15.01-2.58-3.63-3.25-10.64-3.81-15.01Z" style="fill:#04030a; stroke-width:0px;"/><path d="M868.58,385.03c10.6-.8,16.68,12.24,15.46,21.6,14.05,29.44-23.98,26.56-42.36,33.02-32.92,8.21,1.6,21.81-37.12,41.61-13.9,4.09,2.98-13.64,2-19.03-3.54-9.72-3.51-22.73,9.6-26.03-1.82-12.59,18.88-12.11,24.23-22.44,6.98-18.3,8.75-25.17,28.19-28.73Z" style="fill:#636381; stroke-width:0px;"/><path d="M808.75,465.92c-6.54,23.99-41.4,22.89-53.86,43.36-14.5,17.94-29.77,11.84-33.96-8.39-3.58-2.33-11.39-3.76-8-9.07,18.98-6.52,45.25,5.74,61.94-9.9,13.02-18.41,20.65-71.96,52.44-45.39-22.07,6.69-40.27,5.43-18.55,29.39Z" style="fill:#747794; stroke-width:0px;"/><path d="M846.96,435.19c35.95-12.28,88.58-24.42,106.97,19.78,5.8,11.17-16.45-5.22-21.13-5.51-4.51-1.45-3.16-3.98-1.41-7.3.36-5.83-17.93-9.14-21.7-7.08,27.7,17.02-49.38,2.55-66.96,12.87-13.82,2.57-1.74-10.88,4.22-12.76Z" style="fill:#2a2a43; stroke-width:0px;"/><path d="M815.86,561.11c-5.29,7.55-17.61,4.85-25.47,2.04-36.22-7.29-66.52,6.25-93.43,28.5,17.02-48.66,83.81-54.77,118.9-30.54Z" style="fill:#5e5e79; stroke-width:0px;"/><path d="M662.56,605.56c-16.03,4.06-37.66,20.92-51.14,22.02,3.1-19.23-25.34,4.46-33.14-4.9-14.02,1.96-25.11,11.71-21.66-12.62,1.04-3.94,9.94-6.53,11.87-2.25-.18,3.4-2.74,6.23,2.71,6.08,15.96-7.09,31.64-4.05,46.92-4.4,4.11-3.05,21.32-14.37,16.24-2.78,7.62,5.17,20.99-9.5,28.21-1.15Z" style="fill:#62617c; stroke-width:0px;"/><path d="M559.37,608.84c-5.45,7.66,1.07,15.51,4.17,22.42.65,22.17-12.8-3.97-8.84-13.28-5.59-5.5-12.17-7.5-3.69-15.2,18.43-20.18,46.29-11.24,57.11-23.72,4.53-5.05,16.81-2.06,10.19,5.4-16.27,14.37-43.22,8.44-58.94,24.38Z" style="fill:#727490; stroke-width:0px;"/><path d="M609.38,563.54c-5.77-12.43,16.29-16.31,23.49-21.91,7.85-8.61,39.15-15.62,39.06.03-18.53,13.29-42.76,12.8-62.55,21.88Z" style="fill:#666784; stroke-width:0px;"/><path d="M862.7,542.24c-4.96-3.47-3.42-10.81-1.55-15.64-3.1-1.06-5.58,7.28-6.97,9.62-12.52-17.87,22.64-16.96,30.43-25.85-13.02-25.37,22.02.49,3.95,11.4-17.6,4.68-17.38,16.53-25.86,20.47Z" style="fill:#504e65; stroke-width:0px;"/><path d="M663.42,545.43c1.22-11.18,75.43-26.42,56.09-10.76-3.76,4.85,1.96,3.35,3.98,4.8.97,2.24-3.97,4.82-5.8,5.37-18.99-4.39-21.55,3.14-36.55,10.67-1.02-10.05-10.94-6.22-17.73-10.07Z" style="fill:#211f34; stroke-width:0px;"/><path d="M722.33,530.92c-12.58,2.59-33.02-10.84-10.74-14.28,8.4-1.12,16.63,1.44,24.86,1.57,6.89-.24,17.52-6.87,9.95,5.88-4.74,8.45-15.52,7.85-24.07,6.82Z" style="fill:#39384d; stroke-width:0px;"/><path d="M700.02,575.81c-7.58,7.95-18.45,21.07-28.83,23.5-12.51-13.74,19.14-27.41,28.83-23.5Z" style="fill:#4e4e62; stroke-width:0px;"/><path d="M847.21,434.84c-.18,9.73-15.26,15.68-21.53,22.86-19.99-6.53,13.23-24.95,21.53-22.86Z" style="fill:#44425b; stroke-width:0px;"/><path d="M609.06,564.28c6.58.2,17.27,7.32,13.42,15.02-8.47,7.43-25.59-8.56-13.42-15.02Z" style="fill:#5e5e7a; stroke-width:0px;"/><path d="M559.44,606.91c1.71-9.98,20.1-12.48,26.86-5.95-4.73,4.08-22.28,11.81-26.86,5.95Z" style="fill:#37344b; stroke-width:0px;"/><path d="M621.49,579.27c-.1-11.12,20.7-3.72,27.12-2.12-4.99,7.4-19.64,4.02-27.12,2.12Z" style="fill:#14131f; stroke-width:0px;"/><path d="M759.83,501.1c.4-4.86,9.12-4.37,12.51-6.73,6.38-6.47,13.13-16.1,23.77-12.05-12.42,4.37-22.04,20.94-36.28,18.78Z" style="fill:#636381; stroke-width:0px;"/><path d="M646.04,578.94c-3.43-.29,2.41-3.73,3.17-4.56,5.6-4.39,6.76-11.97,13.93-13.32,16.47-2.66-10.52,19.1-17.1,17.88Z" style="fill:#383a4a; stroke-width:0px;"/><path d="M169.92,270.47c-11.16-25.86,85,44.83,61.07-13.13-3.45-23.15,32.28,25.01,41.75,26.42,19.21,9.49,31.85,19.26,26.26,39.45,11.26,7.62,13.65,45.51-5.47,28.14-4.34-8.81,5.38-26.47-13.19-22.84-69.83,14.29-25.2-17.16-110.42-58.05Z" style="fill:#787c99; stroke-width:0px;"/><path d="M320.16,296.27c-16.44,5.07-23.54-18.57-38.35-22.48-9.05-2.53-31.45-11.06-17.41-21.84,4.94-2.45,16.58.24,19.33-6.25-8.39-6.43-48.63-32.6-14.04-32.4,10.17-.75,14.56,4.34,9.64,13.36,4.26,10.99,30.19,8.37,41.01,11.09,14.63-13.13,36.13-7.44,53.76-4.93,12.37,7.43-1.92,16.24-11.03,12.64,2.9,8.65-9.39,8.02-12.9,12.07,13.88,45.33-3.42,18.43-30.01,38.75Z" style="fill:#6c6f8d; stroke-width:0px;"/><path d="M304.04,354.47c-2.04-6.13-8.58-13.59.8-16.26-1.84-5.02-8.09-33,4.04-21.6-.44,13.51,1.04,25.35,17.66,19.1,9.61-1.72-3.43-9.16-.21-13.33,14.58-10.42,38.17-.92,37.26,17.8-.01,9.81-10.19,8.36-16.64,5.72-30.95,6.48,6.44,33.99,4.93,52.15-3.52,5-9.94-1.43-14.87-.59-10.23,3.67-13.25-7.66-17.67-14.58.16-15.2-7.37-19-15.29-28.43Z" style="fill:#8185a1; stroke-width:0px;"/><path d="M228.31,251.08c7.82,1.98,19.61,35.2,6.26,26.27-8.03-14.55-88.71-59.23-47.45-57.69,18.67,15.48,18.34-4.3,29.57,13.86,1.72,2.65,2.01,5.54-1.69,5.64-1.66,4.84,9.59,9.36,13.31,11.92Z" style="fill:#6f718e; stroke-width:0px;"/><path d="M297.98,116.36c-25.05,13.37-90.35,49.26-35.22,69.07,20.72,7.21-3.2,42.26-4.79,15.06,1.59-5.76-18.17-15.72-14.46-5.1,1.51,3.38,5.62,7.97,5.22,11.7-47.16-23.5-3.14-106.71,49.25-90.74Z" style="fill:#6c6f8d; stroke-width:0px;"/><path d="M362.11,340.27c-11.99-35.27-56.79-1.35-16.8-33.46-1.83-6.59-1.25-18.05,8.31-11.55,3.88,3.29,3.25,11.21,9.24,11.96,8.79-.11,15.38-15.14,25.34-8.25,10.49,8.11,5.69,18.95,1.17,28.71,3.23,26.66-.58,26.66-16.6,6.83-6.63-14.97-5.22,5.97-10.66,5.75Z" style="fill:#9c9fb6; stroke-width:0px;"/><path d="M256.33,215.04c13.12,29.92,68.73,28.75,4.58,42.93-.93-8.08,2.34-30.93-15.16-34.32-27.64-6.35-.72-20.51,10.58-8.61Z" style="fill:#787c99; stroke-width:0px;"/><path d="M256.83,215.94c-21.93-12.25-26.74-51.83.51-15.49,1.77,3.76,2.86,10.62,8.11,6.04,6.88-2.5-.93-17.76,6.71-15.91,19.72,15.17,5.85,31.05-15.33,25.36Z" style="fill:#24223d; stroke-width:0px;"/><path d="M240.37,224.12c1.82-13.15,25.02,8.25,27.59,16.47-9.13,6.85-22.14-9.81-27.59-16.47Z" style="fill:#6c6f8d; stroke-width:0px;"/><path d="M351.68,294.78c-5.86,7.89-12.74,1.37-20.07,1.36-34.24,11.03,15.7-30.12,20.07-1.36Z" style="fill:#8185a1; stroke-width:0px;"/><path d="M319.09,303.41c4.73-.6,13.53,5,6.07,8.24-5.87,3.47-16.08-7.39-6.07-8.24Z" style="fill:#8185a1; stroke-width:0px;"/><path d="M271.95,270.1c4.68-2.01,19.25,1.39,15.45,7.19-5.26-1.28-11.56-3.69-15.45-7.19Z" style="fill:#787c99; stroke-width:0px;"/><path d="M216.11,266.73c-4.43-1.29-8.85-4.55-13.09-6.71,1.81-2.77,12.44,2.38,13.09,6.71Z" style="fill:#787c99; stroke-width:0px;"/><path d="M319.93,379.28c26.73,20.16,14.08,63.04-16.62,69.85-15.04.99,3.24,2.75.4,12.18-1.75,9.56-15.22,12.29-16.1,23.22.34,18.23,60.26,43.32,23.91,11.66-3.61-16.6,17.48-8.98,19.99,2.11,8.86,14.57,37.08,17.14,36.95,31.21-23.22,13.69-58.13-5.58-81.2-17.53-6.86-4.67,2.28,8.99,3.77,10.49,53.31,12.2-25.62,38-33.8-4.96.02-13.1-7.05-17.8-16.21-25.43.95-10.31,16.16-1.13,21.41-6.59,5.94-7.77-1.74-10.49-8.96-8.45-12.78.21-9.57-9.98-12.53-18.45-3.8-10.42-15.82-17.07-12.87-28.26,11.21-30.48-12.42-60.34-.86-89.76,6.5,17.53,16.57.54,39.27,19.07,21.61,13.82,4.38,51.44-15.36,53.09,1.7.59,4.65-.75,6.75-1.15,11.43-4.1,14.36,8.46,23.01,11.46,9.94-7.43,2.31-26.23,23.1-12.09,37.19,7.65-14.77-41.01,15.94-31.69Z" style="fill:#757794; stroke-width:0px;"/><path d="M266.16,406.12c37.69-63.76-29.3-34.61-21.13-64.69,17.27-14.26,97.59,20.72,66.59,42.21,14.53,14.15,5.85,44.8-15.61,27.47-5.14-4.45-5.97,1.37-9.4,3.82-3.16,1.67-4.67-2.78-6.94-4.61-3.13-3.6-13.27,1.81-13.51-4.2Z" style="fill:#151515; stroke-width:0px;"/><path d="M298.23,352.56c-10.47.57-20.4-6.48-29.18-11.72-6.73-6.79-38.1,2.24-31.89-12.04,17.22,5.75,55.16-20.26,59.55,7.35-2.62,7.16-3.36,10.06,1.52,16.4Z" style="fill:#696a86; stroke-width:0px;"/><path d="M224.87,304.78c4.39.28,15.22,24.02,5.74,15.29-9.49-7.97-36.22-15.23-5.74-15.29Z" style="fill:#696a86; stroke-width:0px;"/><path d="M247.31,338.22c4.62-3.86,16.85-7.35,19.21-.1-8.18,2.14-22.65,13.78-19.21.1Z" style="fill:#10101e; stroke-width:0px;"/><path d="M221.09,502.57c1.12,1.89,2.77,12.69-2.13,9.34-39.59-30.78-20.78,39.51-41.96,43.78-30.23-2.15-61.53,8.21-78.29-23.06-3.79-9.95-3.36-52.57,13.84-37.93,13.2.31-.02-18.47,6.55-23.86,5.86-5.77,7.28,4.96,8.96,8.74,8.48,21.18,58.78-7.52,59.71,16.42.31,8.67,7.85,3.83,7.94-2.18,6.53.64,16.62,9.49,25.37,8.74Z" style="fill:#151515; stroke-width:0px;"/><path d="M294.76,541.65c3.94-2.69,7.16-7.5,10.57-11.33,3.76-10.36-24.81.69-22.42-16.9-23.31-25.38,20.8,3.76,29.86,6.69,21.78,9.95,34.47,7.46,55.83,9.75,15.51,4.68,30.72,12.75,47.82,9.18,6.32.04,13.17,4.37,10.52,11.4-2.58,13.47,57.98,29.95,33.83,44.56-21.77-11.75-62.1-10.64-72.84-33.56-13.22-2.13-23.02-9.11-30.93-19.95-16.31-19.54-42.42,5.27-62.25.15Z" style="fill:#6d6d8a; stroke-width:0px;"/><path d="M258.44,516.52c7.7,5.11,9.2,16.54,19.74,18.78-7.51,6.43-56.21-18.19-46.03,10.39,13.33-2.54,22.3,9.54,5.96,13.77-6.14-9.56-24.33-11.35-22.95-25.59,6.51-16.86,29.92-14.72,43.29-17.35Z" style="fill:#57556d; stroke-width:0px;"/><path d="M448.9,588.4c31.5-13.04-6.65,47.57-8.47,15.1,2.56-5.21,6.8-9.23,8.47-15.1Z" style="fill:#595876; stroke-width:0px;"/><path d="M399.83,572.38c5.8.6,52.05,12.75,41.54,16.07-14.12-.03-39.12-.7-41.54-16.07Z" style="fill:#26253d; stroke-width:0px;"/><path d="M236.42,520.37c-3.43,5.84-12.79,5.18-17.22,12.1-2.07,4.65-5.08,4.22-9.37,4.37-4.94,5.73-14.31,3.22-11.75-5.08,10.12-8.25,25.56-10.16,38.34-11.38Z" style="fill:#302f41; stroke-width:0px;"/><path d="M207.79,561.58c9.89-5.05,19.3,9.67,25.33,14.43-10.02,4.57-21.12-6.5-25.33-14.43Z" style="stroke-width:0px;"/><path d="M435.79,617.47c-8.45.63-21.66,2.74-29-1.45,5.58-9.62,23.17-8.48,29,1.45Z" style="fill:#3f3e58; stroke-width:0px;"/><path d="M404.66,619.03c-23.96,15.42-.13-13-11.19-16.85,7.97-11.87,17.29,7.38,11.19,16.85Z" style="fill:#334; stroke-width:0px;"/><path d="M404.66,618.44c-9.62-5.29,1.47-19.48,8.04-14.55-.98,5.13-.94,15-8.04,14.55Z" style="fill:#151324; stroke-width:0px;"/><path d="M234.08,556.76c8.32-4.98,14.85,4.91,21.76,7.57-7.31,3.67-20.76.45-21.76-7.57Z" style="fill:#302f40; stroke-width:0px;"/><path d="M376.15,558.27c5.76.4,19.48-1.25,24.19,2.82-4.74,7.81-18.39-.34-24.19-2.82Z" style="fill:#3f3f5a; stroke-width:0px;"/><path d="M208.43,561.06c-5.21-.73-5.46-7.72-7.72-11.03,4.46-1.28,8.27,7.45,7.72,11.03Z" style="stroke-width:0px;"/><path d="M448.42,568.3c-8.75-.92-38.48-11.04-22.6-22.07-3.33-12.84-31.01-.32-39.22-10.31-16.95-13.89,8.73-16.68-16.07-37.44-11.39-5.72-12.27-16.11-17.02-26.16-34.54-13.02-67.21-34.92-3.93-26.08,17.61,6.92-18.77-29.41-17.97-38.34-5.77-38.94,18.2-.23,28.19,8.52,18.02,3.19,6.28,25.92,12.74,38.63,6.79,10.58-8.07,23.17,4.64,31.22,30.4,13.3,16.36,19.91,54.07,27.88,27.4,27,64.16,51.56,98.45,26.37,11.26,4.09-7.09,16.53,6.35,13.73,20.32-4.13,36.92-15.24,54.26-25.93,10.2-3.78,10.32-18.81,21.31-20.1,25.09.42,32.98-30.08,45.01-23.97,13.19,17.61-25.76,21.88-30.66,35.54-8.65,22.02-33.88,29.18-49.54,45.61-28.69,3.63-55.23,14.11-85.37,12.63-16.15-2.01-25.17-20.28-42.65-9.74Z" style="fill:#a0a4b9; stroke-width:0px;"/><path d="M474.31,571.03c12.23,7.5,69.31-9.78,58.17,10.14-.35,10.2,10.44,2.76,15.54,3.38,4.06,13.7-33.73,21.14-21.35,47.31,9.74,14.16,5.36-18.5,12-14.84.93,10.6,8.72,1.91,11.89,6.35-.03,3.4-4.26,8.21-6.62,11.16-15.17,8.58,3.44,31.17-18.22,29.96-27.96.87-5.38-36.45-26.9-46-37.56-17.51-13.74-30.14-24.51-47.46Z" style="fill:#9194ad; stroke-width:0px;"/><path d="M620.35,522.45c1.49-15.35,22.37-17.6,32.82-27.75,13.2-14.52,29.62-37.62,50.92-37.39,8.4.15,4.03,4.47-1.6,6.15-9.73,4.77,8.74,7.5,12.15,8.11,38.07,3.81-13.7,12.23-7.09,26.55.6,2.73-2.79,3.21-5.64,3.42-13.35-3.2-8.29,11.76-16.43,17.21-10.02,5.57-28.87,4.2-11.18,14.58-4.31,9.86-29.42.61-39.9,10.62-20.22.08,13.78-20.79,20.78-21.86,8.69-21.9-33.8,30.57-34.82.36Z" style="fill:#747794; stroke-width:0px;"/><path d="M565.24,635.27c-13.98-7.31,17.21-28.92,18.55-11.94-1.21,12.19,14.98-2.33,18.92,5.7,7.98,10.17-13.33,8.25-15.18,18.16-8.2,18.87-12.58-12.03-22.29-11.92Z" style="fill:#6d6f8c; stroke-width:0px;"/><path d="M647.46,524.94c-9.73,14.45-32.72,24.55-48.8,20.95,2.27-6.89,17.74-11.41,20.59-20.98,1.89-3.31,3.49-.55,5.4,1.1,5.23,9.15,25.82-13.99,22.81-1.07Z" style="fill:#9396b1; stroke-width:0px;"/><path d="M602.18,629.43c-6.42-3.04-30.56,12.36-26.51,3.27,13.82-27.03,76.47-16.14,26.51-3.27Z" style="fill:#030307; stroke-width:0px;"/><path d="M570.94,586.58c-9.89-6.26,8.5-16.3,14.63-18.1,18.64-2.45-4.37,22.6-14.63,18.1Z" style="fill:#727490; stroke-width:0px;"/><path d="M463.57,640.97c-29.19-6.67,15.33-33.66,8.57-8.95,1.13,6.71-1.56,9.33-8.57,8.95Z" style="fill:#6a6b89; stroke-width:0px;"/><path d="M221.44,433.07c-21.5-3.63,1.23-24.65-6.44-33.62,8.91-17.06-9.33-5.19,2.54-33.49,3.71,3.97-2.36,16.72,7.78,18.22,3.37,4.29-1.96,10.56-.54,15.68.45,5.53,4.81,10.27,2.38,13.82-11.84,3.36-11.36,10.32-5.73,19.4Z" style="fill:#676885; stroke-width:0px;"/><path d="M201.37,399.72c-9.33,8.73-33.43-3.69-17.23-13.36,5.97-3.36,10.34,3.78,15.79,5.08,9.23.63,8.31,5.12,1.44,8.28Z" style="fill:#656681; stroke-width:0px;"/><path d="M165.2,378.73c4.87.63,8.31,6.18,6.67,10.86-3.84,9.1-22.4-10.37-6.67-10.86Z" style="fill:#656681; stroke-width:0px;"/><path d="M215.79,332.26c.73,4.25,3.18,11.39-.79,12.99-9.32,2.2-4.32-11.16.79-12.99Z" style="fill:#595973; stroke-width:0px;"/><path d="M226.88,434.73c12.49,7.54,17.48,30.96,2,9.57-1.06-2.12-7.33-10.13-2-9.57Z" style="fill:#676885; stroke-width:0px;"/><path d="M230.34,448.1c14.51.4,15.93,12.85,15.82,23.41,70.68,20.18-39.35,36.37-15.82-23.41Z" style="fill:#030306; stroke-width:0px;"/><path d="M386.47,299.48c-19.29,7.4-5.55-33.01-26.58-38.53-11.57-6.25,3.95-10.9-2.24-15.92-11.75-10.12,14.27,3.15,16.85-3.46,3.2-14.67-28.24-.86-29.97-15.64,7.4-15.27,27.97-7.72,38.18.8,8.87,2.07,18.11,4.1,9.73,14.22,6.97,29.38,31.77,33.01-5.96,58.53Z" style="fill:#8387a4; stroke-width:0px;"/><path d="M393.09,250.68c-16.75-4.32.8-12.64-2.6-18.03-9.57-.97-24.57-7.81-27.55-17.44,5.64-5.8,21.47,6.26,30.94,4.59,22.71-10.66,52.98-16.23,70.51.06,5.77-16.63,20.1,2.53,13.69,11.82-15.77,9.31-40.48,26.14-58.96,17.04-5.69-4.36-7.81-14.07-1.86-18.72,8.8-.44,12.65,9.63,23.87.51,12.74-3.98-9.91-14.03-15.54-11.33-20.32-.14-19.95,25.08-32.49,31.49Z" style="fill:#6b6b86; stroke-width:0px;"/><path d="M271.76,128.88c-14.67,29.01-22.44,38.23,10.66,59.4,9.98,32.71-80.75-28.95-10.66-59.4Z" style="opacity:.7; stroke-width:0px;"/><path d="M272.03,193.32c12.84,6.5,6.8-6.87,5.63-13.63,2.28-5.76,24.57,11.75,18.83,29.78-3,9.28-13,14.09-11.67,24.37-18.49,4.18,1.54-16.22-9.29-16.92-1.04-.29-3.74-.33-3.42-1.78,16.64-12.67.29-11.04-.08-21.82Z" style="fill:#646080; stroke-width:0px;"/><path d="M324.55,203.51c1.09-9.7,23.18-8.03,12.03-18-2.47-3.79,18.23-.66,14.74,11.29-2.44,6.27-26.41,16.95-26.77,6.71Z" style="fill:#59556d; stroke-width:0px;"/><path d="M284.72,234.26c-18.37-23.32,30.37,6.98,40.47,4.43,5.97,5.2-36.34.83-40.47-4.43Z" style="fill:#515069; stroke-width:0px;"/><path d="M342.95,229.58c-12.1,15.56-14.93-3.8-9.93-13.42,8.11-8.69,17.79,5.78,9.93,13.42Z" style="fill:#342f4d; stroke-width:0px;"/><path d="M328.95,208.12c-.98-5.4,4.28-7.62,8.49-8.78,14.21.54-5.89,21.45-8.49,8.78Z" style="fill:#03030c; stroke-width:0px;"/><path d="M329.42,207.73c5.84,3.19,13.51,10.99,1.56,10.69-11.34,2.31-11.2-23.2-1.56-10.69Z" style="fill:#777488; stroke-width:0px;"/><path d="M692.77,611.37c-.45,9.59-17.73,19.23-10.06,3.7,1.72-2.55,8.99-8.97,10.06-3.7Z" style="fill:#7d819d; stroke-width:0px;"/><path d="M500.48,205.93c17.52-1.43,38.52.34,54.14,2.58-3.32,8.01,4.42,6,9.33,7.76,11.02,3.63,14.86,47.46-1.42,31.75-21.9-40.06-55.75-44.64-87.17-18.05-3.11-18.19,6.1-31.22,25.11-24.03Z" style="fill:#a8a8be; stroke-width:0px;"/><path d="M580.88,223.06c6.37-2.5,2.11,4.47-3.11,5.09-4.46-1.43.28-5.28,3.11-5.09Z" style="fill:#19192f; stroke-width:0px;"/><path d="M665.46,480.49c-2.44,7.56-9.24,4.74-14.88,6.13-11.25,10.17-22.29,26.71-39.67,24.46-9.68,3.2-13.08,21.09-26.18,23.19-11.75,8.11-54.56,36.05-60.43,20.2,7.63-33.44,42.52-47.13,70.64-65.95,10.79-4.22,13.62-3.46,17.36-15.44,24.01-44.96,72.95-63.37,53.16,7.4Z" style="fill:#bec4d4; stroke-width:0px;"/><path d="M730.69,476.52c-8.9.17-43.13,1.12-36.43-13.05,16.53-10.57,81.84-10.83,36.43,13.05Z" style="fill:#626280; stroke-width:0px;"/><path d="M643.5,401.78c15.4-11.33,33.07.5,28.17,18.72-11.88,4.68-23.21,17.86-35.4,25.79-14.27,14.38-9.05-1.76-14.94,1.79-10.03,9.6-24.25,10.44-36.85,13.67-9.52,5.8-18.53,9.42-29.4,6.94-5.84,2.89-15.2,10.6-16.99-.72-26.61-.27-.59-54.39,41.94-29.87,15.91-1.25,24.95-18.17,38.38-23.71,9.56.63,17.35-7.56,25.09-12.61Z" style="fill:#bfc3d3; stroke-width:0px;"/><path d="M661.05,361.97c10.08.52,13.17,7.63,8.1,15.56-18.04,23.49-36.81-2.67-8.1-15.56Z" style="fill:#bec1d2; stroke-width:0px;"/><path d="M643.23,402.57c-3.06,4.53,3.68,8.63-.31,9.28-8.03-1-26.85,2.75-19.94-11.68,7.48-6.76,37.89-14.77,20.25,2.4Z" style="stroke-width:0px;"/><path d="M650.45,393.97c-8.44,3.06-24.3-14.64-9.38-15.55,11.51.63,33.09,15.78,9.38,15.55Z" style="stroke-width:0px;"/><path d="M660.32,361.02c-4.83,5.41-13.43,20.25-21.93,13.92-3.74-8.42,34.78-35.46,21.93-13.92Z" style="fill:#c0c5d4; stroke-width:0px;"/><path d="M660.46,390.57c-4.43-3.04-8.42-8.29.28-8.87,3.31-.67,11.5-8.86,11.05-.94-1.98,3.74-7.34,9.37-11.32,9.81Z" style="stroke-width:0px;"/><path d="M643.02,441.29c5.33-6.77,14.13-15.91,21.34-19.59-1.07,6.87-14.8,19.96-21.34,19.59Z" style="fill:#54576d; stroke-width:0px;"/><path d="M481.48,226.02c22.01-37.29,72.76-8.29,84.6,22.6,6.28,1.09,17.3.71,21.19,8.92,7.81,8.83,27.41-1.73,31.82,9.21.79,16.22,2.24,21.25,18.62,25.33,18.07,23.07-1.69,56.67-19.89,24.19-7.27,7.4-16.87,7.41-15.67-4.86-4.36-5.1-13.92.57-17.63-5.27,10.19-25.9-2.15-45.59-33.92-45.76-14.9-1.94-24.71,6.17-33.87-10.19-4.41,1.77-5.23,10.19-9.86,11.48-13.16-1.53-26.32.94-39.89-.41-26.71-4.91,15.98-21.84,14.5-35.24Z" style="fill:#bac0d0; stroke-width:0px;"/><path d="M620.62,321.75c11.64.56,30.6,49.14,8.59,43.56-10.03-8.89,7.5-28.98-16.8-31.56-12.97-5.86-23.96,10.63-36.79,9.31-47.29-7.51,31.01-28.06,45.01-21.3Z" style="stroke-width:0px;"/><path d="M660.26,329.53c.85,6.52-6.8,20.07-14.13,17.92-8.42-9.25,9-13.26,14.13-17.92Z" style="stroke-width:0px;"/><path d="M627.91,252.52c.59-7.78,12.64,1.43,12.19,5.24-2.76,3.81-12.37-.49-12.19-5.24Z" style="fill:#636280; stroke-width:0px;"/><path d="M625.31,360.69c51.73,1.38-8.76,8.4,19.67,29.72-80.42,77.14-64.05,16.76-111.25,54.02-3.94,2.82-6-1.79-4.81-5.6,7.14-9.36,12.63-17.77,11.97-30.16,9.67-17.93,24.76,16.62,41.88.4,41.77-12.18-27.11-57.16,42.54-48.38Z" style="opacity:.6; stroke-width:0px;"/><path d="M688.69,506.53c-8.49-11.75,4.73-9.49,14.09-7.95,8.22-2.76,20.12-6.79,26.26,1.66,3.76,20.72-31.25,17.74-40.35,6.28Z" style="fill:#020205; stroke-width:0px;"/><path d="M808.66,465.28c-25.25-2.06-14.96-32.71-.96-25.49-2.75,8.24,5.91,19.37.96,25.49Z" style="fill:#7e829d; stroke-width:0px;"/><path d="M690,506.87c21.03,3.66,23.37,4.23,40,.92-.64,11.39,8.19,8.48,15.25,8.65-3.17,5.99-18.15,3.47-25.64,3.68-17.8-2.87-27.15,25.17-47.18,15.67-7.94-.54-18.18-7.99-8.54-14.83,11-1.9,20.4-3.19,26.11-14.09Z" style="fill:#666784; stroke-width:0px;"/><path d="M755.25,498.97c.48,6.23-18.36,19.8-21.23,10.36,6.06-2.52,15.45-19.88,21.23-10.36Z" style="fill:#7e829d; stroke-width:0px;"/><path d="M677.13,536.36c9.98-7.8,30.16-13.71,42.16-7.09-11.72,5.72-29.76,11.08-42.16,7.09Z" style="fill:#04030c; stroke-width:0px;"/><path d="M351.16,295.73c-4.47-7.06-13.2-8.29-20.52-9.79-.92-4.94,8.65-.9,12.69-.83,18.53.45,3.66-15.42,2.22-24.21,17.56-18.41,40.56,37.47,20.58,48.88-10.84,9.69-10.24-7.49-14.98-14.06Z" style="fill:#777b99; stroke-width:0px;"/><path d="M365.49,310.49c9.67-22.96,1.32-43.47-20.83-56.64-2.23-3.13-.44-4.54,2.76-3.26,26.55,3.41,47.8,50.85,18.07,59.9Z" style="fill:#a7acc1; stroke-width:0px;"/><path d="M356.5,417.64c-25.89-16.25-4.75-16.79-10.23-26.26-3.34-4.14-5.39-11.75.08-14.97,10.82-7.59,9-28.97,21.62-34.18,7.21,4.11,6.31,16.74,10.22,23.58-.15,9.64-9.93.55-13.27,4.25-10.2,16.44,34,29.24,7.69,34.82-10.96-2.18-8.85,10.89-16.11,12.76Z" style="fill:#a8acc1; stroke-width:0px;"/><path d="M360.82,357.38c-10.5,21.3,6.52,18.83-17.73,26.25-1.57-13.42-21.66-25.77-18.59-30.36,11.32,1.18,9.82-13.3,19.2-13.01,14.22,9.68,31.43-8.88,17.13,17.11Z" style="fill:#999db5; stroke-width:0px;"/><path d="M319.53,380.1c-2.04-7.56-7.12-15.29-9.61-22.21,10.56.65,15.7,14.54,9.61,22.21Z" style="fill:#5e6176; stroke-width:0px;"/><path d="M263.54,133.32c-11.66,12.47-16.11,23.59-13.62,40.54-15.56,31.93-17.25-34,13.62-40.54Z" style="fill:#514f69; stroke-width:0px;"/><path d="M260.26,204.82c-4,.41-11.98-10.85-14.03-14.26-2.81-11.81,28.14,9.4,14.03,14.26Z" style="fill:#4b4865; stroke-width:0px;"/><path d="M481.32,227.49c7.8,16.2-27.71,19.62-19.34,37.93-4.7,9.31-19.12,16.29-14.68,29.34,1.1,4.62,9.89,10.56,4.32,14.82-18.17-.22-20.29-14.42-21.17,11.75-6.28,2.63-14.08.3-20.49,4.14-16.57,4.03-22.74-15.79-22.98-28.67,2.69-7.35,13.07-12.33,16.76-21.63,6.85-28.88,54.19-30.47,77.59-47.68Z" style="fill:#b3b8ca; stroke-width:0px;"/><path d="M392.28,316.97c23.73,2.27,7.18,11.24,5.05,24.54-2.46,46.77-33.17,15.24-35.36-12.27-.98-7.12,15.96-8.91,12.31-.79-3.37,3.62,9.41,21.12,13.3,18.43,2.12-4.96-8.91-28.03,4.69-29.91Z" style="fill:#bfc2d3; stroke-width:0px;"/><path d="M384.61,348.55c-4.41-.91-11.4-9.64-9.57-14.17,4.7-1.38,13.05,10.14,9.57,14.17Z" style="fill:#c0c5d4; stroke-width:0px;"/><path d="M335.79,415.38c18.74,2.61,3.47,18.89,1.58,28.91-4.38,6.38-29.79-2.13-16.23,10.86,7.82,10.44,24.68,14.17,1.87,19.26-19.98,10.64-6.96,24.03,4.89,33.37-1.74,23.62-31.13-7.51-40.56-12.65-18.86-18.59,36.96-36.64-.71-45.61,1.04-6.57,18.3-.12,21.67-7.09-.68-10.03,7.79-.59,12.59-4.12.4-9.14,5.66-18.67,14.89-22.92Z" style="fill:#7e829f; stroke-width:0px;"/><path d="M311.74,486.43c-6.2-19.22,39.07-27.54,40.07-6.73.37,3.59-4.78,7.99.61,9.15,12.02,2.89,28.57,11.85,29.11,25.05-8.95,12.16-33.4.41-44.61-5.32-12.06-11.65-11.58-20.59-25.18-22.15Z" style="fill:#6f6f8c; stroke-width:0px;"/><path d="M354.34,515.75c-3.15-11.63,16.17,6.48,21.81.78,17.87-15.77-36.14-25.06-33.81-30.07,20.25-13.01-11.65-18.17-19.24-23.24-3.78-7.09,4.4-5.8,8.98-4.33,19.49,1.16,28.89,12.2,31.59,29.49,8.57,7.92,18.42,14.86,24.11,25.42,2.62,15.41-7.4,4.32,1.54,24.89-14.06-.28-23.16-17.19-34.99-22.93Z" style="fill:#9396af; stroke-width:0px;"/><path d="M265.02,405.73c5.46,1.29,14.06-4.84,17.49-.89,3.09,8.13,9.13,19.67,3.32,27.55-3.83-2.25-9.62-6.11-14.05-8.27-3.17-5.46.13-8.5-8.82-9.92-10.47-.29-21.41,15.48-15.67-6.73,5.09-1.24,12.23,2.25,17.73-1.73Z" style="fill:#60607b; stroke-width:0px;"/><path d="M358.84,517.58c1.13-1.39,5.1.74,6.29,1.72,10.08,25.71,59.73,13.85,63.7,24.47-20.1,1.33-58.27-.12-69.99-26.19Z" style="fill:#7e829f; stroke-width:0px;"/><path d="M255.75,357.01c16.78-11.98,32.15,17.31,23.03,29.73-7.25-13.45-5.53-20.07-23.03-29.73Z" style="fill:#110f20; stroke-width:0px;"/><path d="M312.94,416.12c-.66-6.47,5.21-13.19,5.65-20,7.58,2.1,3.55,20.25-5.65,20Z" style="fill:#474559; stroke-width:0px;"/><path d="M274.83,382.96c4.15,5.71.11,17.7-6.59,19.89-.58-5.76.23-17.74,6.59-19.89Z" style="fill:#5b5971; stroke-width:0px;"/><path d="M266.67,479.32c-3.45.17-18.01-4.14-6.74-6.46,9.26-6.67,15.35-2.25,6.74,6.46Z" style="fill:#5d607a; stroke-width:0px;"/><path d="M291.7,335.26c.42,9.89-15.17-1.36-10.85-4.57,3.89-1.65,10.89-.82,10.85,4.57Z" style="fill:#04030c; stroke-width:0px;"/><path d="M384.95,551.52c-4.08.39-13.19-6.95-7.52-9.97,5.16-.94,19.88,10.41,7.52,9.97Z" style="fill:#060711; stroke-width:0px;"/><path d="M642.8,440.59c-24.58,40.46-71.8,64.47-108.37,95.52-8.9,4.06-14.14,22.08-24.12,10.5-13.54-17.09-79.87-41.38-70.99-61.39,8.57-4.98,18.62,8.96,25.44,10.23,6.76-2.76,11.26-8.44,18.22-.64,54.94,49.47,26.29,15.3,77.1-5.99,5.05,8.19,67.89-27.15,37.64-18.14-10.53,4.36-24.48,27.52-32.65,10.97-9.52,1.81-15.87,11.73-25.06,14.47-7.72-3.56-6.87,1.01-10.02,6.64-8.9,3.87-14.49,34.6-15.23,7.86,2.07-9.84-66.69-27.3-62.35-49.56,10.43-4.28,24.88-1.09,33.86,5.31,2.87-.05-2.72-8.65,4.19-8.32,15.33,8.51,32.78,17.63,48.94,4.42,14.32-10.06-1.77,5.83,3.71,8.46,5.54.56,18.63-17.07,20.25-5.38,1.14,1.56,4.02.2,5.61-.41,9.16-2.24,20.63-14.85,28.85-8.71,3.3-1.04,5.45-7.83,9.3-5.12,7.11,2.69,24.03-19.92,20.27-2.31,5.6,1.36,9.3-9.94,15.39-8.42Z" style="fill:#151515; stroke-width:0px;"/><path d="M450.13,500.66c120.08,68.37,37.66,74.23-27.75,11.75-4.04,14.34-27.49-12.69-33.7-18.28-6.81-2.53-12.14-.63-17-9.05-5.87-6.45-6.37-13.74.91-18.85-.67-5.8-6.67-20.24-5.63-28.62-13.52-41.92,110.56,78.76,43.58,40.29,14.01,6.92,24.67,17.44,39.59,22.76Z" style="fill:#bdc2d2; stroke-width:0px;"/><path d="M509.5,471.48c-5.38.68-15.52-13.19-18.1-7.78,1.84,2.6,6.77,11.65-.91,9.11-6.79-1.08-18.22-16.86-20.01-5.08-19.39-8.57-40.22-2.52-57.36-17.25-19.05,2.44-33.12-16.61-45.94-28.59-10.98-.43-11.55-7.08-9.86-16.69,1.05-6.98,10.66-5.01,18.01-6.08,18.35-6.88,20.38,21.19,37.77,19.47,16.39,1.93,30.46,25.36,47.13,19.98,15.13-15.86,43.88-2.62,47.56,17.37,3.65,4.21,9.66,13.35,1.72,15.53Z" style="fill:#c0c5d4; stroke-width:0px;"/><path d="M338.06,445.8c-10.51-4.75-.81-21.17,8.09-16.77,6.45,7.42,17.87,14.05,14.26,26.6-3.98,4.12-14.33-10.67-22.35-9.83Z" style="fill:#757794; stroke-width:0px;"/><path d="M370.72,423.5c4.23,1.13,22.88,18.93,10.3,13.9-3.77-2.62-15.99-8.97-10.3-13.9Z" style="fill:#6d728a; stroke-width:0px;"/><path d="M511.39,551.6c.2-4.8-14.22-17.8-9.42-16.02,5.05,1.62,18.98,12.89,9.42,16.02Z" style="fill:#86889d; stroke-width:0px;"/><path d="M647.38,526.32c-9.15-10.13,5.99-13.76,13.9-12.67,4.57,5.66-8.23,21.13-13.9,12.67Z" style="fill:#7d819d; stroke-width:0px;"/><path d="M661.85,513.83c-1.99,1.57-7.01,6.52-9.39,3.77-2.57-5.02,12.67-13.77,9.39-3.77Z" style="fill:#9396b1; stroke-width:0px;"/><path d="M468.58,219.58c.58,7.01-5.94,8.47-11.56,8.42-4-4.41,2.72-11.35-6.45-17.17.49-9.5,18.63,2.48,18,8.75Z" style="fill:#110d25; stroke-width:0px;"/><path d="M470.42,187.02c8.92.93-2,35.31-5.7,29.94-14.7-25.16,2.62-14.85,5.7-29.94Z" style="fill:#7b709a; stroke-width:0px;"/><path d="M458.16,239.55c-5.68,17.99-36.64,9.31-50.07,28.41-19.87,2.22-16.65-16.06-1.37-24.71,7.88-6.3,14.13,6.81,25.83,5.95,8.69,1.42,18.53-13.53,25.61-9.65Z" style="fill:#9a9db5; stroke-width:0px;"/><path d="M415.38,242.46c-38.53,39.5-16.13-30.78,14.2-27.48,17.67,2.65-17.47,13.94-14.2,27.48Z" style="fill:#898ca7; stroke-width:0px;"/><path d="M430.68,220.06c5.06-2.42,18.8-2.06,18.32,5.59.16,3.35,8.94,6.05,3.8,8.82-7.84-2.07-12.43-2.86-18.94,3.26-13.14,5.3-13.39-13.17-3.17-17.67Z" style="fill:#030307; stroke-width:0px;"/><path d="M467.92,212.08c-7.12-12.72,12.53-16.79,13.71-2.76-1.49,14.79-6.77,15.23-13.71,2.76Z" style="fill:#4e456d; stroke-width:0px;"/><path d="M430.85,220.43c-1.93,5.76-7.47,11.24-3.85,17.31-10.8,2.55-6.15-18.81,3.85-17.31Z" style="fill:#454657; stroke-width:0px;"/><path d="M599.3,488.73c.31-4.49,17.07-20.29,15.05-9.09-2.64,3.78-10.44,14.05-15.05,9.09Z" style="fill:#323655; stroke-width:0px;"/><path d="M511.12,467.02c-9.34-8.51-20.72-58.06-1.07-30.87,11.36,5.45,28.41,7.15,21.17,25.35.65,5.56-.89,13.39-8.05,12.55-2.18-6.28-6.83-5.34-12.05-7.03Z" style="fill:#b4b7c9; stroke-width:0px;"/><path d="M592.95,428.59c9.74-1.21,31.38-36.07,32.63-19.04-25.56,37.87-86.37,40.48-32.63,19.04Z" style="stroke-width:0px;"/><path d="M581.54,434.42c-11.77,7.89-28.89-7.58-39.31,4.95-11.26-9.38,15.14-14.49,23.52-11.23,1.99.24,6.06,1.3,2.51,2.82,2.06,1.25,12.25-.21,13.28,3.46Z" style="stroke-width:0px;"/><path d="M620.13,414.86c.59-2.56,3.64-4.35,6.2-4.79,15.62-2.7-11.07,25.55-6.2,4.79Z" style="fill:#444; stroke-width:0px;"/><path d="M532.12,453.93c-3.27,5.02-4.41-10.08-.69-9.46,7.08-1.2.76,6.08.69,9.46Z" style="stroke-width:0px;"/><path d="M629.02,444.68c-11.79-1.06-.31-5.62,3.82-5.49,1.16,1.97-1.5,6.12-3.82,5.49Z" style="fill:#575a6c; stroke-width:0px;"/><path d="M633.93,383.34c-20.11.91,12.52-11.85,16.23-15.1,1.53-1.39,9.61-9.74,9.4-4.01-5.14,9.93-14.34,18.17-25.63,19.11Z" style="stroke-width:0px;"/><path d="M631.27,397.83c2.97-2.64,7.99-4.63,12.11-4.14,1.59,4.47-8.91,5.04-12.11,4.14Z" style="opacity:.7; stroke-width:0px;"/><path d="M507.59,258.98c6.59-24.29,13.32-20.91,19.21,1.59-1.25,22.64,15.17-6.87,36.09,41.92,24.25,12.37-20.53,24.29-29.41,33.48-11.74,9.08-16.94-9.57-28.44-13.11-12.21-11.04-2.31-33.42,13.45-31.22,4.82.35-1.02-.22-2.25-.13-45.89,13.14,18.13,47.8-7.21,48.15-14.61-6.7-30.37-22.44-31.43-37.4,9.77-8.02-.06-27.37,15.65-30.14,11.15,2.95,15.91-1.95,14.33-13.15Z" style="opacity:.6; stroke-width:0px;"/><path d="M509.32,266.84c10.14,21.55-18.56.29-21,11.59-4.11,6.25-2.5,19.07-12.03,19.43-10.79,1.26,3.16-30-9.41-16.44-1.18,9.48-8.26,4.4-13.06,6.26-2.72,10.62,26.19,6.33,16.51,14.74-57.27,4.62-12.98-57.6,28.77-44.09,5.29,1.97.2,4.96-2.74,4.67,1.86,1.27,10.35.45,12.96,3.83Z" style="fill:#bac0d0; stroke-width:0px;"/><path d="M546.14,281.53c-22.73-13.74-17.01-9.92-.56-19.36-19.21-11.51,47.12-4.44,44.35,15.35,1.16,20.81-7.58,23.38-18.22,5.98-7.23-2.81-18.46,4.12-25.56-1.96Z" style="fill:#bac0d0; stroke-width:0px;"/><path d="M547.43,319.53c11.67-3.97,22.62-10.23,33.05-15.64,12.02-.76,22.72,13.59,5.86,15.47-7.51-.16-14.63-2.56-14.96,6.96-8.4,4.57-15.3,14.69-24.39,17.53-24.76-3.35-9.69-14.17.45-24.32Z" style="fill:#c0c5d4; stroke-width:0px;"/><path d="M584.05,304.83c-17.74,15.45-33.85-4.2-36.79-21.91,5.16-3.11,16.56-4.31,22.84-4.33,7.14.69,13.29,15.5,2.78,14.69-3.12-1.67-13.88-9.75-9.04-.66,25.34,15.44,17.35-10.39,26.08-11.61,7.63,6.85,1.37,18.98-5.86,23.82Z" style="fill:#c0c5d4; stroke-width:0px;"/><path d="M589.52,317c3.77-4.39,8-27.53,11.96-10.72,10.78-5.71,3.04,17.33-3.97,15.34-5.2.59-11.1,2.02-12.15,7.23-5.42,1.73-8.96.82-12.17,6.29-12,5.28-18.33-10.31-4.08-9.97,5.74-6.44,13.11-5.72,20.41-8.18Z" style="stroke-width:0px;"/><path d="M538.65,257.71c3.99.25,22.39,5.19,17.28,8.89-13.66-3.51-22.8,10.57-33.19,10.84-6.68-9.8,5.16-21.67,15.91-19.73Z" style="fill:#bac0d0; stroke-width:0px;"/><path d="M599.38,323.19c1.88-10.33,13.34,1.79,15.97-11.83,4.32-12.86,11.39,6.4,4.4,10.8-3.12,2.18-23.86,10.24-20.37,1.03Z" style="fill:#c0c5d4; stroke-width:0px;"/><path d="M510.22,265.86c-1.42,7.49-34.74-1.9-20.06-5.2,4.71.5,21.79-2.16,20.06,5.2Z" style="fill:#c0c5d4; stroke-width:0px;"/><path d="M560,334.78c-7.26,28.35-1.06-.17,42.44,5.56,7.42,17.83-45.97,35.61-56.91,51.49-7.72,3.1-7.89-11.49-11.06,2.37-5.46,12.41,9.23,20.21,3.63,32.68-4.75,6.31-4.38,18.76-13.8,18.11-17.96,2.57-32.09-21.65-21.88-36.07,4.97-7.09-.23-16.99-4.09-22.79-10.66,17.14-22.9-13.47-37.74-15.08-8.55-11.55-53.24-23.64-34.57-38.52,12.4-7.35,28.21,4.16,39.99,8.59,3.45,4.31,6.48,14.21,13.05,10.91,4.32-37.94,29.03-3.33,31.78,15.99,18.78,10.22,7.07-34.96,20.29-35.52,13.44,8.02,15,9.23,28.87,2.28Z" style="fill:#c0c5d4; stroke-width:0px;"/><path d="M583.04,361.77c3.69-11.6,26.63-13.81,21.02-27.47,10.98-24.27,31.18,32.76-21.02,27.47Z" style="fill:#c0c5d4; stroke-width:0px;"/><path d="M595.58,359.68c12.22-4.33,18.34-14.66,23.11-25.48,12.17,1.27,5.53,25.63-4.8,27.88-4.22,3.83-27.39,7.17-18.31-2.4Z" style="stroke-width:0px;"/><path d="M610.2,363.46c10.63-6.57,11.03-16.92,11.72-27.91,18.36,1.52,5.99,35.93-11.72,27.91Z" style="fill:#b4b1cf; stroke-width:0px;"/><path d="M602.84,330.4c21.54,10.13-21.75,19.48-26.9,10.5,10.39-.04,17.47-10.71,26.9-10.5Z" style="fill:#b4b1c8; stroke-width:0px;"/><path d="M570.64,340c-10.25,21.2-28.6,21.58-13.68-2.45,2.63-2.38,15.65-2.3,13.68,2.45Z" style="stroke-width:0px;"/><path d="M581.13,329.83c.18-3.2,4.5-2.9,6.84-2.3,2.22,4.21-4.44,4.86-6.84,2.3Z" style="fill:#c0c5d4; stroke-width:0px;"/><path d="M585.87,410.14c-23,11.16,10.51-14.31-7.83-11.63-3.76,2.63-6.3,10.52-11.93,9.17,6.87,2.66,12.48-17.62,17.4-6.6-2.62,14.73-25.22,19.77-30.24,3.53-2.39-15.53,17.42-28.04,31.36-29.66,8.22-1.86,21.36,13.76,9.04,8.82,7.51,9.77,5.53,19.92-7.8,26.37Z" style="opacity:.1; stroke-width:0px;"/><path d="M576.39,379.83c-18.35,6.14-32.14,31.93-5.98,35.83-6.1,1.37-15.34-3-18.6-8.5-18.11-15.88,54.94-69.96,42.29-36.36.5,10.75-11.71,3.16-17.71,9.04Z" style="stroke-width:0px;"/><path d="M534.7,433.57c5.68-31.76-13.62-16.82-4.28-35.33,16.7-29.73,21.06,33.73,4.28,35.33Z" style="stroke-width:0px;"/><path d="M545.06,405.48c-17.29-10.73,21.17-43.38,26.27-31.47-10.23,8.44-16.31,24.62-26.27,31.47Z" style="stroke-width:0px;"/><path d="M586.54,409.44c8.59-7.02,13.54-25.17-1.86-26.97-4.5-.93-1.97-2.53.91-2.75,18.64.32,21.75,31.28.95,29.71Z" style="opacity:.5; stroke-width:0px;"/><path d="M574,414.49c-2.81-4.14,10.76-8.82,8.04-13.91-1.5-5.76-20.88,24.8-16.95-2.44,4.85,17.53,5.95.57,14.19-3.21,13.02-.81,1.65,19.91-5.27,19.56Z" style="stroke-width:0px;"/><path d="M582.9,435.14c-6.2.74-16.61-.89-21.07-4.67,8.39-1.81,46.6-2.43,21.07,4.67Z" style="fill:#c3b9db; stroke-width:0px;"/><path d="M600.48,398.12c-1.44-2.26-6.1-18.99.04-13.21,1.86,3.96,1.76,9.35-.04,13.21Z" style="stroke-width:0px;"/><path d="M362.43,377.54c-9.95-25.59,11.39-9.12,23.46-3.16,16.45,15.85-23.85,23.16-23.46,3.16Z" style="fill:#c2c8d8; stroke-width:0px;"/><path d="M380.23,372.95c-3.36-3.63-13.11-16.57-8.11-19.8,8.29,13.31,19.85,6.64,32.08,6.55,21.8,6.47-15.02,28.01-23.97,13.25Z" style="stroke-width:0px;"/><path d="M369.29,386.51c9.64,2.36,48.47-20.72,37.71,2.57-9.97-.53-16.47,3.56-24.91,7.18-3.54.24-19.29-6.17-12.8-9.75Z" style="stroke-width:0px;"/><path d="M373.02,392.85c13.4-3.79,42.33,4.01,20.19,15.44-4.06-7.51-18.27-8.79-20.19-15.44Z" style="stroke-width:0px;"/><path d="M369.7,386.37c-2.53,6.99-11.34-3.8-7.8-7.61,2.69-3.88,6.99,5.33,7.8,7.61Z" style="stroke-width:0px;"/><path d="M361,357.49c.22-3.35,1.36-8.37,4.09-10.5.94,3.29-.82,9.05-4.09,10.5Z" style="fill:#9c9fb6; stroke-width:0px;"/><path d="M457.19,340.02c-11.73,3.41-15.43-11.57-28.14-7.21-19.54,11.27,1.86,20.53-29.09,7.39-4.19-5.28,3.69-11.77,5.17-16.92,10.34-.7,24.75-3.67,35.41-2.98-3.18-2.23-7.14-6.33-6.85-11.35,2.88-17.77,18.53,10.01,31.33,5.43,12.4,4.36,42.01-17.31,19.23,6.61-7.47,5.27-17.71,6.38-26.76,4.98,2.41,3.2,12.27,11.68-.3,14.04Z" style="fill:#c0c5d4; stroke-width:0px;"/><path d="M487.16,311.28c-7.21,13.81-30.38,4.51-42.98,5.99,1.77-5.63-6.03-8.35-5.58-13.4,13.72,4.86,8.64.5,21.36-1.37,8.7,7.85,19.74,3.14,27.2,8.78Z" style="opacity:.3; stroke-width:0px;"/><path d="M463.95,306.46c-7.55,1.81-30.77-14.22-17.72-12.28,9.38,11.97,30.34,9.36,36.54-4.51,5.14-10.53,4.23,3.58,7.68,6.65-5.76,5.23-16.69,17.35-26.5,10.14Z" style="opacity:.3; stroke-width:0px;"/><path d="M435.96,310.97c.24,7.36,20.29,10.21,10.57,11.77-10.51-3-34.84,12.49-35.03-5.82,2.06-5.21,9.08,1.98,13.07,1.85,11.26,3.99-2.72-20.62,11.38-7.8Z" style="stroke-width:0px;"/><path d="M435.59,310.78c-21.31,6.65-1.86-21.25,3.11-9.74-.68,2.87-1.71,7.37-3.11,9.74Z" style="stroke-width:0px;"/><path d="M399.86,337.51c7.58-1.08,5.69,4.37,6.81,9.99,7.08,34.13-24.85-.58-6.81-9.99Z" style="stroke-width:0px;"/><path d="M394.72,344.26c3.98,6.73,16.13,24.9-.86,17.6-3.9-3.06-5.66-18.06.86-17.6Z" style="fill:#c0c5d4; stroke-width:0px;"/><path d="M399.68,338.36c-8.26,5.69-5.25-11.89,2.6-12.1,10.48-1.9.34,9.32-2.6,12.1Z" style="stroke-width:0px;"/><path d="M393.3,441.88c3.57-1.34,11.35,10.04,12.27,3.89-.17-1.63-.97-4.45,1.71-3.96,9.04,2.73,14.38,15.07,24.67,11.75,3.06,1.58,10.07,11.28,11.17,2.48,10.81-2.3,39.63,38.87,18.26,37.6-11.6-14.1-26.73-15.53-42.84-21.57-5.53-9.45-29.34-21.19-25.26-30.18Z" style="fill:#05061c; stroke-width:0px;"/><path d="M596.81,474.76c-9.11,8.22-23.61,20.31-34.16,22.34-1.08-13.21-8.54-.98-13.11,2.26-10.1-7.82-15.29,25.16-24.01,11.93.63-11.48,3.91-16.36,15.33-17.84,7.5-5.62,34.91-32.13,29.96-8.87,3.38,6.95,31.38-30.88,25.99-9.82Z" style="fill:#c7cbd8; stroke-width:0px;"/><path d="M516.44,525.65c-11.14-3.17-56.25-57.55-22.7-31.42,3.83,2.37,4.39-2.36,6.19-4.42,4.07-.57,3.23,9.3,5.43,11.03,13.08-2.5,12.68,16.94,11.08,24.81Z" style="fill:#c7cbd8; stroke-width:0px;"/><path d="M439.47,477.34c-8.78-19.95,29.44,17.35,29.15,19.18-8.65,3.3-24.93-11.33-29.15-19.18Z" style="fill:#bec1cd; stroke-width:0px;"/><path d="M481.91,488.36c19.48,23.63-14.82,2.11-17.87-6.11-2.89-13.79,16.4,2.26,17.87,6.11Z" style="fill:#c5c8d4; stroke-width:0px;"/><path d="M425.16,474.78c7.78-4.57,19.77,10.4,14.1,18.08-7.72,9.49-29.91-20.23-10.61-9.93,5.99,1.64-4.83-5.95-3.49-8.15Z" style="fill:#1d2034; stroke-width:0px;"/><path d="M515.95,525.72c3.15-7.25,2.32-17.71,5.18-25.15,15.6.2,6.92,28.45-5.18,25.15Z" style="fill:#b1b4c3; stroke-width:0px;"/><path d="M441.07,486.33c-4.91-1.33-24.19-18.69-13.17-18.07,3.06,4.29,25.54,15.33,13.17,18.07Z" style="fill:#b3b6cb; stroke-width:0px;"/><path d="M509.45,467.27c6.88-12,18.73,2.67,13.67,7.31-3.69-3.61-6.51-5.29-10.03-.42-4.53,3.25-6.72-3.69-3.64-6.89Z" style="fill:#84879f; stroke-width:0px;"/><path d="M515.72,520.97c-4.35-8.32-3.13-20.89.89-29.21,1.04,6.36,2.37,24.25-.89,29.21Z" style="fill:#2b2e4a; stroke-width:0px;"/><path d="M428.69,492.07c6.54-1.47,17.43,2.22,20.95,7.94-6.63,1.36-19.31-.21-20.95-7.94Z" style="fill:#878ca6; stroke-width:0px;"/><path d="M608.79,466.73c15.27-4.05-15.8,22.22-16.05,14.62,3.15-6.73,8.49-12.99,16.05-14.62Z" style="fill:#c4cadb; stroke-width:0px;"/><path d="M608.19,467.17c-2.57,2.21-9.92,13.1-12.79,9.82,1.05-9.33-4.2-9.04,7.02-11.93,6.48-3.81,10.62-7.73,5.77,2.12Z" style="fill:#3e4159; stroke-width:0px;"/><path d="M468.2,488.73c6.84-4.06,5.08,5.21,5.33,9.25-7.8,6.72-11.12-3.43-5.33-9.25Z" style="fill:#838498; stroke-width:0px;"/><path d="M538.41,496.81c-3.8,3.37-9.77-3.6-6.23-7.18,3.69-8.61,5.22,4.71,6.23,7.18Z" style="fill:#a0a5b5; stroke-width:0px;"/><path d="M612.46,475.05c.25,2.72-3.43,8.13-5.87,4.49.05-1.5,4.25-5.24,5.87-4.49Z" style="fill:#bec4d4; stroke-width:0px;"/><path d="M520.2,503.56c.81,4.7.73,10.69-.95,15.21-.79-4.68-1.31-11,.95-15.21Z" style="fill:#2b2e4a; stroke-width:0px;"/><path d="M422.32,483.62c-2.03,5.91-15.16-6.19-19.07-9.06,2.17-5,14.76,8.09,19.07,9.06Z" style="fill:#6c6f82; stroke-width:0px;"/><path d="M393.99,441.98c-.57,8.03-15.67-5.58-7.67-4.5,1.99,1.62,6.21,2.87,7.67,4.5Z" style="fill:#40455c; stroke-width:0px;"/><path id="f" d="M398.62,399.86c-19.49-12.82-8.21-12.63,6.7-14.73,1.47-5.18-12.32-7.17-6.86-13.34,8.99-4.39,12.2-16.07,23.87-11.15,15.91.71,29.69,8.79,14.44,23.27-5.15,20.33,34.1,41.88,43.93,19.67,14.7-18.7,21,40.62,24.2,46.35-33.42-40.6-56.14,10.13-106.29-50.06Z" style="opacity:.6; stroke-width:0px;"/><path d="M436.18,427.43c20.27,12.58,40.61-6.81,56.57,4.73,9.94,16.59-7.15.49-13.85,1.01-27.75,3.29-7.88,16.2-19.16,12.95-6.32-1.58-40.74-14.3-23.56-18.69Z" style="stroke-width:0px;"/><path d="M399.89,399.97c22.73,5.32,17.55,26.09-5.54,12.62-13.87,6.21-.23-12.01,5.54-12.62Z" style="stroke-width:0px;"/><path d="M411.79,414.5c-11.04-22.15,23.17,10.86,25.22,15.17-8.27,5.69-21.66-7.66-25.22-15.17Z" style="stroke-width:0px;"/><path d="M413.32,415.61c18.13,10.6-15.65,10.98-14.43-.17.05-7.92,10.12.07,14.43.17Z" style="fill:#a69fbf; stroke-width:0px;"/><path d="M502.63,451.02c1.86-14.74,5.19,5.96,3.86,9.01-3.4-.6-4.83-5.99-3.86-9.01Z" style="stroke-width:0px;"/><path d="M500.05,435.97c-18.54-8.25-7.7-88.93,4.31-45.39,10.82,31.16-9.85,9.98-4.31,45.39Z" style="stroke-width:0px;"/><path d="M500.28,432.99c-6.43-9.73-4.91-22.65,6.37-25.03-6.84-13.9-2.85-32.18,1.38-5.21-2.02,10.81-9.89,17.38-7.75,30.24Z" style="fill:#9b93b6; stroke-width:0px;"/><path d="M525.05,338.19c5.55,8.15-.09,45.85-11.98,34.39-6.86-9.33-16.62-35.32-.96-37.63,3.25-2.18-.55-7.23,0-9.59,13.37-5.49,11.21,3.82,12.95,12.83Z" style="opacity:.6; stroke-width:0px;"/><path d="M508.85,335.66c-4.27,6.7,7.58,42.04-3.78,24.24-2.75-8.9-4.66-22.67-16.92-20.4-17.02,5.84-21.15-4.54-12.28-17.45,11.65-9.72,23.59,8.22,32.98,13.61Z" style="fill:#c0c5d4; stroke-width:0px;"/><path d="M508.54,309.7c.14-12.18,17.05-11.83,16.65.49-.42,10.45-17.31,10.65-16.65-.49Z" style="fill:#fff; opacity:.4; stroke-width:0px;"/><path d="M510.03,325.34c-28.43,2.68-3.14-55.98,18.37-30.55-20.82-10.3-36.42,14.69-18.37,30.55Z" style="stroke-width:0px;"/><path d="M464.84,305.42c3.21-1.54,14.34-1.26,13.33,4.22-1.89,6.87-18.16,2.87-13.33-4.22Z" style="opacity:.3; stroke-width:0px;"/><path d="M488.4,277.42c-10.8-2,10.37-13.37,5.9-3.21-1.84,1.08-3.85,2.62-5.9,3.21Z" style="fill:#bfafd5; stroke-width:0px;"/><path d="M497.72,327.51c-4.23,3.62-7.14-2.55-6.82-6.24,2.99-.74,7.31,3.28,6.82,6.24Z" style="fill:#c0c5d4; stroke-width:0px;"/><path d="M540.04,312.81c-.1,6.45-7.67-.49-3.88-2.65,1.95-1.01,3.79.71,3.88,2.65Z" style="stroke-width:0px;"/><path d="M473.33,297.96c-23.94,10.05-33.52-27.98-11.25-12.78,10.72-29.33,19.1-3.69,11.25,12.78Z" style="fill:#bec1d4; stroke-width:0px;"/><path d="M581.71,296.06c-19.18,18.37-38.1-28.32-11.12-7.46,1.63,5.83,12.31.62,11.12,7.46Z" style="fill:#c3c4dc; stroke-width:0px;"/><path d="M590.19,317.89c-8.11,3.73-20.01,9.15-27.15,1.68,8.02-3.85,19.94-5.54,27.15-1.68Z" style="fill:#c0c5d4; stroke-width:0px;"/><path d="M546.67,320.1c9.38-2.92,6.84,11.89.08,5.4-.57-1.52-1.29-4.12-.08-5.4Z" style="fill:#c9bbe0; stroke-width:0px;"/><path d="M493.24,392.63c10.41,8.84-10.1,13.36-14.84,6.7-4.27-13.2-28.3-24.91-26.8-35.56,16.93,4.17,31.55,14.73,41.64,28.86Z" style="stroke-width:0px;"/><path d="M472.58,334.07c7.37,2.86,10.93,11.5,9.85,19.05-4.21,11.3-14.74-6.59-18.56-10.71-13.84-6.35.58-11.36,8.71-8.34Z" style="stroke-width:0px;"/><path d="M522.08,412.97c4.69,3,5.65,9.01,3.78,13.93-13.29,26.06-27.6-25.68-3.78-13.93Z" style="stroke-width:0px;"/><path d="M428.5,347.87c7.55-.83,23.04,5.84,21.71,14.7-7.21,5.77-27.65-5.68-21.71-14.7Z" style="fill:#c0c5d4; stroke-width:0px;"/><path d="M448.75,361.98c7,4.77,13.48,13.71,21.88,20.84,3.35,15.15-34.04-14.1-21.88-20.84Z" style="stroke-width:0px;"/><path d="M541.03,392.26c-23.41,21.97-1.3-25.77.19-15.62-.74,4.75-.21,11.37-.19,15.62Z" style="stroke-width:0px;"/><path d="M428.63,347.46c9.19,17.08-14.04,7.92-9.41-5.56.37-16.37,3.78,1.33,9.41,5.56Z" style="fill:#c0c5d4; stroke-width:0px;"/><path d="M421.67,338.85c-5.86-8.76,9.92-11.38,15.77-8.17,1.91.62.79.82-.53.94-6.17-.29-8.82,8.32-15.24,7.24Z" style="fill:#c0c5d4; stroke-width:0px;"/><path d="M507.49,365.26c5.99-3.04,12.13,9.01,5.89,11.98-3.54,1.06-6.46-9.3-5.89-11.98Z" style="fill:#a9a4c2; stroke-width:0px;"/><path d="M477.25,357.19c4.63-2.47,4.31-6.66,4.42-11.28,4.69,2.18-.09,23.79-4.42,11.28Z" style="fill:#c0c5d4; stroke-width:0px;"/><path d="M521.97,412.82c-2.96.71-7.59.8-10.5-.08,1.17-5.51,8.89-4.7,10.5.08Z" style="fill:#0a0000; opacity:.5; stroke-width:0px;"/><path d="M511.15,413.14c.75,2.52.9,11.6-3.03,10.05-1.54-3.36-.03-8.3,3.03-10.05Z" style="opacity:.1; stroke-width:0px;"/><path d="M467.92,347.19c1.46-.02,6.03,4.06,5.28,5.71-3.45,2.7-7-2.31-5.28-5.71Z" style="fill:#c0c5d4; stroke-width:0px;"/><path d="M561.07,407.97c-1.9-3.06-1.34-13.36,1.24-14.18.18,4.98-1.59,9.89-1.24,14.18Z" style="stroke-width:0px;"/><path d="M397.66,374.67c14.23,6.44-9.75,12.25-13.42,3.8-11.79-11.98,7.84-3.72,13.42-3.8Z" style="stroke-width:0px;"/><path d="M426.49,364.85c-32.69,9.33-24.02-50.98-14.19-16.72,2.23,4.83,18.47,9.76,14.19,16.72Z" style="fill:#c2c1d6; stroke-width:0px;"/><path d="M426.61,364.37c-5.79-2.71-25.93-25.31-11.28-22.36,11.3,17.66,34.79,13.97,41.21,35.19-1.34,8.06-16.1,3.39-13.93-4.58-1.68-4.58-11.51-5.28-15.99-8.25Z" style="stroke-width:0px;"/><path d="M472.05,334.43c-4.51,2.83-28.66-5.51-21.27-9.89,9.76-6.01,51.68.36,21.27,9.89Z" style="stroke-width:0px;"/><path d="M413.17,339.31c-.17,3.69,4.64,14.95-1.93,14.3-4.2.59-4.38-24.02,1.93-14.3Z" style="fill:#c0c5d4; stroke-width:0px;"/><path d="M440.47,377.3c33.1-12.99,57.56,59.34,16.93,30.47-13.73-5.4-.34-21.44,5.43-17.16,1.99-.98-28.17-19.99-22.09,6.61-8.44,6.16-11.48-20.1-.27-19.92Z" style="fill:#f5e0f9; opacity:.1; stroke-width:0px;"/><path d="M459.65,388.28c8.74,22.02-6.64.65-8.68,11.23,1.17,5.85,12.59,8.09,12.9,14.59-9.76,5.68-32.56-17.08-18-25.2,3.19-1.99,12.34-6.03,13.79-.63Z" style="stroke-width:0px;"/><path d="M455.15,385.41c-9.6,6.31-15.5,10.03-3.64,23.59-2.28,7.63-14.45-7.26-13.4-13.12-6.27-11.46,11.84-21.53,17.04-10.47Z" style="fill:#ebd7f1; opacity:.1; stroke-width:0px;"/><path d="M477.15,414.6c1.63-12.06-4.25-22.51-10.14-31.48,10.2,2.88,21.83,25.11,10.14,31.48Z" style="opacity:.5; stroke-width:0px;"/><path d="M471.69,430.09c-.13,7.69-27.02,5.7-27.09-.13,8.94,1.64,18.21-.07,27.09.13Z" style="fill:#c3c0e2; stroke-width:0px;"/><path d="M455.64,385.94c-9.02-10.64-25.81,13.06-16.24-4.1,11.81-14.58,42.57,28.28,16.24,4.1Z" style="stroke-width:0px;"/><path d="M462.37,409.23c-4.74,4.14-12.22-5.39-7.89-6.48,2.59,2.33,16.47,3.14,7.89,6.48Z" style="stroke-width:0px;"/><path d="M450.57,400.84c-6.38-3.34,2.24-11.46,5.09-4.74-2.15.6-4.54,2.42-5.09,4.74Z" style="fill:#fff; opacity:.1; stroke-width:0px;"/><path d="M465.07,394.97c4.24-.64,4.31,4.39,2.2,6.88-1.25-1.45-2.25-4.92-2.2-6.88Z" style="opacity:.1; stroke-width:0px;"/></g></svg>