<?xml version="1.0" encoding="UTF-8"?>
<svg id="b" xmlns="http://www.w3.org/2000/svg" viewBox="0 0 1065.18 347.36">
    <g id="c">
        <path
            d="M833.07,183.11c-3.68.75-6.73,1.78-7.81,6.29-.74,3.1-2.86,2.87-4.13-.2-1.1-1.59-.52-3.2.08-4.73,2.92-7.5,1.12-13.85-4.47-19.38-1.04-1.03-2.12-2.11-2.74-3.93-2.33,9.24-4.69,18.14-7.97,26.76-.96,2.53-1.6,5.05-.49,7.7.14,1.45-.48,2.59-1.43,3.6.56.75,7.73-4.91,7-4.16,4.92-4.05,10-8.07,15.53-11.28,2.34-1.36,5.79-3.58,8.68-3.28,5.07.53,2.14,7.42.9,10.18-3.39,7.54-8.69,14.38-14.27,20.41-7.28,7.87-16.78,16.51-28,17.87-2.88.35-5.57-.28-8.23-1.45-1.27-.56-2.56-1.22-3.64-2.1-.31-.25-1.82-2.32-1.96-2.34-2.57-.42-2.38-11.33-2.93-13.51-.65-2.57-1.38-5.21-1.38-7.82-.04-13.53-1.78-27.17.65-40.55,1.17-6.42,2.41-12.96,3.56-19.36,1.25-6.91,3.23-14.15,1.33-21.49-.74-2.86-.32-5.96-.09-8.95.92-12.05.2-24.1.07-36.15-.75-3.64,1.46-7.31-.12-10.96-.13-.55-.15-1.1-.08-1.65,2.57-5.75,6.35-6.32,10.3-1.54,1.6,1.94,2.78,4.09,3.3,6.56,2.5,9.75,4.41,19.64,7.38,29.29,1.95,6.33,1.65,13.13,2.93,19.65.7,3.59,1.41,7.18,2.48,10.66.57,1.84,1.56,3.88,3.8,4.23,2.41.38,3.45-1.62,4.51-3.29,4.55-7.17,7.81-14.96,10.85-22.85.84-2.67,3.39-4.32,4.17-7.02,2.22-2.81,4.87-5.24,7.07-8.08,1.09-1.4,2.32-2.31,4.18-1.48,1.46,1.45.63,3.05.51,4.71,1.7-4.07,8.15-6.03,5.15-12.18.12-.85.44-1.63,1.03-2.24,1.56-1.61,3.35-3.03,5.68-1.92,2.11,1,2.31,3.17,2.04,5.2-.82,6.24-1.6,12.52-3.22,18.6-3.27,12.29-5.51,24.9-10.64,36.64-1.17,2.68.22,5.25-.04,7.86.16,7.43-1.37,14.69-2.09,22.03-.82,4.16-2.75,7.95-4.05,11.95-.55,1.68-1.25,3.4-3.4,3.71Z"
            style="fill:#9f3d37; stroke-width:0px;" />
        <path
            d="M892.74,86.51c-.36-.19-.54-.93-.51-2.07.21-3.66,1.71-7.67,1.82-11.43.37-6.23-2.03-12.35.49-18.1,5.2-10.11,12.27-19.26,18.73-28.65,5.31-6.96,10.1-14.77,17.62-19.51,9.01-5.62,18.63-1.64,22.61,7.74,3.78,8.46,3.82,17.82,3.44,26.88,0,8.13-3.6,13.5-9.41,18.82-8.51,8.58-15.65,18.24-20.51,29.37-2.14,4.78-4.34,9.61-7.75,13.62-4.52,5.86-15.62,12.41-20.31,3.55-.93-1.96-1.06-4.25-.52-6.35,1.23-4.92,6.33-8.54,8.91-13.24,2.92-5.18,3.93-11.85,1.77-17.44-3.41-7.41-5.52-9.45-2.13-17.45,2.35-5.92-2.53-2.47-4.39-.23-6.84,7.05-4.72,17.44-6,26.18-.31,2.17-1.5,8.09-3.82,8.34l-.04-.02Z"
            style="fill:#a0a0a0; stroke-width:0px;" />
        <path
            d="M788.25,49.98c-3.22-23.59-.39-73.59,26.81-37.02,10.19,14.02,17.26,30.21,18.48,47.65.91,11.36-.79,22.76-2.69,33.91-2.32,2.32-2.41,9.91-7.03,9.89-3.99-3.34-4.6-7.43-2.68-12.11.75-1.83,2.11-3.56,1.71-5.64-.31-1.59,1.84-4.48-2.6-4.25-2.1.11-2.65-3.03-2.67-5.29-.12-1.1-.66-1.95-1.59-2.54-2.21-1.44-5.5-1.22-6.66-4.28-.37-5.29-.52-10.58,1.16-15.78-7.69,4.76-14.46-17.94-18.24-7.08.4,2.21-.54,5.3-4,2.54Z"
            style="fill:#a0a0a0; stroke-width:0px;" />
        <path
            d="M884.55,168.02c11.58-.56,23.04-2.65,34.71-2.04,7.59.4,15.01.64,19.45,8.26.08.14.9-.14,1.37-.22,1.06,1.11.8,2.31.24,3.53-4.93,10.32-10.44,20.27-17.66,29.21-1.98,2.45-3.93,4.88-6.39,6.88-.49.21-.99.31-1.52.31-9-2.09-17.51-5.55-25.81-9.54-1.84-.89-3.15-2.37-3.27-4.6-.59-5.46-1.68-10.78-3.87-15.86-2.25-5.23-.93-12.51,2.75-15.94Z"
            style="fill:#a0a0a0; stroke-width:0px;" />
        <path
            d="M1059.09,107.13c1.26,1.13,1.02,2.58.87,4.01-.52.92-1.11,1.77-2.23,2.04-.65.15-1.28.32-1.79.8-11.31,10.61-25.06,14.83-40.2,16.34-13.94,1.38-27.42-.78-40.97-3.17-2.5-3.08.47-3.57,2.22-4.42,7.22-3.52,13.61-8.1,18.92-14.16.9-1.03,1.51-2.16,1.99-3.4.62-1.13,1.27-2.25,2.69-2.55,4.13.68,7.67,3.07,11.75,3.95,4.67,1,6.39-.25,6.72-5.09.22-3.35-.25-6.66-.6-9.94-1.27-12.07,7.8-17.41,15.8-19.8.94-.28,1.95-.39,2.92-.59,4.2-.87,5.27-.04,6.08,4.2.32,1.66.28,3.32.34,4.97.18,5.02-1.9,7.17-6.98,7.78-1.98.24-4.81-1.07-5.63,1.78-.69,2.4,1.72,3.73,3.09,5.32,4.09,4.77,8.37,8.91,15.56,7.94,3.66-.49,6.35,2.49,9.45,3.98Z"
            style="fill:#582b2c; stroke-width:0px;" />
        <path
            d="M782.09,74.14c.35,10.05,1.52,20.16.83,30.13-.96,13.92.04,27.9-3.27,41.81-4.28,17.93-4.73,36.43-3.24,54.81.36,4.39.88,9.27,3.75,13.2,3.05,7.15,11.88,19.71-.83,8.95-.48.56-8.64-6.39-8.16-6.95-8.49-10.58-13.11-22.9-15.79-35.97-1.16-5.64-2.52-11.32-2.18-17.19.1-1.3.63-2.58.44-3.89-.84-5.88.92-10.92,4.72-15.35,2.73-9.89,7.21-19.22,9.31-29.34.86-4.16-.06-8.7,2.51-12.51,1.71-7.69,3.4-15.38,5.17-23.06.38-1.64.34-3.69,2.07-4.83,2.09.09,1.97,1.77,2.26,3.01.24-1.3.27-2.92,2.41-2.83Z"
            style="fill:#bc3d3f; stroke-width:0px;" />
        <path
            d="M771.26,102.31c-1.25,10.99-3.74,21.66-7.94,31.94-1.29,3.15-3.33,6.09-3.34,9.7-.97,2.01-1.98,1.5-2.66-.11-.81-1.94-.21-3.95.26-5.88,2.01-8.24,3.97-16.49,6.13-24.69,1.94-7.35-1.24-13.32-4.57-19.32-.48-.86-1.27-1.74-2.4-1.34-1.45.51-1.78,1.99-1.89,3.26-.42,4.79-.43,9.61-.64,14.41-.47,10.48.44,20.93,1.77,31.32.71,5.54-2.34,10.71-1.36,16.26.31,1.77-.38,3.65.44,5.4.94,19.12,6.74,36.65,17.29,52.61.18,1.09-.26,1.59-1.38,1.43-.63-.59-10.76-14.49-13.52-21.77-5.5-14.5-7.63-29.51-5.6-45,1.39-10.65-4.15-14.71-14.29-10.54-15.34,6.31-31.15,7.58-47.42,4.63-9.19-1.67-20.04-6.69-22.75-16.44,18.02,11.33,40.66,15.06,61.37,10.11-11.7-4.63-21.18-14.57-25.26-26.48,6.99,1.24,9.44,6.85,14,11.33s10.85,7.98,17.34,9.54c2.91.7,5.66,1.04,7.14-2.42,9.6-10.05,7.27-22.55,5.3-33.91-3.57-20.53-15.21-35.43-35.77-42.18-1.97-.65-3.93-.44-5.92-.39-1.82-.29-3.33-.96-3.68-3.02,2.6-2.14,5.48-.92,8.28-.71,19.3,3.18,31.69,14.89,39.42,32.18,1.2,2.69,1.72,4.42,5.09,2.29,2.29-1.45,4.39.15,5.98,2.12,3.07,3.83,4.76,8.34,6.33,12.9.37,1.08.32,2.38,1.91,2.49,1.4-.46.04-3.02,1.72-2.75,1.68.27.91,1.89.62,3.02Z"
            style="fill:#230403; stroke-width:0px;" />
        <path
            d="M844.12,242.12c.99-1.36,2.7-1.29,4-2.03,1.92.43,2.62-1.1,3.32-2.3.66-1.12,1.05-2.53.18-3.75-.94-1.31-2.39-1.16-3.59-.59-4.11,1.97-8.45.89-12.68,1.08-1.65.07-3.41-.19-3.41-2.56,4.49-2.84,9.96-2.64,14.71-5.2,9.28-5,17.43-18.37,16.68-28.95-.19-2.72-1.2-5.58.59-8.2,5.47-1.18,10.67-2.65,15.23-6.4,2.39-1.96,3.79,1.18,4.43,3.11,2.36,7.09,2.66,14.3.13,21.43-1,2.82-2.27,5.54-3.41,8.31-1.87,4.55-2.74,9.22-.06,13.85,1.62,2.8,2.58,5.91-.59,8.02-7.02,4.69-13.68,10.11-22.06,12.41-1.29.35-2.61.52-3.95.5-5.59-.09-8.63-2.89-9.52-8.73Z"
            style="fill:#7a3333; stroke-width:0px;" />
        <path
            d="M844.12,242.12c5.29,7.91,8.02,8.63,17.01,5.06,6.25-2.48,11.66-6.32,17.17-10.02,1.26-.85,3.17-1.87,1.81-3.95-5.8-8.86-2.4-16.98,1.51-25.34,3.19-6.83,3.44-14.15,1.03-21.38-.63-1.9-1.46-4.22-4-1.46-3.92,4.26-8.88,5.53-14.47,4.92-4.19.93-6.85-1.59-9.48-4.19-7.73-7.43-11.84-16.48-12.08-27.23-.05-2.34,1.27-6.82,4.09-3.31.8.99,1.07,2.29,1.37,3.53,1.7,7.07,4.98,13.75,9.54,19.42,1.98,2.46,4.26,4.78,7.13,6.11s6.41,1.51,9.08-.19c2.71-1.72,4.01-4.94,5.14-7.95-5.34.96-10.87-2.04-13.94-6.52s-3.97-10.13-3.67-15.55c.12-2.13.44-4.33,1.63-6.1s3.46-2.97,5.49-2.32c1.04.33,2,1.43,1.6,2.44-.2.51-.68.84-1.06,1.24-1.18,1.27-1.24,3.2-1.22,4.94.03,3.43.07,6.91,1.06,10.19.52,1.71,1.32,3.38,2.65,4.57s3.28,1.79,4.96,1.2c1.82-.64,2.91-2.44,3.9-4.09,3.51-5.86,7.49-11.45,11.87-16.69.87-1.05,1.79-2.13,2.14-3.44.48-1.81-.2-3.7-.83-5.46s-1.25-3.69-.66-5.46,2.96-3.02,4.4-1.82c1.74,1.45.55,4.75,2.28,6.21,1.51,1.28,3.77.08,5.35-1.11,6.95-5.23,14.17-10.29,22.78-12.27-.53-1.9-2.06-2.82-2.81-4.25-2.87-3.58-3.82-7.9-4.61-12.38-2.68,2.42-3.98,6.19-7.87,7.05-1.08-.26-1.57-1.06-1.83-2.05-.2-1.17.65-1.73,1.4-2.34,4.34-3.77,7.87-8.24,11.07-12.98,1.4-.35,1.88.64,2.37,1.62.26.61.5,1.25.5,1.91-.24,19.69,16.85,24.94,31.52,22.81,13.48-1.96,24.99-8.45,35.59-16.75,1.75-1.37,3.25-3.52,6.02-2.56-1.97,5.06-6.34,7.96-10.31,11.1-4.49,3.55-9.48,6.38-14.71,8.76-2.51,4.18-7.67,6.2-14.1,4.82,4.27,1.59,7.23,3.23,10.37,4.5,3.36,1.36,6.77,2.56,10.28,3.48,1.75.46,3.49,1,4.91,2.24.66.88,2.08,1.5,1.51,2.84-.47,1.1-1.74.69-2.68.7-1.15.01-2.33.23-3.42-.34-8.85-.54-15.9-5.2-22.9-9.98-.41-.28-.7-.87-1.12-.96-9.15-2.08-18.55-6.73-27.69-3.75-18.34,5.99-31.31,19.59-43.01,34.36-.93,1.17-1.61,2.53-1.61,4.11-2.01,6.65-3.55,13.16.44,19.84,2.22,3.72,1.83,8.23,1.84,12.49,1.35,4.27,1.21,8.53-.8,12.51-3.52,6.99-4.54,14.11-1.97,21.61-2.14,5.94-7.69,8.4-12.23,11.87-2.1,1.61-4.38,2.98-6.16,4.99-2.47,1.62-4.94,3.24-8.07,3.25-2.16-.03-4.32.19-6.45.08-5.93-.3-9.54-5.67-7.86-11.45.27-.36.55-.73.82-1.09Z"
            style="fill:#2d0a08; stroke-width:0px;" />
        <path
            d="M822.12,311.04c12.55,2.26,25.15,4.13,37.87,5.05-4.29,5.44-4.95,12.47-8.04,18.48-1.6,3.11-3.29,6.13-5.22,9.01-2.06,3.09-5.39,4.26-8.72,3.6-3.24-.65-5.31-2.98-7.1-6.25-4.59-8.37-5.3-17.52-6.78-26.56-.24-1.48-1.23-2.29-2.01-3.33Z"
            style="fill:#5f5956; stroke-width:0px;" />
        <path
            d="M896.95,133.11l-3.85,2.98c.03,2.01-1.13,3.42-2.5,4.63-5.22,4.63-10.85,8.59-17.71,10.43-2.25.6-4.54,1.16-6.46-.85-1.3-4.15,3.29-.97,3.71-2.97.65-2.43,2.9-3.09,4.73-4.1,2.92-1.61,3.44-3.8,2.07-6.66-1.96-4.12-4.62-7.68-8.31-10.41-8.17-6.04-15.91-4.05-20.17,5.2-.65,1.98-2.74,3.14-3.04,5.33-.48,1.35-1.68,2.26-2.17,3.6-1.22,1.52.26,4.78-3.15,4.88-1.14-3.63-.3-6.92.89-10.51,5.43-16.4,9.88-33.08,12.21-50.25.28-2.05,1.85-5.13-.16-5.98-2.32-.98-4.25,1.62-5.57,3.77-.18,4.13-2.95,5.89-6.41,7.02-4.88,1.76-6.35,6.9-9.9,9.98-1.76.03-1.67-.89-1.07-2.07.43-1.01.87-2.02,1.31-3.03,3.78-4.34,7.53-8.69,11.34-12.99,1.32-1.49,2.67-3,4.22-4.23,2.53-1.99,4.98-5.33,8.64-3.34,3.54,1.93,2.6,5.89,2.27,9.07-1.29,12.27-4.94,24.02-8.39,35.81-.36,1.23-.71,2.47-.75,4.14,4.01-5.45,9.61-5.6,15.33-5.38l.06.03c3.32,1.37,6.68,2.66,9.56,4.88,5.31.8,6.8,5.34,8.9,9.21,2.49,4.58,2.83,4.78,6.73,1.35,5.49-4.82,10.38-10.27,15.64-15.33,1.64-1.58,3.12-3.53,5.81-3.29.43.64.86,1.28,1.3,1.92.13,1.77-.91,2.97-2.01,4.14-2.06,1.65-3.94,3.47-5.13,5.89-2.67,2.37-3.89,6.36-7.96,7.16Z"
            style="fill:#200403; stroke-width:0px;" />
        <path
            d="M1063.98,74.13c-.12,1.95-1.62,2.43-3.12,2.9-1.67-1.1-4.92-.56-4.25-4.1,1.92-3.11.95-6.61-.48-9.03-5.51-9.31-11.39-18.84-23.08-21.16-10.6-2.1-21.34-2.17-32.12-.13-7.61,1.44-15.35,2.11-22.75,4.63-1.57.53-3.33.45-4.4-1.33.19-2.44,2.17-3.18,3.93-4.07,10.56-5.33,22.01-7.39,33.59-8.54,9.06-.91,18.2-1.04,27.22.87,10.31,2.18,18.6,6.96,22.44,17.45,3.57,7.16,3.15,14.85,3.02,22.51Z"
            style="fill:#7a3532; stroke-width:0px;" />
        <path
            d="M1056.74,73.29c.54,2.17,3,2.22,4.12,3.74-4.49-.15-7.75-3.61-12.01-4.46-3.12-.63-5.55-.99-4,3.57.52,1.55.67,3.24.85,4.89.74,6.98-1.5,9.32-8.54,9.18-1.4-.03-3.28-.98-4.11.58-.82,1.54.89,2.65,1.77,3.78,3.3,4.24,7.12,7.05,13.04,6.58,4.69-.37,8.63,1.85,11.23,6-11.05-1.54-21.87-3.47-28.57-14-1.07-1.68-1.85-3.17-1.13-5.05.73-1.9,2.49-1.88,4.19-1.98,7.93-.48,10.29-3.82,8.47-11.67-.39-1.68-1.24-2.26-2.78-2.01-4.27.7-8.43,1.69-12.15,4.07-6.65,4.27-8.15,10.5-6.8,17.79.88,4.75,2.59,10.2-1.59,13.59-4.33,3.51-9.16-.22-13.6-1.74-1.86-.63-3.52-1.84-5.27-2.78-3.25,1.36-5.35-.8-7.49-2.56-1.01-.83-1.98-2.05-1.24-3.47.73-1.4,2.24-1.34,3.55-1.05,3.25.74,6.33,2.04,9.45,3.17,10.7,3.87,11.28,3.87,10.79-7.22-.77-17.19,24.82-31.23,36.92-24,2.11,1.26,4.71,1.97,4.91,5.05Z"
            style="fill:#250706; stroke-width:0px;" />
        <path
            d="M1059.89,52.23c-4.67-11.32-14.17-15.73-25.39-16.81-20.44-1.98-40.31.31-59,9.52-.58.29-1.08.75-1.62,1.12-1.33,3.49-4.98,4.09-7.63,5.75-4.09,2.56-7.46,6.49-12.58,7.29-1.04-.29-2.05-.61-1.72-2.05,1.14-1.28,2.28-2.57,3.42-3.85,10.76-7.62,21.9-14.53,34.76-18.11,16.4-4.56,33.04-6.47,49.79-2.67,10.33,2.35,18.69,7.81,22.15,18.69.56.74.56,1.58-.23,2-.8.42-1.43-.28-1.95-.88Z"
            style="fill:#1e0404; stroke-width:0px;" />
        <path
            d="M911.79,109.29c-.68,1.68-2.51,3.52-3.84,4.98-5.58,5.87-10.95,11.98-16.83,17.61-5.03,4.94-8.38,5.04-11.51-1.65-2.11-4.42-6.26-9.11-5.99-13.74.12-3.02,2.31-8.74,5.47-9.11.57.02,1.12.31,1.69.72,4.26,4.29,9.02,2.52,14.17.8,4.17-1.41,7.7-1.75,11.78-1.75,1.46.18,5.79-.19,5.1,2.04l-.03.1Z"
            style="fill:#7f7f7f; stroke-width:0px;" />
        <path
            d="M896.73,115.65c-3.26,2.98-9.42,3.47-13.82,3.51-7.59-.59-.94-13.11.71-17.18,2.83-6.28,6.59-11.35,10.82-16.91,3.34-4.82,9.66-8.56,15.78-7.67,5.04,2.11-2.09,14.06-4.39,16.84-3.04,4.07-8.3,2.05-8.52,7.12-.11,3.34,2.13,11.48-.48,14.17l-.11.12Z"
            style="fill:#7f7f7f; stroke-width:0px;" />
        <path
            d="M832.26,231.86c.22.16.44.31.68.44.72.38,1.54.53,2.34.64,4.73.68,9.61.36,14.2-.96,1.02-.29,2.33-.55,2.98.29.3.38.35.89.39,1.37.13,1.6.19,3.31-.58,4.72s-2.67,2.33-4.05,1.5c1.11-.7,2.29-1.48,2.7-2.76.27-.87.04-1.86-.7-2.39-.68-.48-1.34-.25-1.97-.03-7.39,2.48-15.72,1.87-22.75-1.45s-11.31-9.46-13.65-17.1c-3.93,4.64-7.42,8.76-10.91,12.88-1.37.64-2.73,1.27-2.99-1.1,2.57-1.39,4.55-3.57,5.59-6.11,2.37-5.8,7.18-9.32,11.42-13.44,7.43-7.24,13.05-15.74,17.12-25.28,2.81-4.71,3.65-10.18,5.83-15.13.48-.32.96-.32,1.44,0,1.95,6.42-1.14,12.02-3.22,17.64-2.42,6.54-5.93,12.6-9.67,18.51-.59,1.11-1.59,1.89-2.32,2.88-.32.37-.63.77-.97,1.13-5.21,5.42-5.88,11.58.21,16.71,2.39,2.01,5.16,3.55,7.44,5.7.47.45.93.92,1.45,1.32Z"
            style="fill:#2d0a08; stroke-width:0px;" />
        <path
            d="M678.09,105.27c-2.12-.03-3.73,1.24-5.48,2.15-4.89,2.53-6.9,1.69-7.19-3.64-.22-4.07-1.41-3.45-4.01-1.78-3.79,2.44-8.1,5.03-12.5,2.5-4.74-2.73-3.27-7.82-2.88-12.22.76-8.58,5.33-15.48,10-22.33.95-.24,1.45.28,1.82,1.04.62,2.68-.91,4.8-1.91,7.04-2.1,4.71-4.17,9.46-4.65,14.64-.62,6.62.95,7.63,6.86,4.76,3.44-1.67,6.52-3.99,10.02-5.53,7.75-3.4,13.47.24,13.85,8.77-.33,1.58-.09,3.27-.65,4.75-1.11,2.95-2.26,1.79-3.27-.15Z"
            style="fill:#240503; stroke-width:0px;" />
        <path
            d="M858.25,253.28c-2.49,1.74-5.2,3.01-8.12,3.82-3.26,1.37-6.07-.1-8.95-1.36-5.57-2.46-7.55-1.24-7.8,4.77-.06,1.5.02,3-1.07,4.23-2.4,1.89-5.12,2.82-8.18,2.67-.85-.12-1.56-.51-2.09-1.19-.58-6.24.34-11.81,6.09-15.69,4.72-3.19,8.56-8.09,15.18-7.31,2.7,9.46,3.31,9.87,14.95,10.06Z"
            style="fill:#605854; stroke-width:0px;" />
        <path
            d="M925.04,215.09c.05-.31.09-.62.12-.93.24-2.92,12.96-29.22,15.08-31.19,4.1,6.56,3.45,24.49-.8,30.63-2.32,3.35-5.51,2.56-8.54,2.51-1.96-.03-3.9-.67-5.86-1.03Z"
            style="fill:#a0a0a0; stroke-width:0px;" />
        <path
            d="M792.13,68.15c-.68-2.01-1.67-3.83-2.91-5.58-3.38-4.77-5.15-4.68-8.17.58-.37.76-1.01,1.46-1.77.88-1.01-.77-.79-1.91-.18-2.93.71-3.92,3.66-4.72,6.98-5.02,3.3-2.13,5.3.23,7.17,2.27,4.57,4.98,6.96,11.19,9.23,17.41,1.81,4.95,3.47,9.94,4.46,15.16.39,2.04,1.56,3.99,2.83,5.74,1.05,1.7,3.05,1.67,4.57,2.51,2.64,1.45,5.76,2.42,6.32,6.06-.17.79-.64,1.32-1.36,1.65-1.31.46-2.65.33-3.92-.04-2.6-.76-3.74-.01-3.39,2.82.15,1.16-.08,2.44-1.47,2.82-1.61.44-2.45-.74-3.11-1.9-1.31-2.32-2.11-4.87-3.06-7.34-4.44-11.57-7.95-23.46-12.23-35.09Z"
            style="fill:#1b0605; stroke-width:0px;" />
        <path
            d="M678.09,105.27c.7,0,1.75,1.79,2.02-.29.21-1.63.11-3.3.14-4.95,2.74.34,2.57,2.67,2.89,4.48.6,3.4,2.61,3.88,5.44,2.98,2.39-.76,4.47-2.13,6.65-3.31,1.81-.98,4.18-3.03,5.73-.88,1.58,2.18-1.1,3.7-2.63,5.12-2.48,2.05-4.57,4.16-4.61,7.82-.04,3.88-2.65,5.5-6.31,5.58-4.47.1-8.46-1.57-12.38-3.46-3.45-1.66-6.72-3.67-10.29-5.09-1.57-.62-2.2-.36-2,1.37,1.88,5.67,5.99,9.72,9.91,13.93,1.7,1.83,4.33,3.27,3.59,6.5-3.11-.37-4.32-3.26-6.48-4.88-.84-.63-1.83-2.64-2.65.05-4.65-4.57-6.92-10.36-8.47-16.52-.49-1.97.09-3.66,1.68-4.84,1.51-1.12,3.14-.69,4.69.11,5.89,3.05,11.82,6,18.4,7.31,1.54.31,3.66,1.5,4.34-.51.73-2.15-1.51-2.4-3.14-2.79-4.07-.96-6.09-3.7-6.52-7.75Z"
            style="fill:#3b0c0a; stroke-width:0px;" />
        <path
            d="M808.15,98.1c-2.47-7.18-4.94-14.36-7.42-21.53-1.96-5.68-4.33-11.17-7.89-16.04-1.66-2.27-3.43-4.61-6.76-4.45.19-1.4,1-5.37,2.16-6.1.67-.07,1.34-.14,2.01-.21,3.05-1.34,5.17,3.37,6.99,5.37,6.64,7.31,10.51,16,12.4,25.64-.72,3.75.85,7.39.54,11.13-.19,2.25.12,4.61-2.03,6.19Z"
            style="fill:#7f7f7f; stroke-width:0px;" />
        <path
            d="M1058.24,112.28c.57-.38,1.15-.76,1.72-1.13.27,3.74-1.5,6.71-3.62,9.53-11.1,14.72-26.15,22.34-44.2,24.54-1.5.52-2.99.93-4.32-.4-.02-2.65,2.12-3.2,3.96-3.7,17.87-4.91,33.22-13.79,45.11-28.23.31-.37.85-.49,1.34-.59Z"
            style="fill:#250706; stroke-width:0px;" />
        <path
            d="M803.11,199.23c0-1.31,0-2.63-.01-3.94-.63-1.31.1-2.39.58-3.51.34-.35.72-.67,1.18-.86,9.01-3.7,10.25-7.25,5.57-16.04-.23-.44-.39-.9-.5-1.39-.05-2.73.92-5.25,1.8-7.74.88-2.48,2.47-2.86,4.56-1.02,8.44,7.46,6.59,24.48-3.33,30.39-3.16,1.66-6.12,3.77-9.83,4.11Z"
            style="fill:#f7f6f2; stroke-width:0px;" />
        <path
            d="M804.25,192.52h0c-.51,1.24-2.36.61-2.04-.68.02-.08.04-.16.06-.23,3.06-10.41,6.86-20.59,9.89-31.18.27-.95,1.55-1.07,2-.19,1.01,2,2.58,3.57,4.07,5.26,6.43,7.31,10.89,11.57,2.95,23.44-.05.08-.08.16-.14.23-1.48,1.79-10.68,9.59-12.68,11.64-.17.18-.46.48-.65.31-2.01-1.78-1.61-2.78-.21-3.76,1.78-1.25,5.18-2.48,7.18-5.26.16-.23.55-.16.73-.37,8.86-10.2,7.42-17.66-.25-26.86-.06-.08-.13-.14-.22-.21-.62-.51-1.55-.2-1.74.58-.75,3.05-2.11,5.71-2.06,8.77,0,.07,0,.14.02.2.63,3.01.24,6.09.53,9.13.25,2.53-1.18,4.23-3.29,5.55-1.43.9-2.68,2.08-3.91,3.26-.11.1-.19.23-.25.37Z"
            style="fill:#441b16; stroke-width:0px;" />
        <path
            d="M657.36,71.32c-.44-.46-.89-.91-1.33-1.37,7.49-10.05,18.07-15.36,29.71-18.62,7.96-2.23,16.19-3.44,24.48-1.27-2.67.61-5.63-.81-8.1,1.17-2.22,2.55-5.43,2.32-8.3,2.7-12.24,1.63-22.98,6.31-31.86,15.03-1.26,1.24-2.35,2.96-4.59,2.35Z"
            style="fill:#57110d; stroke-width:0px;" />
        <path
            d="M779.1,61.1c.28,1.04-.35,2.94,1.95,2.05.11.38.23.76.34,1.14,0,3.67-.39,7.2-3.36,9.86-3.23,8.17-4.21,16.86-5.92,25.39-.19.95-.57,1.85-.86,2.78-.13-.61-.26-1.23-.39-1.84-.65.52-1.3,1.04-1.95,1.56,2.67-11.98,5.3-23.97,8.06-35.92.4-1.74,1.4-3.34,2.12-5.01Z"
            style="fill:#460c09; stroke-width:0px;" />
        <path
            d="M1008.06,144.15c1.14,1.18,2.7.79,4.08,1.05-3.96,1.63-8.12.92-12.18.85-6.39-.1-12.8-.33-19.08-1.8.94-.04,1.89-.03,2.82-.15.69-.09,1.78.5,1.93-.52.07-.44-.98-1.04-1.51-1.57.12-.12.21-.28.35-.34,3.32-1.39,20.69.44,23.58,2.48Z"
            style="fill:#491010; stroke-width:0px;" />
        <path
            d="M861.16,284.03c2.31-3.54,6.39-4.33,9.74-6.27-.38,4.44,1.82,5.83,5.97,5.32,1.78-.22,3.63.09,5.44.15-7,1.65-14.09.88-21.15.8Z"
            style="fill:#785c58; stroke-width:0px;" />
        <path d="M1059.89,52.23c1.12.4,2.02.36,2.18-1.11,3.37,7.45,4,15.12,1.91,23.02-1.55-7.27-.59-15-4.09-21.9Z"
            style="fill:#430e0b; stroke-width:0px;" />
        <path d="M693.24,191.12c2.14,2.27,3.19,4.93,2.86,8.08-1.45-2.52-2.61-5.14-2.86-8.08Z"
            style="fill:#f5ded6; stroke-width:0px;" />
        <path
            d="M738.59,269.15c-11.57-6.81-21.43-15.89-27.05-28.01-3.2-6.19-3.46-14.1-8.9-15.97-2.94-.84-7.29.8-11.93,4.94-10.53,9.34-17.74,27.42-10.87,40.95,18.28,33.54,71.7,36.41,108.07,34.08,3.45-.4,5.89-.99,7.02-1.83,4.38-3.31-12.37-10.01-17.95-13.13-12.88-6.72-25.58-13.76-38.2-20.92l-.19-.12Z"
            style="fill:#ccc; stroke-width:0px;" />
        <path
            d="M952.24,154.73c-1.93,1.6-5.6,10.5-7.85,14.63-24.14,49.73-72.13,82.13-122.9,97.02-4.5,1.66-17.19,5.12-13.23,9.81,5.44,4.99,18.26,6.67,27.1,7.47,14.06,1.07,28.47-.76,41.05-7.25,12.93-6.62,29.25-19.9,36.14-30.17,2.7-3.97,3.19-8.48,4.28-12.96.71-2.63,2.02-5.67,4.41-9.59,10.75-15.62,20.65-32.03,26.37-50.52,1.57-4.68,3.27-10.37,4.29-14.75.54-2.36.67-3.63.36-3.67h-.02Z"
            style="fill:#ccc; stroke-width:0px;" />
        <path
            d="M792.13,68.15c4.56,8.44,7.72,17.47,11.07,26.43,2.12,5.66,4.26,11.31,6.52,17.28.53-.71.85-.94.83-1.16-.15-2.24-2.54-5.51-.74-6.39,2.86-1.41,6.16.98,9.23,1.96,2.83.39,3.75,1.71,2.31,4.08,1.87-1.53,1.62-5.81,5.79-5.22-2.74,9.24-6.48,18.04-11.81,26.11-1.34,2.04-3.31,3.53-5.91,2.66-3.14-1.05-4.56-3.86-5.18-6.79-1.49-7.11-2.9-14.26-3.9-21.46-1.64-11.75-4.95-23.1-7.73-34.59-.23-.96-.32-1.95-.48-2.92Z"
            style="fill:#7a3535; stroke-width:0px;" />
        <path
            d="M841.04,89.18c1.54-2.88,4.47-4.49,6.41-7.01,1.55.08,2.2-2.08,4.4-1.44-2.79,6.53-6.75,12.03-11.98,17.16-1.94-3.65.92-5.97,1.17-8.7Z"
            style="fill:#d88a88; stroke-width:0px;" />
        <path
            d="M778.04,74.14c-.31-3.77,2.19-6.59,3.36-9.85,3.21,3.07-.28,6.62.69,9.85-1.79,2.86-.05,6.46-1.76,9.95-2.45-3.39-1.85-6.78-2.28-9.94Z"
            style="fill:#da7b79; stroke-width:0px;" />
        <path
            d="M827.13,105.13c-2.97,3.44-5.95,6.87-9.22,10.65-.78-3.69,6.08-5.9,1.13-9.52.37-.38.74-.75,1.11-1.13,1.15-1.04,2.34-1.91,3.98-1.04,2.85-1.6,3.38-5.18,5.95-7.01.36.69.71,1.38,1.07,2.07-.6,2.48-3.09,3.7-4.01,5.97Z"
            style="fill:#350e0d; stroke-width:0px;" />
        <path
            d="M839.15,168.17c-.41-.06-.83-.13-1.25-.19.73-7.61,1.46-15.22,2.19-22.83,1.8-1.64.15-4.43,2.01-6.05,2.54,2.44,1.43,5.6,1.44,8.43,0,5.57-1.18,11.07-1.33,16.64-.04,1.34-.42,2.6-1.37,3.62-.48.51-1.05.63-1.69.37Z"
            style="fill:#491211; stroke-width:0px;" />
        <path
            d="M911.52,77.67c-2.13,3-6.9,4.74-9.86,7.38-5.43,4.61-8.47,1.57-7.06-7.7,1.14-6.28-.75-12.7.95-18.88,1.68-6.61,12.41-14.84,15.85-9.8,1.21,2.59-.8,5.83-2.07,8.36-6.09,9.24,6.88,12.33,2.29,20.49l-.1.15Z"
            style="fill:#7f7f7f; stroke-width:0px;" />
        <path
            d="M898.22,115.92c-1.81-1.31-3.08-9.44-4.14-11.7-2.69-5.9,1.75-4.3,5.98-7.32,5.24-3.45,6.53-10.13,9.4-15.18,1.28-2.11,2.62-2.32,3.18.01.43,2-.05,4.49-.81,6.44-1.78,4.73-6.22,7.8-9.29,11.9-2.43,3.12-3.17,3.04-3.22,6.91-.06,1.23-.1,6.38-.2,7.24-.14,1.17-.41,1.78-.83,1.71h-.06Z"
            style="fill:#7f7f7f; stroke-width:0px;" />
        <path
            d="M951.94,57.05c.73.39,1.46.79,2.19,1.18.32,2.83-2.05,4-3.62,5.55-7.9,7.84-15.38,15.98-20.25,26.17-1.22,2.55-2.34,5.12-3.2,7.81-.48,1.52-.65,3.38-2.87,3.53-.39-.72-.77-1.44-1.16-2.16,1.18-8.03,5.8-14.39,10.12-20.88,5.28-7.92,11.31-15.2,18.78-21.19Z"
            style="fill:#491719; stroke-width:0px;" />
        <path
            d="M821.44,100.97c-5.4,4.38-11.24-4.46-12.99-9.99-.93-2.85-1.38-5.96-1.4-9-.07-5.98,1.5-17.76,9.89-12.4,5.25,3.24,7.04,9.69,7.36,15.54.27,5.36.52,12.08-2.77,15.76l-.09.09Z"
            style="fill:#7f7f7f; stroke-width:0px;" />
        <path
            d="M810.17,70.13c-.12,3.49.18,7.09-2.45,9.97-3.38-10.67-6.37-24.6-17.47-30.33.12-4.16.88-15.06,7.17-10.43,4.63,3.23,8.27,14.63,14.08,6.74.3,7.05-.19,17.07-1.34,24.06Z"
            style="fill:#7f7f7f; stroke-width:0px;" />
        <path d="M819.12,76.15c-1.97,1.1-4.48,1.42-4.95-.98-.55-2.84,2.42-1.63,3.94-2.02.98.78,1.01,1.89,1,3Z"
            style="fill:#8e868e; stroke-width:0px;" />
        <path
            d="M924.21,101.28c4.66-18.05,16.48-31.12,29.93-43.06,6.19-4.68,12.3-9.51,19.74-12.17,4.97.46,9.16-2.44,13.9-3.29,14.72-2.65,29.39-4.88,44.31-2.49,8.68,1.39,14.5,7.09,19.91,13.62,4.1,4.95,6.79,10.21,8.1,16.51.84,4.04-.51,3.92-3.35,2.88-8.99-7.09-18.07-6.13-27.31-.48-8.84,5.41-13.74,12.63-12.47,23.53,1.05,9.09.13,9.62-8.76,6.63-5.41-1.82-10.75-3.83-16.3-5.35,2.03,2.92,5.19,4.06,7.96,5.74-.27.93-.54,1.86-.81,2.8-12.08,10.53-25.29,19.07-41.51,21.21-11.02,1.45-21.7.16-29.26-9.49-3.78-4.82-4.27-10.68-4.06-16.6Z"
            style="fill:#9e3b39; stroke-width:0px;" />
        <path
            d="M1008.06,144.15c-8.07.26-16.08-.1-23.94-2.14-8.45-2.69-17.11-4.88-24.97-10.44,5.28-2.1,10.42-2.92,14.87-5.54,8.83-.25,17.39,2.09,26.18,2.52,10.32.5,20.34-.04,30.36-2.94,9.61-2.78,18.19-7.02,25.31-14.06,1.51-1.5,1.86-.43,2.36.73-3.61,8.87-11.41,13.61-18.74,18.68-9.51,6.58-20.36,10.22-31.43,13.2Z"
            style="fill:#9c3c39; stroke-width:0px;" />
        <path
            d="M779.43,129c-.93,10.19-3.26,19.82-5.54,29.44-.52,2.19-.22,4.26-.45,6.35-1.21,11.42-.61,22.77.85,34.11.22,1.67.66,3.88-1.05,4.42-2.07.65-2.31-1.9-3.07-3.23-3.52-6.15-8.27-11.9-8.28-19.42,0-6.51,0-12.94,1.95-19.48,2.98-9.97,7.52-19.43,9.47-29.71.21-1.12.59-2.37,1.31-3.19,1.53-1.74.71-6.16,3.87-5.34,2.57.67-.55,4.2.92,6.04Z"
            style="fill:#c14a4a; stroke-width:0px;" />
        <path
            d="M755.07,163.26c-.2-.63-.58-1.26-.57-1.89.34-23.36-4.53-46.35-.24-69.62.5-2.7,2.13-4.77,4.23-1.87,5.21,7.2,9.86,14.52,7.21,24.2-2.5,9.14-4.61,18.4-6.79,27.62-.17.71-2.3,2.98,1.07,2.25-.01.33.11.84-.05.96-6.4,4.86-4.2,11.98-4.86,18.34Z"
            style="fill:#933c3b; stroke-width:0px;" />
        <path
            d="M657.36,71.32c7.06-7.67,15.12-13.78,25.24-16.96,6.38-2,12.9-2.78,19.52-3.14,1.34.33,2.69.66,4.03.98,17.46,5.74,29.22,16.77,33.68,35.16,2.2,9.09,3.06,18.33,4.11,27.53.61,5.36,1.02,10.93-.69,16.29-.05,3.1-1.88,3.91-4.63,3.73-10.62-.69-18.88-5.77-25.42-13.85-2.52-3.12-5.21-6.02-8.23-8.63-2.73-1.57-6.98-.9-7.8-5.28,1.19-1,2.71-1.72,3.24-3.87-3.25,1.92-6.18,3.63-9.09,5.37-5.55,3.32-11.32,1.43-10.32-5.83.12-.88-.48-1.86-.74-2.79-.51-6.72-4.8-9.51-10.82-6.68-4.2,1.98-8.04,4.72-12.21,6.78-6.27,3.1-8.21,1.82-8.09-5.05.15-8.8,4.17-16.3,8.22-23.77Z"
            style="fill:#9f3c39; stroke-width:0px;" />
        <path
            d="M743.24,131.2c-1.59-12.47-1.8-25.07-3.96-37.5-3.51-20.19-17.19-30.6-33.13-41.48,16.25,1.42,27.76,10.01,35.77,23.78,5.91,10.15,8.3,21.04,8.43,32.88.09,8.58-.39,16.24-7.11,22.33Z"
            style="fill:#642a2c; stroke-width:0px;" />
        <path
            d="M676.24,135.09c-5.6-6.22-12.5-11.44-15.14-19.91-.8-1.87-.02-2.54,1.78-2.13,1.68.38,2.86,1.62,4.03,2.79,7.99,7.95,17.57,12,28.88,12.36,5.1.16,10.16,1.09,15.29.09,2.52-.49,4.76,1.03,7.08,1.83,4.9,3.44,9.93,6.62,16.32,7.92-12.17,6.67-43.73,4.9-58.24-2.96Z"
            style="fill:#9a3c3a; stroke-width:0px;" />
        <path
            d="M718.17,130.13c-8.71.32-17.43,1.11-26.14-.05-10.82-1.44-20.28-5.59-27.67-13.88-1.47-1.65-1.52-1.61-3.25-1.03-1.22-1.53-1.34-3.08.24-4.36,1.25-1.01,2.39-.05,3.65.43,5.72,2.22,10.66,6.05,16.56,7.89,2.25.7,4.49,1.09,6.84,1,2.39-.09,4.25-1.3,3.66-3.61-1.27-4.97,1.85-7.11,5.11-9.38,2.33,2.15,6.48,1.63,7.8,5.28-1.08,3.05,2.08,3.77,3.25,5.44,3,4.3,6.6,8.19,9.95,12.25Z"
            style="fill:#582b29; stroke-width:0px;" />
        <path
            d="M832.15,231.77c-6.57-1.39-12.34-6.16-14.92-12.36-.76-1.83-1.26-3.87-.74-5.78.53-1.99,2.06-3.53,3.54-4.97,1.61-1.58,3.81-3.28,5.88-2.38,1.57.68,2.18,2.52,2.85,4.09,1.23,2.89,7.12,11.62,11.15,8.99,1.39-.91.78-2.4.64-3.67-.69-6.59-2.73-13-2.56-19.7,1.41-5.08,4.43-8.8,9.05-11.38,3.25-1.82,6.22-2.24,9.11.51,2.19,2.42,5.54,2.92,8.03,4.83,1.07.82,1.04,5.98,1.11,7.3.14,2.53,0,5.08-.43,7.58-.86,4.84-2.89,9.38-5.79,13.34-5.98,8.16-15.65,15.65-26.33,13.73-.2-.04-.39-.07-.59-.11Z"
            style="fill:#9e3b39; stroke-width:0px;" />
        <path
            d="M844.43,136.15c-.18-2.22,1.69-3.4,2.6-5.06,5.12-6.64,10.3-7.13,16.66-1.56,3.3,2.89,6.04,6.21,7.36,10.47.97,3.14.82,5.93-2.95,7.18-2.85-.31-3.94.84-4.37,3.83-1.59,11.01,1.37,18.62,9.46,23.06,3.28,3.55,2.89,7.16-1.34,10.32-2.28,1.7-4.81,3.02-7.83,1.78-8.9-4.45-12.34-13-15.86-21.4-1.4-3.33-2.12-6.94-3.15-10.43-2.82-5.98-2.21-12.06-.58-18.18Z"
            style="fill:#9e3c39; stroke-width:0px;" />
        <path
            d="M866.42,150.3c9.1-.22,15.91-5.35,22.64-10.6,1.42-1.11,2.69-2.4,4.03-3.61,2.62,2.24,1.9,6.2,4.5,8.57.93.85-.44,2.09-1.23,2.9-6.55,6.67-11.36,14.61-16.15,22.53-2.02,3.33-4.31,3.6-7.46,2.06-4.18-2.03-6.07-5.63-6.4-9.95-.3-3.94.02-7.93.07-11.9Z"
            style="fill:#9e3c38; stroke-width:0px;" />
        <path
            d="M909.09,119.13c.99-1.07,1.98-2.14,2.96-3.22,3.66-3.07,5.88-7.38,9.64-11.46.4,6.32,1.63,11.7,4.45,16.6,1.04,3.51-2.14,4.2-3.97,5.33-6.26,3.83-12.05,8.28-17.88,12.71-1.19.9-2.49,1.7-3.15,3.13-4.13.96-3.83-2.57-4.5-4.75-.4-1.3.17-2.9.31-4.37,2.13-2.94,4.15-5.98,7.13-8.19,1.54-2.05,3.65-3.59,5.02-5.78Z"
            style="fill:#9a3c3a; stroke-width:0px;" />
        <path
            d="M868.09,147.17c2.87-2.93,1.91-5.81.13-8.9-2.93-5.11-6.35-9.12-12.59-10.69-4.34-1.09-5.84,2.17-8.6,3.51,3.97-10.68,12.77-13.47,22.04-7.01,4.48,3.12,7.59,7.3,9.84,12.23,1.72,3.78,1.47,6.68-2.92,8.31-2.01.75-3.91,1.79-5.86,2.7-.68-.05-1.36-.1-2.04-.15Z"
            style="fill:#7d3432; stroke-width:0px;" />
        <path
            d="M844.43,136.15c.19,6.06.38,12.12.58,18.18-1.82,2.81-1.02,5.76-.34,8.63,1.97,8.33,5.07,16.11,11.49,22.15-5.21-1.16-10.87,1.34-14.22,6.35-1,1.49-1.81,3.1-2.71,4.65-.52.38-1.02.37-1.52-.03-2.05-2.44-1.8-5.32-.99-7.98,1.99-6.56,3.98-13.08,3.36-20.07.61-9.65,2.67-19.19,2.04-28.93.77-.98,1.55-1.96,2.32-2.95Z"
            style="fill:#723336; stroke-width:0px;" />
        <path
            d="M901.14,142.22c1.45-5,6.28-6.84,9.54-10.15,4.49-4.56,11.18-6.11,15.46-11.02,1.72,1.72,3.44,3.44,5.9,5.9-12.46,1.76-21.15,9.52-30.9,15.27Z"
            style="fill:#743535; stroke-width:0px;" />
        <path
            d="M864.01,186.16c7.1-1.05,10.88-6.05,9.17-12.1,2.57-.02,5.33,2.05,7.59-1.32.98,9.2-6.65,17.86-16.76,13.41Z"
            style="fill:#723733; stroke-width:0px;" />
        <path d="M909.09,119.13c-.74,2.74-2.81,4.32-5.02,5.78.71-2.77,2.89-4.25,5.02-5.78Z"
            style="fill:#2d0a08; stroke-width:0px;" />
        <path
            d="M838.1,196.13c.37,0,.74-.02,1.11-.03,1.22,7,2.5,14,3.65,21.02.68,4.19-2.11,6.41-6.07,4.5-4.04-1.95-7.77-4.6-9.08-9.33-.75-2.71-2.21-4.78-4.59-6.23.66-.68,1.31-1.35,1.97-2.03,5.07-1.43,8.29-5.9,13.01-7.9Z"
            style="fill:#635852; stroke-width:0px;" />
        <path
            d="M838.1,196.13c-1.96,3.85-5.2,6.25-9.03,7.99-1.34.61-2.68,1.5-3.98-.08,1.16-4.94,4.58-8.74,6.74-13.19,3.51-7.25,5.6-14.89,7.31-22.68.31-.04.61-.08.91-.14,2.46,4.81,2.73,9.44.3,14.57-1.95,4.13-2.77,8.8-2.25,13.52Z"
            style="fill:#4b4544; stroke-width:0px;" />
        <path
            d="M673.23,96.17c2.58-.24,3.56,1.47,4.06,3.52.27,1.14-6.79,6.38-8.31,6.16-2.54-.38-1.71-2.51-1.75-3.97-.08-3.43,2.5-5.77,6-5.71Z"
            style="fill:#532c2a; stroke-width:0px;" />
        <path
            d="M804.33,192.31c.91-2.36-.15-5.98,4.73-5.56,1.65.14,1.22-3.11.77-4.73-.81-2.93-.32-5.47,1.31-7.9,4.01,3.27,4.87,7.42,3.03,12.08-1.73,4.36-5.14,6.35-9.83,6.11Z"
            style="fill:#af9655; stroke-width:0px;" />
        <path
            d="M966.09,74.19c-3.94,6.3-8.12,12.47-11.74,18.95-3.31,5.92-8.13,9.33-14.61,10.62-5.42,1.08-9.53-3.65-8.32-9.09,2.39-10.8,9.03-18.71,17.25-25.39,6.9-5.61,14.05-10.94,22.61-14,2.95-1.06,6.81-3.76,8.55-1.23,1.25,1.82-3.07,4.63-5.26,6.72-.47.45-1.03.82-1.55,1.23-.86,4.89-3.43,8.81-6.93,12.2Z"
            style="fill:#c65050; stroke-width:0px;" />
        <path
            d="M966.09,74.19c1.05-4.78,3.32-8.88,6.93-12.2,8.93-1.42,13.05.05,16.27,5.79,3.05,5.43,2.42,12.46-1.55,17.29-5.74,6.99-16.54,5.34-19.79-3.15-.94-2.45-1.26-5.14-1.86-7.73Z"
            style="fill:#1b0603; stroke-width:0px;" />
        <path d="M768.65,182.01c-3.25-8.49-.86-16.72,1.28-25.61,1.18,3.26.45,21.81-1.28,25.61Z"
            style="fill:#db7f77; stroke-width:0px;" />
        <path
            d="M757.79,95.14c.45,4.7.94,9.4,1.33,14.11.08.92.21,2.21-1.14,2.35-.88.09-1.4-.81-1.65-1.61-1.58-4.98-1.64-9.94-.18-14.87.54,0,1.09,0,1.63.01Z"
            style="fill:#d67f77; stroke-width:0px;" />
        <path
            d="M681.16,82.15c-5.65-1.83-11.31-3.61-16.94-5.52-1.32-.45-3.25-.07-3.76-1.92-.58-2.13,1.02-3.38,2.34-4.62,7.83-7.32,16.98-11.02,27.86-11.08,7.85-.05,14.86,1.23,20.21,7.41,7.66,8.86-3.2,26.78-12.75,17.69-.54-.42-1.06-1-.96-1.64.94-5.72-1.51-10.06-5.51-13.8-.14-2.25-1.67-2.5-3.49-2.55-4.32-.12-8.62-.21-12.62,1.18,3.21.3,6.88-.32,9.28,3.05-.78,4.07-1.65,8.12-3.67,11.8Z"
            style="fill:#c34f50; stroke-width:0px;" />
        <path
            d="M767.71,211.39c2.23.31,4.86,3.16,6.83,4.72,4.98,4.41,10.52,8.63,17.12,9.83,2.56.52,5.84.56,8.2,1.12,2.54.55,2.23,1.51.11,2.31-8.66,2.91-17.77-.63-23.91-7-2.92-2.68-5.68-5.82-7.68-8.96-.71-1.16-.91-1.81-.68-1.99l.03-.02Z"
            style="fill:#2d0a08; stroke-width:0px;" />
        <path
            d="M681.16,82.15c-.23-4.26.95-8.19,2.81-11.96,2.34-4.11,4.16-4.53,8.42-1.93,6.69,3.55,7,9.41,5.73,15.85-.44.69-.89,1.37-1.32,2.06-3.88,6.33-9.79,6.32-13.61-.06-.76-1.27-1.36-2.63-2.03-3.96Z"
            style="fill:#2e0d06; stroke-width:0px;" />
        <path
            d="M850.19,133.21c.77-1.35,1.07-4.03,2.91-3.26,1.75.74,2.54,3.22,2.97,5.38,1.05,5.25.47,10.49.03,15.74-.28,3.29-.51,6.59-1.03,9.85-.49,3.11,1.6,6.04.6,9.42-3.37-1.46-3.94-4.46-5.06-7.16-3.53-8.47-2.32-17.49-3.22-26.26-.2-1.91,1.21-2.96,2.8-3.7,2.3,3.04.42,6.31.56,9.47.64-3.2,2.63-6.47-.56-9.47Z"
            style="fill:#bf5151; stroke-width:0px;" />
        <path
            d="M936.96,89.61c2.71-8.45,7.76-13.09,13.39-17.26.64-.47,1.37-1.11,2.18-.34.56.53.42,1.25.02,1.81-4.11,5.66-7.77,11.77-15.59,15.79Z"
            style="fill:#e38c84; stroke-width:0px;" />
        <path
            d="M987.3,75.42c-.09,5.54-3.83,9.7-8.63,9.6-4.88-.1-8.66-4.73-8.46-10.36.19-5.25,4.36-9.61,8.97-9.39,4.71.23,8.2,4.6,8.11,10.16Z"
            style="fill:#c2a358; stroke-width:0px;" />
        <path
            d="M692.39,68.26c-3.11-.67-5.87.15-8.42,1.93-4.47-1.3-9.13-.66-13.82-1.22,4.1-4.71,17.59-6.76,22.45-3.5,1.31.88,3.42,2.14-.21,2.79Z"
            style="fill:#dd8c86; stroke-width:0px;" />
        <path d="M695.96,80.13c-.5,3.07-1.52,6.45-5.85,6.82-7.1.61-7.65-12.06-2.36-14.71,5.21-2.61,8.33,3.67,8.21,7.89Z"
            style="fill:#bda25b; stroke-width:0px;" />
        <path
            d="M850.19,133.21c4.37.15,4.01,3.31,3.52,6.07-.42,2.4-1.77,4.62-1.78,7.17,0,.84-.36,1.84-1.31,1.8-1.24-.06-1.36-1.25-1.43-2.24-.29-4.31-.03-8.59.99-12.8,0,0,0,0,0,0Z"
            style="fill:#e08881; stroke-width:0px;" />
        <path
            d="M948.14,254.46c-6.41-10.12-15.59-18.63-26.01-24.48,2.64,6.82,5.27,13.64,7.91,20.46-2.51-1.61-5.02-3.22-7.53-4.83,5.34,10.55-1.17,24.05-11.23,30.25s-22.5,6.85-34.33,6.76c-40.73-.29-82.21-7.58-117.72-27.54-35.51-19.96-64.45-53.78-72.4-93.73,3.42,32.17,17.29,63.16,39.02,87.13-1.87-1.3-3.88-2.64-6.15-2.71s-4.75,1.77-4.44,4.03c.16,1.19,1.02,2.16,1.85,3.04,28.44,30.19,66.63,50.57,107.14,58.96,36.44,7.55,91.82,10.05,120.12-19.21,11.19-11.57,12.44-24.48,3.79-38.14Z"
            style="fill:#fdfefd; stroke-width:0px;" />
<text class="team-text" transform="translate(0 320.66) scale(.87 1)" style="font-size:160px;">
  <tspan x="0" y="0">EVENTS</tspan>
</text>
<text class="team-text" transform="translate(4.33 180.2) scale(.97 1)" style="fill:#ececec; font-size:165.26px;">
  <tspan x="0" y="0">TEAM</tspan>
</text>
    </g>
</svg>