<svg xmlns="http://www.w3.org/2000/svg" viewBox="0 0 948 180">
    <defs>
        <linearGradient id="animated-gradient" x1="0%" y1="0%" x2="100%" y2="0%">
            <stop offset="0%" stop-color="#796e89">
                <animate attributeName="stop-color" values="#796e89; #8a7ea1; #a699c2; #d3cbe3; #796e89" dur="15s"
                    repeatCount="indefinite" />
            </stop>
            <stop offset="100%" stop-color="#796e89">
                <animate attributeName="stop-color" values="#796e89; #8a7ea1; #a699c2; #d3cbe3; #796e89" dur="15s"
                    repeatCount="indefinite" />
            </stop>
        </linearGradient>
    </defs>

    <path fill="url(#animated-gradient)"
        d="m463 180-8-7-11-11-2-2-3-1-11 4c-1 1-2 0-2-1l-6-12c0-1-1-2-3-2h-24l-1-2 7-18 2-5c1-2 1-2-1-3-8-6-14-14-19-23v-2l18-6c3-2 5-5 3-9a106 106 0 0 1-3-47c1-2 1-2 3-1l31 10 4 1c1-1 1 0 2 1l-1 4c-2 1-4 2-6 1l-17-6-6-2c-2-1-3 0-3 2-1 12 0 23 4 34v3l-4 13-2 2-13 4h-1v2a58 58 0 0 0 9 11l4 1 2 1 3 9c0 3-1 4-3 6l-4 8-1 3 1 2a73 73 0 0 0 18 0l4 1c7 7 15 10 24 12l4 3 9 11 3 2h2c5-4 10-8 13-14l3-2c9-1 17-5 24-11 2-2 4-2 6-2h16c2 0 2 0 1-2-1-5-3-9-6-13s-3-3-1-8l1-4c1-2 2-3 4-2l4-2 8-10v-2l-13-4-3-3-2-8V73l3-18V42c0-2-1-2-2-1l-17 5-7 3c-5 1-10-1-13-5l-2-3 4 1c4 1 7 1 11-1l29-9c3-1 3-1 3 2a129 129 0 0 1-3 45l1 8 1 1c6 3 11 6 17 7h1c2 0 2 1 1 2l-4 7c-4 6-9 11-14 15-2 2-2 2-1 4a127 127 0 0 1 8 22c0 2 0 2-2 3l-7 1-17-1-2 2a2520 2520 0 0 1-8 13 883 883 0 0 1-14-3l-20 19-1 1h-2Z" />
    <path fill="url(#animated-gradient)"
        d="M460 83c-7-4-12-9-16-16-3-5-4-10-5-15 0-14 5-26 13-36 6-6 13-11 20-15l1-1h1l3 6c3 7 3 14 0 20-2 6-1 10 3 15 3 3 5 6 6 10 2 6 1 11-1 16a46 46 0 0 1-17 16v-1l6-6 7-11c2-6 2-12-2-17l-6-9c-3-4-3-8-2-13 2-4 3-7 2-11V9c-1-1-1-2-3-1l-8 6c-6 5-11 11-15 19-4 11-4 22 1 33l10 14 2 3ZM292 35v2a132423 132423 0 0 0-1 111h-7l-1-1-21-31-35-51-11-15v1a150069 150069 0 0 0-1 97h-7l-1-2V34c0-2 0-2 2-2h6l2 1 38 56 28 40V34l1-2a1030 1030 0 0 0 19 1l33 43 4 6 5-6 33-43 2-1h11l-6 8-19 26-20 25-1 2v53l-1 2h-7l-1-1V94l-1-3a24547 24547 0 0 1-42-55l-1-1ZM7 104h3l1 1 1 11c1 10 7 16 16 20l16 2 16-1c5-2 10-4 13-9 3-3 4-8 3-12l-1-7c-1-4-4-6-7-8l-15-5-27-7c-5-2-10-5-14-9s-6-9-7-14l1-15c3-8 8-13 15-16l15-4 18 1c8 1 15 4 21 10l7 13 2 14-1 1h-7l-1-1c-1-4-1-9-3-13-2-7-7-11-14-13a62 62 0 0 0-31 1c-4 1-8 4-10 8-4 5-4 15 1 21l10 5 17 5 24 7c10 5 15 12 16 23a27 27 0 0 1-15 30c-5 3-12 5-19 6-8 0-17 0-25-3-7-3-13-7-18-13l-6-15v-13l1-1h4Zm733-14h19l2 1c0 10 0 20-3 30-4 12-12 22-25 26-14 4-27 2-38-7-7-5-11-12-14-20a100 100 0 0 1-2-52c2-8 6-16 12-23 6-8 15-12 25-13 7-1 13 0 20 2 7 4 13 9 17 16s6 15 7 23l-1 1h-6l-1-1-4-14c-5-10-12-16-24-17-6 0-12 0-18 3-5 3-10 7-13 12-5 7-7 15-8 23v10c0 10 1 20 5 29 6 11 15 18 28 19a31 31 0 0 0 33-21l2-15-1-1h-30l-3-1v-9l1-1h20ZM94 90V33l1-1h7l1 1v48l2 1a16849 16849 0 0 1 65-1V33l1-1h7l1 1a211895 211895 0 0 0-1 115h-7l-1-1V94l-2-1h-63l-2 1v52l-1 2h-7l-1-1V90Zm786-39v1a147047 147047 0 0 0-1 96h-6l-1-1V34l1-1h6l1 1 19 33 17 28 19 33 1 2V34l1-1h6v2a137975 137975 0 0 0-1 113h-5l-2-1a10761 10761 0 0 0-39-68l-16-28Zm-99 41c0-11 1-20 4-29s8-17 15-22c6-5 13-7 20-7 6-1 12 0 18 2 9 3 15 8 20 16s7 17 8 26a101 101 0 0 1-3 40c-3 8-6 15-12 20-6 6-13 10-21 11-7 0-15 0-21-3-9-3-14-9-19-16-5-8-7-17-8-26l-1-12Zm78-2v-7c-1-7-2-14-5-20a32 32 0 0 0-34-19c-7 1-12 3-17 7-6 5-10 12-12 20-2 9-3 19-2 28 1 8 3 15 6 22 3 6 8 11 15 14 6 3 12 4 19 3s12-3 17-8 8-10 10-16c2-8 3-15 3-24Z" />
    <path fill="url(#animated-gradient)"
        d="M614 90V34l1-1a19834 19834 0 0 0 61 1v8l-1 1h-52q-2 0-2 2v37l2 1h45l2 1v8l-1 1h-46l-2 1a7218 7218 0 0 1 2 43h52l1 1v9l-1 1h-60l-1-1V90Z" />
    <path fill="#ffffff"
        d="m432 112-6-6-9-14c-1-1-2-2-1-3l-1-2v-1h1l3 1 14 8 7 5 3 2c2 0 3 0 3-2v-5l-2-7-1-1 2 1 3 9v7c0 4 2 6 4 8a63 63 0 0 0 9 6c1 1 1 1 2-1l2-9 1-13-1-6-2-11 1-3 1 2c0 3 0 6 2 9v1c2 2 3 3 5 1l8-5 10-8c5-3 9-6 15-7 0-1 1 0 0 0l-1 19c-1 5-3 9-7 13l-7 5-2 2-2 1-2 1-1 1 2 1 5-2 6-2-1 1-6 3-5 1-11 1c-2 0-3 2-4 3l-2 6c-1 4 2 6 4 9l3 2 2-1 10-14 1-1v-1l1 1c0 4 2 7 4 9h2l8-11 5-9 4-6c2-4 2-8 1-11l-1-8 2-3h1v5l2 9c0 5-1 9-4 13a283 283 0 0 0-17 31h-2l-4-3-2-3c-1-2-1-2-2-1l-8 10c-1 2-1 2-3 0l-9-9c-2-3-2-3-3 0l-4 10v4l-1 1-12-8-4-6v4l-1 5h-2l-2-3-8-9-8-10-2-2c-2-2-2-4-2-7l1 1c1 4 3 7 6 10a168 168 0 0 0 12 12c1 1 2 1 3-1v-5l1-2 1 1 12 13 3 1v-2l2-8v-7l-6-5-2-1-5-1h-10c-4 0-8-2-10-6l-1-2 1-1v1l2 2 6 3Zm69-36v-1c-1-2-1-2-2-1l-2 1-10 8-10 7c-3 2-6 6-7 11v4c2 4 5 5 9 4 5-1 8-4 12-7 3-3 4-7 6-10 2-5 4-10 4-16Zm-62 36h1c2-1 3-1 3-3 1-1 0-2-1-3-2-2-3-3-5-3l-11-7-3-2-2-1v2c3 6 6 11 12 14l6 3Z" />
    <path fill="url(#animated-gradient)"
        d="M555 90V34l1-1h6l1 1v102l1 1h47l2 1v8l-2 2h-55l-1-1V90Zm-357 0v56l-1 2h-8V33l1-1h7l1 1v57Zm570 0V34l2-1h5l1 1v112c0 2 0 2-2 2h-5l-1-1V90ZM424 57c3 0 5 1 7 3 3 2 3 6 0 8-3 4-10 4-13 0-3-3-2-8 2-10l4-1Zm0 12 4-1c3-2 3-4 0-6-2-2-6-1-9 0-2 2-2 4 0 6l5 1Zm95 63-2 5c-2 3-5 3-7 0-3-3-3-7 0-10 2-3 7-3 8 2l1 3Zm-3 0-1-4h-3v8h3l1-4Z" />
    <path fill="#ffffff" d="M417 133c0 2-2 3-4 3-1 0-3-2-3-4s1-3 4-3c2 0 3 1 3 4Z" />
    <path fill="#ffffff" d="M460 83Z" />
    <path fill="#ffffff"
        d="m485 102-5-1c-2-1-2-2-2-5 2-5 4-9 9-10h2c-4 1-7 5-8 9-1 3 2 6 5 5s5-3 5-6c1-1 0-2-1-2h-2l-2 2 1 2 2-1 1-1v2l-4 2-2-4c1-3 4-5 7-4l1 2c1 3 0 6-3 9l-4 1Z" />
</svg>